<?xml version="1.0" encoding="UTF-8" standalone="no"?>
<!DOCTYPE svg PUBLIC "-//W3C//DTD SVG 1.1//EN"
 "http://www.w3.org/Graphics/SVG/1.1/DTD/svg11.dtd">
<!-- Generated by graphviz version 2.36.0 (20140111.2315)
 -->
<!-- Title: schemas Pages: 1 -->
<svg width="743pt" height="260pt"
 viewBox="0.00 0.00 743.00 260.00" xmlns="http://www.w3.org/2000/svg" xmlns:xlink="http://www.w3.org/1999/xlink">
<g id="graph0" class="graph" transform="scale(1 1) rotate(0) translate(4 256)">
<title>schemas</title>
<polygon fill="white" stroke="none" points="-4,4 -4,-256 739,-256 739,4 -4,4"/>
<!-- CrashDriver -->
<g id="node1" class="node"><title>CrashDriver</title>
<ellipse fill="none" stroke="black" cx="314" cy="-234" rx="70.2668" ry="18"/>
<text text-anchor="middle" x="314" y="-230.3" font-family="Times,serif" font-size="14.00">CrashDriver.xsd</text>
</g>
<!-- PrivacyMetadata -->
<g id="node2" class="node"><title>PrivacyMetadata</title>
<ellipse fill="none" stroke="black" cx="648" cy="-234" rx="87.1385" ry="18"/>
<text text-anchor="middle" x="648" y="-230.3" font-family="Times,serif" font-size="14.00">PrivacyMetadata.xsd</text>
</g>
<!-- CrashDriver&#45;&gt;PrivacyMetadata -->
<g id="edge1" class="edge"><title>CrashDriver&#45;&gt;PrivacyMetadata</title>
<path fill="none" stroke="black" d="M384.453,-234C439.776,-234 495.099,-234 550.422,-234"/>
<polygon fill="black" stroke="black" points="550.752,-237.5 560.752,-234 550.752,-230.5 550.752,-237.5"/>
</g>
<!-- niem_core -->
<g id="node3" class="node"><title>niem_core</title>
<ellipse fill="none" stroke="black" cx="457" cy="-162" rx="62.0922" ry="18"/>
<text text-anchor="middle" x="457" y="-158.3" font-family="Times,serif" font-size="14.00">niem&#45;core.xsd</text>
</g>
<!-- CrashDriver&#45;&gt;niem_core -->
<g id="edge2" class="edge"><title>CrashDriver&#45;&gt;niem_core</title>
<path fill="none" stroke="black" d="M345.029,-217.811C366.255,-207.421 394.576,-193.557 417.424,-182.373"/>
<polygon fill="black" stroke="black" points="419.08,-185.459 426.523,-177.919 416.002,-179.172 419.08,-185.459"/>
</g>
<!-- jxdm -->
<g id="node4" class="node"><title>jxdm</title>
<ellipse fill="none" stroke="black" cx="189" cy="-162" rx="44.2946" ry="18"/>
<text text-anchor="middle" x="189" y="-158.3" font-family="Times,serif" font-size="14.00">jxdm.xsd</text>
</g>
<!-- CrashDriver&#45;&gt;jxdm -->
<g id="edge3" class="edge"><title>CrashDriver&#45;&gt;jxdm</title>
<path fill="none" stroke="black" d="M285.948,-217.291C267.306,-206.851 242.718,-193.082 222.969,-182.023"/>
<polygon fill="black" stroke="black" points="224.428,-178.828 213.993,-176.996 221.008,-184.936 224.428,-178.828"/>
</g>
<!-- geospatial -->
<g id="node5" class="node"><title>geospatial</title>
<ellipse fill="none" stroke="black" cx="314" cy="-162" rx="62.0922" ry="18"/>
<text text-anchor="middle" x="314" y="-158.3" font-family="Times,serif" font-size="14.00">geospatial.xsd</text>
</g>
<!-- CrashDriver&#45;&gt;geospatial -->
<g id="edge4" class="edge"><title>CrashDriver&#45;&gt;geospatial</title>
<path fill="none" stroke="black" d="M314,-215.697C314,-207.983 314,-198.712 314,-190.112"/>
<polygon fill="black" stroke="black" points="317.5,-190.104 314,-180.104 310.5,-190.104 317.5,-190.104"/>
</g>
<!-- niem_xs -->
<g id="node6" class="node"><title>niem_xs</title>
<ellipse fill="none" stroke="black" cx="55" cy="-18" rx="55.3682" ry="18"/>
<text text-anchor="middle" x="55" y="-14.3" font-family="Times,serif" font-size="14.00">niem&#45;xs.xsd</text>
</g>
<!-- CrashDriver&#45;&gt;niem_xs -->
<g id="edge5" class="edge"><title>CrashDriver&#45;&gt;niem_xs</title>
<path fill="none" stroke="black" d="M257.648,-223.102C221.262,-215.092 173.831,-201.531 136,-180 94.9972,-156.664 77.6473,-150.892 58,-108 49.1734,-88.7304 48.9401,-64.5756 50.6277,-46.2941"/>
<polygon fill="black" stroke="black" points="54.1124,-46.6281 51.7928,-36.2903 47.1594,-45.8182 54.1124,-46.6281"/>
</g>
<!-- structures -->
<g id="node7" class="node"><title>structures</title>
<ellipse fill="none" stroke="black" cx="553" cy="-18" rx="61.1419" ry="18"/>
<text text-anchor="middle" x="553" y="-14.3" font-family="Times,serif" font-size="14.00">structures.xsd</text>
</g>
<!-- CrashDriver&#45;&gt;structures -->
<g id="edge6" class="edge"><title>CrashDriver&#45;&gt;structures</title>
<path fill="none" stroke="black" d="M382.851,-230.093C428.157,-225.013 486.529,-212.091 528,-180 568.361,-148.768 573.571,-122.609 567,-72 565.867,-63.2774 563.728,-53.9451 561.456,-45.5801"/>
<polygon fill="black" stroke="black" points="564.816,-44.5985 558.678,-35.9624 558.091,-46.541 564.816,-44.5985"/>
</g>
<!-- PrivacyMetadata&#45;&gt;structures -->
<g id="edge7" class="edge"><title>PrivacyMetadata&#45;&gt;structures</title>
<path fill="none" stroke="black" d="M649.53,-215.604C651.425,-184.45 651.549,-118.088 624,-72 616.113,-58.8052 603.563,-47.8354 591.194,-39.3642"/>
<polygon fill="black" stroke="black" points="593.02,-36.3773 582.719,-33.902 589.228,-42.2613 593.02,-36.3773"/>
</g>
<!-- niem_core&#45;&gt;niem_xs -->
<g id="edge9" class="edge"><title>niem_core&#45;&gt;niem_xs</title>
<path fill="none" stroke="black" d="M439.401,-144.394C412.261,-118.802 363.17,-72.5822 362,-72 284.786,-33.5636 184.642,-22.4473 120.097,-19.5291"/>
<polygon fill="black" stroke="black" points="120.185,-16.0298 110.053,-19.1282 119.905,-23.0243 120.185,-16.0298"/>
</g>
<!-- niem_core&#45;&gt;structures -->
<g id="edge10" class="edge"><title>niem_core&#45;&gt;structures</title>
<path fill="none" stroke="black" d="M496.586,-148.065C515.48,-139.734 536.441,-126.862 548,-108 559.273,-89.6038 559.75,-64.8491 557.848,-46.1173"/>
<polygon fill="black" stroke="black" points="561.311,-45.6123 556.557,-36.1439 554.369,-46.5103 561.311,-45.6123"/>
</g>
<!-- jxdm&#45;&gt;niem_core -->
<g id="edge12" class="edge"><title>jxdm&#45;&gt;niem_core</title>
<path fill="none" stroke="black" d="M210.218,-177.834C221.896,-185.557 237.024,-194.023 252,-198 305.265,-212.145 322.089,-209.441 376,-198 390.778,-194.864 406.134,-188.839 419.451,-182.602"/>
<polygon fill="black" stroke="black" points="421.3,-185.594 428.75,-178.061 418.228,-179.304 421.3,-185.594"/>
</g>
<!-- jxdm&#45;&gt;niem_xs -->
<g id="edge13" class="edge"><title>jxdm&#45;&gt;niem_xs</title>
<path fill="none" stroke="black" d="M152.338,-151.949C128.185,-144.156 97.6796,-130.513 79,-108 64.6678,-90.7263 58.8361,-65.6659 56.4925,-46.5358"/>
<polygon fill="black" stroke="black" points="59.9518,-45.9467 55.4975,-36.3337 52.9848,-46.6263 59.9518,-45.9467"/>
</g>
<!-- jxdm&#45;&gt;structures -->
<g id="edge14" class="edge"><title>jxdm&#45;&gt;structures</title>
<path fill="none" stroke="black" d="M158.536,-148.692C141.52,-140.05 121.817,-126.674 112,-108 104.555,-93.8376 101.383,-83.9697 112,-72 136.177,-44.7432 365.007,-28.8454 483.143,-22.3903"/>
<polygon fill="black" stroke="black" points="483.385,-25.8824 493.183,-21.8499 483.009,-18.8926 483.385,-25.8824"/>
</g>
<!-- aamva_d20 -->
<g id="node10" class="node"><title>aamva_d20</title>
<ellipse fill="none" stroke="black" cx="189" cy="-90" rx="67.3907" ry="18"/>
<text text-anchor="middle" x="189" y="-86.3" font-family="Times,serif" font-size="14.00">aamva_d20.xsd</text>
</g>
<!-- jxdm&#45;&gt;aamva_d20 -->
<g id="edge11" class="edge"><title>jxdm&#45;&gt;aamva_d20</title>
<path fill="none" stroke="black" d="M189,-143.697C189,-135.983 189,-126.712 189,-118.112"/>
<polygon fill="black" stroke="black" points="192.5,-118.104 189,-108.104 185.5,-118.104 192.5,-118.104"/>
</g>
<!-- geospatial&#45;&gt;niem_core -->
<g id="edge16" class="edge"><title>geospatial&#45;&gt;niem_core</title>
<path fill="none" stroke="black" d="M376.283,-162C379.045,-162 381.808,-162 384.57,-162"/>
<polygon fill="black" stroke="black" points="384.571,-165.5 394.571,-162 384.571,-158.5 384.571,-165.5"/>
</g>
<!-- geospatial&#45;&gt;structures -->
<g id="edge17" class="edge"><title>geospatial&#45;&gt;structures</title>
<path fill="none" stroke="black" d="M360.333,-149.87C417.816,-135.902 509.043,-113.146 515,-108 533.32,-92.1724 543.056,-65.9635 548.067,-46.0755"/>
<polygon fill="black" stroke="black" points="551.539,-46.5879 550.333,-36.062 544.712,-45.0427 551.539,-46.5879"/>
</g>
<!-- gml -->
<g id="node8" class="node"><title>gml</title>
<ellipse fill="none" stroke="black" cx="314" cy="-90" rx="39.4691" ry="18"/>
<text text-anchor="middle" x="314" y="-86.3" font-family="Times,serif" font-size="14.00">gml.xsd</text>
</g>
<!-- geospatial&#45;&gt;gml -->
<g id="edge18" class="edge"><title>geospatial&#45;&gt;gml</title>
<path fill="none" stroke="black" d="M314,-143.697C314,-135.983 314,-126.712 314,-118.112"/>
<polygon fill="black" stroke="black" points="317.5,-118.104 314,-108.104 310.5,-118.104 317.5,-118.104"/>
</g>
<!-- niem_xs&#45;&gt;structures -->
<g id="edge19" class="edge"><title>niem_xs&#45;&gt;structures</title>
<path fill="none" stroke="black" d="M110.441,-18C234.154,-18 357.866,-18 481.579,-18"/>
<polygon fill="black" stroke="black" points="481.63,-21.5001 491.63,-18 481.63,-14.5001 481.63,-21.5001"/>
</g>
<!-- xlinks -->
<g id="node9" class="node"><title>xlinks</title>
<ellipse fill="none" stroke="black" cx="458" cy="-90" rx="48.1437" ry="18"/>
<text text-anchor="middle" x="458" y="-86.3" font-family="Times,serif" font-size="14.00">xlinks.xsd</text>
</g>
<!-- gml&#45;&gt;xlinks -->
<g id="edge8" class="edge"><title>gml&#45;&gt;xlinks</title>
<path fill="none" stroke="black" d="M353.375,-90C368.797,-90 384.218,-90 399.64,-90"/>
<polygon fill="black" stroke="black" points="399.774,-93.5001 409.774,-90 399.774,-86.5001 399.774,-93.5001"/>
</g>
<!-- aamva_d20&#45;&gt;structures -->
<g id="edge15" class="edge"><title>aamva_d20&#45;&gt;structures</title>
<path fill="none" stroke="black" d="M238.409,-77.6618C247.251,-75.7145 256.389,-73.7548 265,-72 342.893,-56.1271 433.076,-39.8718 491.476,-29.6229"/>
<polygon fill="black" stroke="black" points="492.396,-33.0152 501.642,-27.8432 491.189,-26.1201 492.396,-33.0152"/>
</g>
</g>
</svg>
