<?xml version="1.0" encoding="UTF-8" standalone="no"?>
<!DOCTYPE svg PUBLIC "-//W3C//DTD SVG 1.1//EN"
 "http://www.w3.org/Graphics/SVG/1.1/DTD/svg11.dtd">
<!-- Generated by graphviz version 2.36.0 (20140111.2315)
 -->
<!-- Title: schemas Pages: 1 -->
<svg width="1010pt" height="671pt"
 viewBox="0.00 0.00 1009.63 670.90" xmlns="http://www.w3.org/2000/svg" xmlns:xlink="http://www.w3.org/1999/xlink">
<g id="graph0" class="graph" transform="scale(1 1) rotate(0) translate(4 666.904)">
<title>schemas</title>
<polygon fill="white" stroke="none" points="-4,4 -4,-666.904 1005.63,-666.904 1005.63,4 -4,4"/>
<!-- CrashDriver -->
<g id="node1" class="node"><title>CrashDriver</title>
<ellipse fill="none" stroke="black" cx="590.341" cy="-553.096" rx="70.6878" ry="18"/>
<text text-anchor="middle" x="590.341" y="-549.396" font-family="Times,serif" font-size="14.00">CrashDriver.xsd</text>
</g>
<!-- PrivacyMetadata -->
<g id="node2" class="node"><title>PrivacyMetadata</title>
<ellipse fill="none" stroke="black" cx="590.341" cy="-109.808" rx="87.1846" ry="18"/>
<text text-anchor="middle" x="590.341" y="-106.108" font-family="Times,serif" font-size="14.00">PrivacyMetadata.xsd</text>
</g>
<!-- CrashDriver&#45;&gt;PrivacyMetadata -->
<g id="edge1" class="edge"><title>CrashDriver&#45;&gt;PrivacyMetadata</title>
<path fill="none" stroke="black" d="M590.341,-534.892C590.341,-466.061 590.341,-221.389 590.341,-137.935"/>
<polygon fill="black" stroke="black" points="593.841,-137.919 590.341,-127.919 586.841,-137.919 593.841,-137.919"/>
</g>
<!-- niem_core -->
<g id="node3" class="node"><title>niem_core</title>
<ellipse fill="none" stroke="black" cx="147.053" cy="-553.096" rx="62.2891" ry="18"/>
<text text-anchor="middle" x="147.053" y="-549.396" font-family="Times,serif" font-size="14.00">niem&#45;core.xsd</text>
</g>
<!-- CrashDriver&#45;&gt;niem_core -->
<g id="edge2" class="edge"><title>CrashDriver&#45;&gt;niem_core</title>
<path fill="none" stroke="black" d="M519.119,-553.096C436.89,-553.096 302.359,-553.096 219.581,-553.096"/>
<polygon fill="black" stroke="black" points="219.501,-549.596 209.501,-553.096 219.501,-556.596 219.501,-549.596"/>
</g>
<!-- jxdm -->
<g id="node4" class="node"><title>jxdm</title>
<ellipse fill="none" stroke="black" cx="368.697" cy="-644.904" rx="44.393" ry="18"/>
<text text-anchor="middle" x="368.697" y="-641.204" font-family="Times,serif" font-size="14.00">jxdm.xsd</text>
</g>
<!-- CrashDriver&#45;&gt;jxdm -->
<g id="edge3" class="edge"><title>CrashDriver&#45;&gt;jxdm</title>
<path fill="none" stroke="black" d="M553.243,-568.462C513.426,-584.955 450.371,-611.073 409.263,-628.101"/>
<polygon fill="black" stroke="black" points="407.722,-624.951 399.823,-632.011 410.401,-631.418 407.722,-624.951"/>
</g>
<!-- geospatial -->
<g id="node5" class="node"><title>geospatial</title>
<ellipse fill="none" stroke="black" cx="682.149" cy="-331.452" rx="62.2891" ry="18"/>
<text text-anchor="middle" x="682.149" y="-327.752" font-family="Times,serif" font-size="14.00">geospatial.xsd</text>
</g>
<!-- CrashDriver&#45;&gt;geospatial -->
<g id="edge4" class="edge"><title>CrashDriver&#45;&gt;geospatial</title>
<path fill="none" stroke="black" d="M597.854,-534.958C613.933,-496.14 651.758,-404.821 670.791,-358.873"/>
<polygon fill="black" stroke="black" points="674.067,-360.108 674.661,-349.53 667.6,-357.429 674.067,-360.108"/>
</g>
<!-- niem_xs -->
<g id="node6" class="node"><title>niem_xs</title>
<ellipse fill="none" stroke="black" cx="55.2451" cy="-331.452" rx="55.4913" ry="18"/>
<text text-anchor="middle" x="55.2451" y="-327.752" font-family="Times,serif" font-size="14.00">niem&#45;xs.xsd</text>
</g>
<!-- CrashDriver&#45;&gt;niem_xs -->
<g id="edge5" class="edge"><title>CrashDriver&#45;&gt;niem_xs</title>
<path fill="none" stroke="black" d="M553.139,-537.686C457.166,-497.933 201.563,-392.059 98.8629,-349.519"/>
<polygon fill="black" stroke="black" points="99.9902,-346.198 89.412,-345.604 97.3114,-352.665 99.9902,-346.198"/>
</g>
<!-- structures -->
<g id="node7" class="node"><title>structures</title>
<ellipse fill="none" stroke="black" cx="147.053" cy="-109.808" rx="61.1893" ry="18"/>
<text text-anchor="middle" x="147.053" y="-106.108" font-family="Times,serif" font-size="14.00">structures.xsd</text>
</g>
<!-- CrashDriver&#45;&gt;structures -->
<g id="edge6" class="edge"><title>CrashDriver&#45;&gt;structures</title>
<path fill="none" stroke="black" d="M572.69,-535.445C503.74,-466.495 252.424,-215.179 171.993,-134.748"/>
<polygon fill="black" stroke="black" points="174.3,-132.106 164.754,-127.509 169.351,-137.055 174.3,-132.106"/>
</g>
<!-- PrivacyMetadata&#45;&gt;structures -->
<g id="edge7" class="edge"><title>PrivacyMetadata&#45;&gt;structures</title>
<path fill="none" stroke="black" d="M503.026,-109.808C419.745,-109.808 295.84,-109.808 218.339,-109.808"/>
<polygon fill="black" stroke="black" points="218.188,-106.308 208.188,-109.808 218.188,-113.308 218.188,-106.308"/>
</g>
<!-- niem_core&#45;&gt;niem_xs -->
<g id="edge9" class="edge"><title>niem_core&#45;&gt;niem_xs</title>
<path fill="none" stroke="black" d="M139.54,-534.958C123.461,-496.14 85.6355,-404.821 66.6031,-358.873"/>
<polygon fill="black" stroke="black" points="69.7937,-357.429 62.7332,-349.53 63.3265,-360.108 69.7937,-357.429"/>
</g>
<!-- niem_core&#45;&gt;structures -->
<g id="edge10" class="edge"><title>niem_core&#45;&gt;structures</title>
<path fill="none" stroke="black" d="M147.053,-534.892C147.053,-466.061 147.053,-221.389 147.053,-137.935"/>
<polygon fill="black" stroke="black" points="150.553,-137.919 147.053,-127.919 143.553,-137.919 150.553,-137.919"/>
</g>
<!-- jxdm&#45;&gt;niem_core -->
<g id="edge12" class="edge"><title>jxdm&#45;&gt;niem_core</title>
<path fill="none" stroke="black" d="M337.411,-631.945C299.581,-616.275 235.617,-589.78 192.386,-571.873"/>
<polygon fill="black" stroke="black" points="193.532,-568.56 182.954,-567.966 190.853,-575.027 193.532,-568.56"/>
</g>
<!-- jxdm&#45;&gt;niem_xs -->
<g id="edge13" class="edge"><title>jxdm&#45;&gt;niem_xs</title>
<path fill="none" stroke="black" d="M351.844,-628.051C299.773,-575.98 141.275,-417.481 79.8922,-356.099"/>
<polygon fill="black" stroke="black" points="82.1112,-353.368 72.5652,-348.772 77.1614,-358.318 82.1112,-353.368"/>
</g>
<!-- jxdm&#45;&gt;structures -->
<g id="edge14" class="edge"><title>jxdm&#45;&gt;structures</title>
<path fill="none" stroke="black" d="M361.323,-627.1C328.782,-548.54 197.907,-232.581 158.401,-137.204"/>
<polygon fill="black" stroke="black" points="161.516,-135.578 154.455,-127.678 155.049,-138.257 161.516,-135.578"/>
</g>
<!-- aamva_d20 -->
<g id="node10" class="node"><title>aamva_d20</title>
<ellipse fill="none" stroke="black" cx="368.697" cy="-18" rx="67.6881" ry="18"/>
<text text-anchor="middle" x="368.697" y="-14.3" font-family="Times,serif" font-size="14.00">aamva_d20.xsd</text>
</g>
<!-- jxdm&#45;&gt;aamva_d20 -->
<g id="edge11" class="edge"><title>jxdm&#45;&gt;aamva_d20</title>
<path fill="none" stroke="black" d="M368.697,-626.818C368.697,-538.701 368.697,-154.23 368.697,-46.2798"/>
<polygon fill="black" stroke="black" points="372.197,-46.1593 368.697,-36.1593 365.197,-46.1593 372.197,-46.1593"/>
</g>
<!-- geospatial&#45;&gt;niem_core -->
<g id="edge16" class="edge"><title>geospatial&#45;&gt;niem_core</title>
<path fill="none" stroke="black" d="M646.209,-346.339C551.68,-385.494 296.239,-491.301 192.135,-534.422"/>
<polygon fill="black" stroke="black" points="190.736,-531.213 182.837,-538.274 193.415,-537.68 190.736,-531.213"/>
</g>
<!-- geospatial&#45;&gt;structures -->
<g id="edge17" class="edge"><title>geospatial&#45;&gt;structures</title>
<path fill="none" stroke="black" d="M646.209,-316.565C551.566,-277.363 295.625,-171.348 191.76,-128.326"/>
<polygon fill="black" stroke="black" points="193.065,-125.078 182.487,-124.485 190.386,-131.545 193.065,-125.078"/>
</g>
<!-- gml -->
<g id="node8" class="node"><title>gml</title>
<ellipse fill="none" stroke="black" cx="793.795" cy="-331.452" rx="39.7935" ry="18"/>
<text text-anchor="middle" x="793.795" y="-327.752" font-family="Times,serif" font-size="14.00">gml.xsd</text>
</g>
<!-- geospatial&#45;&gt;gml -->
<g id="edge18" class="edge"><title>geospatial&#45;&gt;gml</title>
<path fill="none" stroke="black" d="M744.826,-331.452C744.922,-331.452 745.018,-331.452 745.114,-331.452"/>
<polygon fill="black" stroke="black" points="743.948,-334.952 753.948,-331.452 743.948,-327.952 743.948,-334.952"/>
</g>
<!-- niem_xs&#45;&gt;structures -->
<g id="edge19" class="edge"><title>niem_xs&#45;&gt;structures</title>
<path fill="none" stroke="black" d="M62.7581,-313.314C78.8368,-274.496 116.663,-183.177 135.695,-137.229"/>
<polygon fill="black" stroke="black" points="138.972,-138.464 139.565,-127.886 132.504,-135.785 138.972,-138.464"/>
</g>
<!-- xlinks -->
<g id="node9" class="node"><title>xlinks</title>
<ellipse fill="none" stroke="black" cx="953.538" cy="-331.452" rx="48.1917" ry="18"/>
<text text-anchor="middle" x="953.538" y="-327.752" font-family="Times,serif" font-size="14.00">xlinks.xsd</text>
</g>
<!-- gml&#45;&gt;xlinks -->
<g id="edge8" class="edge"><title>gml&#45;&gt;xlinks</title>
<path fill="none" stroke="black" d="M833.693,-331.452C852.271,-331.452 874.736,-331.452 895.172,-331.452"/>
<polygon fill="black" stroke="black" points="895.328,-334.952 905.328,-331.452 895.328,-327.952 895.328,-334.952"/>
</g>
<!-- aamva_d20&#45;&gt;structures -->
<g id="edge15" class="edge"><title>aamva_d20&#45;&gt;structures</title>
<path fill="none" stroke="black" d="M332.097,-33.1602C293.655,-49.0832 233.163,-74.1401 191.883,-91.2386"/>
<polygon fill="black" stroke="black" points="190.506,-88.0208 182.606,-95.0813 193.185,-94.488 190.506,-88.0208"/>
</g>
</g>
</svg>
