<?xml version="1.0" encoding="UTF-8" standalone="no"?>
<!DOCTYPE svg PUBLIC "-//W3C//DTD SVG 1.1//EN"
 "http://www.w3.org/Graphics/SVG/1.1/DTD/svg11.dtd">
<!-- Generated by graphviz version 2.36.0 (20140111.2315)
 -->
<!-- Title: schemas Pages: 1 -->
<svg width="810pt" height="412pt"
 viewBox="0.00 0.00 810.00 412.00" xmlns="http://www.w3.org/2000/svg" xmlns:xlink="http://www.w3.org/1999/xlink">
<g id="graph0" class="graph" transform="scale(1 1) rotate(0) translate(4 408)">
<title>schemas</title>
<polygon fill="white" stroke="none" points="-4,4 -4,-408 806,-408 806,4 -4,4"/>
<g id="clust1" class="cluster"><title>cluster0</title>
<polygon fill="none" stroke="black" points="604,-246 604,-396 794,-396 794,-246 604,-246"/>
<text text-anchor="middle" x="699" y="-380.8" font-family="Times,serif" font-size="14.00">Extensions</text>
</g>
<g id="clust2" class="cluster"><title>cluster1</title>
<polygon fill="none" stroke="black" points="8,-80 8,-321 148,-321 148,-80 8,-80"/>
<text text-anchor="middle" x="78" y="-305.8" font-family="Times,serif" font-size="14.00">Geospatial</text>
</g>
<g id="clust3" class="cluster"><title>cluster2</title>
<polygon fill="none" stroke="black" points="248,-8 248,-155 386,-155 386,-8 248,-8"/>
<text text-anchor="middle" x="317" y="-139.8" font-family="Times,serif" font-size="14.00">Support</text>
</g>
<g id="clust5" class="cluster"><title>cluster4</title>
<polygon fill="none" stroke="black" points="158,-163 158,-238 298,-238 298,-163 158,-163"/>
<text text-anchor="middle" x="228" y="-222.8" font-family="Times,serif" font-size="14.00">NIEM Core</text>
</g>
<g id="clust4" class="cluster"><title>cluster3</title>
<polygon fill="none" stroke="black" points="414,-163 414,-321 566,-321 566,-163 414,-163"/>
<text text-anchor="middle" x="490" y="-305.8" font-family="Times,serif" font-size="14.00">Justice</text>
</g>
<!-- CrashDriver -->
<g id="node1" class="node"><title>CrashDriver</title>
<ellipse fill="none" stroke="black" cx="683" cy="-347" rx="70.2668" ry="18"/>
<text text-anchor="middle" x="683" y="-343.3" font-family="Times,serif" font-size="14.00">CrashDriver.xsd</text>
</g>
<!-- PrivacyMetadata -->
<g id="node2" class="node"><title>PrivacyMetadata</title>
<ellipse fill="none" stroke="black" cx="699" cy="-272" rx="87.1385" ry="18"/>
<text text-anchor="middle" x="699" y="-268.3" font-family="Times,serif" font-size="14.00">PrivacyMetadata.xsd</text>
</g>
<!-- CrashDriver&#45;&gt;PrivacyMetadata -->
<g id="edge1" class="edge"><title>CrashDriver&#45;&gt;PrivacyMetadata</title>
<path fill="none" stroke="black" d="M686.792,-328.7C688.665,-320.154 690.968,-309.645 693.067,-300.067"/>
<polygon fill="black" stroke="black" points="696.513,-300.693 695.235,-290.176 689.676,-299.195 696.513,-300.693"/>
</g>
<!-- niem_core -->
<g id="node3" class="node"><title>niem_core</title>
<ellipse fill="none" stroke="black" cx="228" cy="-189" rx="62.0922" ry="18"/>
<text text-anchor="middle" x="228" y="-185.3" font-family="Times,serif" font-size="14.00">niem&#45;core.xsd</text>
</g>
<!-- CrashDriver&#45;&gt;niem_core -->
<g id="edge2" class="edge"><title>CrashDriver&#45;&gt;niem_core</title>
<path fill="none" stroke="black" d="M612.694,-344.907C510.297,-342.783 329.492,-336.822 304,-321 266.266,-297.58 245.241,-248.037 235.302,-217.038"/>
<polygon fill="black" stroke="black" points="238.6,-215.854 232.348,-207.301 231.902,-217.886 238.6,-215.854"/>
</g>
<!-- jxdm -->
<g id="node4" class="node"><title>jxdm</title>
<ellipse fill="none" stroke="black" cx="466" cy="-272" rx="44.2946" ry="18"/>
<text text-anchor="middle" x="466" y="-268.3" font-family="Times,serif" font-size="14.00">jxdm.xsd</text>
</g>
<!-- CrashDriver&#45;&gt;jxdm -->
<g id="edge3" class="edge"><title>CrashDriver&#45;&gt;jxdm</title>
<path fill="none" stroke="black" d="M626.886,-336.068C608.526,-332.163 588.183,-327.128 570,-321 546.249,-312.995 520.675,-301.237 500.831,-291.363"/>
<polygon fill="black" stroke="black" points="502.369,-288.218 491.864,-286.835 499.213,-294.466 502.369,-288.218"/>
</g>
<!-- geospatial -->
<g id="node5" class="node"><title>geospatial</title>
<ellipse fill="none" stroke="black" cx="78" cy="-272" rx="62.0922" ry="18"/>
<text text-anchor="middle" x="78" y="-268.3" font-family="Times,serif" font-size="14.00">geospatial.xsd</text>
</g>
<!-- CrashDriver&#45;&gt;geospatial -->
<g id="edge4" class="edge"><title>CrashDriver&#45;&gt;geospatial</title>
<path fill="none" stroke="black" d="M613.288,-344.035C507.052,-340.705 309.631,-333.112 240,-321 200.191,-314.076 156.318,-300.705 124.281,-289.831"/>
<polygon fill="black" stroke="black" points="125.331,-286.491 114.736,-286.546 123.053,-293.11 125.331,-286.491"/>
</g>
<!-- niem_xs -->
<g id="node6" class="node"><title>niem_xs</title>
<ellipse fill="none" stroke="black" cx="311" cy="-106" rx="55.3682" ry="18"/>
<text text-anchor="middle" x="311" y="-102.3" font-family="Times,serif" font-size="14.00">niem&#45;xs.xsd</text>
</g>
<!-- CrashDriver&#45;&gt;niem_xs -->
<g id="edge5" class="edge"><title>CrashDriver&#45;&gt;niem_xs</title>
<path fill="none" stroke="black" d="M612.641,-345.221C543.802,-343.455 444.433,-337.936 410,-321 364.847,-298.792 355.21,-283.151 333,-238 316.645,-204.751 312.153,-161.636 311.076,-134.135"/>
<polygon fill="black" stroke="black" points="314.573,-133.972 310.808,-124.069 307.576,-134.159 314.573,-133.972"/>
</g>
<!-- structures -->
<g id="node7" class="node"><title>structures</title>
<ellipse fill="none" stroke="black" cx="317" cy="-34" rx="61.1419" ry="18"/>
<text text-anchor="middle" x="317" y="-30.3" font-family="Times,serif" font-size="14.00">structures.xsd</text>
</g>
<!-- CrashDriver&#45;&gt;structures -->
<g id="edge6" class="edge"><title>CrashDriver&#45;&gt;structures</title>
<path fill="none" stroke="black" d="M625.655,-336.373C617.134,-332.75 609.16,-327.789 603,-321 554.792,-267.875 609.305,-223.012 570,-163 535.069,-109.665 509.892,-108.776 453,-80 427.432,-67.0679 397.334,-56.6618 371.96,-49.1273"/>
<polygon fill="black" stroke="black" points="372.706,-45.6995 362.127,-46.2794 370.759,-52.4232 372.706,-45.6995"/>
</g>
<!-- PrivacyMetadata&#45;&gt;structures -->
<g id="edge7" class="edge"><title>PrivacyMetadata&#45;&gt;structures</title>
<path fill="none" stroke="black" d="M695.556,-253.855C686.925,-215.702 660.572,-123.715 600,-80 566.769,-56.0173 459.101,-44.2656 386.568,-38.935"/>
<polygon fill="black" stroke="black" points="386.801,-35.4428 376.578,-38.2249 386.305,-42.4252 386.801,-35.4428"/>
</g>
<!-- niem_core&#45;&gt;niem_xs -->
<g id="edge9" class="edge"><title>niem_core&#45;&gt;niem_xs</title>
<path fill="none" stroke="black" d="M244.796,-171.608C256.834,-159.861 273.231,-143.858 286.695,-130.719"/>
<polygon fill="black" stroke="black" points="289.516,-132.856 294.229,-123.367 284.627,-127.847 289.516,-132.856"/>
</g>
<!-- niem_core&#45;&gt;structures -->
<g id="edge10" class="edge"><title>niem_core&#45;&gt;structures</title>
<path fill="none" stroke="black" d="M226.962,-170.738C226.448,-148.025 228.553,-107.743 247,-80 253.937,-69.5673 264.207,-61.039 274.755,-54.322"/>
<polygon fill="black" stroke="black" points="276.774,-57.1947 283.614,-49.1037 273.222,-51.1632 276.774,-57.1947"/>
</g>
<!-- jxdm&#45;&gt;niem_core -->
<g id="edge12" class="edge"><title>jxdm&#45;&gt;niem_core</title>
<path fill="none" stroke="black" d="M428.429,-262.437C403.629,-256.435 370.563,-247.762 342,-238 317.218,-229.531 290.177,-218.238 268.652,-208.733"/>
<polygon fill="black" stroke="black" points="270.043,-205.521 259.484,-204.646 267.193,-211.915 270.043,-205.521"/>
</g>
<!-- jxdm&#45;&gt;niem_xs -->
<g id="edge13" class="edge"><title>jxdm&#45;&gt;niem_xs</title>
<path fill="none" stroke="black" d="M427.692,-262.712C411.527,-257.697 393.392,-249.894 380,-238 363.119,-223.008 336.917,-166.911 322.134,-133.178"/>
<polygon fill="black" stroke="black" points="325.301,-131.684 318.11,-123.903 318.879,-134.47 325.301,-131.684"/>
</g>
<!-- jxdm&#45;&gt;structures -->
<g id="edge14" class="edge"><title>jxdm&#45;&gt;structures</title>
<path fill="none" stroke="black" d="M436.904,-258.331C428.063,-253.189 419.088,-246.439 413,-238 370.744,-179.427 414.186,-140.67 375,-80 369.131,-70.9135 360.778,-62.9056 352.234,-56.2601"/>
<polygon fill="black" stroke="black" points="354.204,-53.3653 344.058,-50.3152 350.088,-59.0269 354.204,-53.3653"/>
</g>
<!-- aamva_d20 -->
<g id="node10" class="node"><title>aamva_d20</title>
<ellipse fill="none" stroke="black" cx="490" cy="-189" rx="67.3907" ry="18"/>
<text text-anchor="middle" x="490" y="-185.3" font-family="Times,serif" font-size="14.00">aamva_d20.xsd</text>
</g>
<!-- jxdm&#45;&gt;aamva_d20 -->
<g id="edge11" class="edge"><title>jxdm&#45;&gt;aamva_d20</title>
<path fill="none" stroke="black" d="M471.09,-253.822C474.272,-243.083 478.437,-229.025 482.048,-216.837"/>
<polygon fill="black" stroke="black" points="485.432,-217.736 484.918,-207.153 478.721,-215.747 485.432,-217.736"/>
</g>
<!-- geospatial&#45;&gt;niem_core -->
<g id="edge16" class="edge"><title>geospatial&#45;&gt;niem_core</title>
<path fill="none" stroke="black" d="M112.385,-256.892C125.032,-251.384 139.35,-244.77 152,-238 167.011,-229.966 183.031,-220.062 196.474,-211.341"/>
<polygon fill="black" stroke="black" points="198.459,-214.225 204.899,-205.812 194.618,-208.372 198.459,-214.225"/>
</g>
<!-- geospatial&#45;&gt;structures -->
<g id="edge17" class="edge"><title>geospatial&#45;&gt;structures</title>
<path fill="none" stroke="black" d="M98.8818,-254.742C104.525,-249.747 110.35,-243.979 115,-238 138.065,-208.342 133.095,-194.217 154,-163 180.851,-122.904 185.89,-109.603 224,-80 237.959,-69.1568 254.953,-59.9934 270.576,-52.8233"/>
<polygon fill="black" stroke="black" points="272.355,-55.8635 280.087,-48.6194 269.525,-49.461 272.355,-55.8635"/>
</g>
<!-- gml -->
<g id="node8" class="node"><title>gml</title>
<ellipse fill="none" stroke="black" cx="67" cy="-189" rx="39.4691" ry="18"/>
<text text-anchor="middle" x="67" y="-185.3" font-family="Times,serif" font-size="14.00">gml.xsd</text>
</g>
<!-- geospatial&#45;&gt;gml -->
<g id="edge18" class="edge"><title>geospatial&#45;&gt;gml</title>
<path fill="none" stroke="black" d="M75.6672,-253.822C74.2234,-243.19 72.3379,-229.306 70.6943,-217.204"/>
<polygon fill="black" stroke="black" points="74.1434,-216.591 69.3295,-207.153 67.207,-217.533 74.1434,-216.591"/>
</g>
<!-- niem_xs&#45;&gt;structures -->
<g id="edge19" class="edge"><title>niem_xs&#45;&gt;structures</title>
<path fill="none" stroke="black" d="M312.483,-87.6966C313.144,-79.9827 313.939,-70.7125 314.676,-62.1124"/>
<polygon fill="black" stroke="black" points="318.167,-62.3667 315.534,-52.1043 311.193,-61.7689 318.167,-62.3667"/>
</g>
<!-- xlinks -->
<g id="node9" class="node"><title>xlinks</title>
<ellipse fill="none" stroke="black" cx="64" cy="-106" rx="48.1437" ry="18"/>
<text text-anchor="middle" x="64" y="-102.3" font-family="Times,serif" font-size="14.00">xlinks.xsd</text>
</g>
<!-- gml&#45;&gt;xlinks -->
<g id="edge8" class="edge"><title>gml&#45;&gt;xlinks</title>
<path fill="none" stroke="black" d="M66.3638,-170.822C65.97,-160.19 65.4558,-146.306 65.0075,-134.204"/>
<polygon fill="black" stroke="black" points="68.5031,-134.017 64.6353,-124.153 61.5079,-134.276 68.5031,-134.017"/>
</g>
<!-- aamva_d20&#45;&gt;structures -->
<g id="edge15" class="edge"><title>aamva_d20&#45;&gt;structures</title>
<path fill="none" stroke="black" d="M480.572,-171.074C467.029,-148.005 440.129,-106.534 408,-80 394.721,-69.0329 378.32,-59.8816 363.116,-52.7579"/>
<polygon fill="black" stroke="black" points="364.398,-49.4969 353.842,-48.5863 361.526,-55.8807 364.398,-49.4969"/>
</g>
</g>
</svg>
