<svg id="mermaid-1627503616740" width="100%" xmlns="http://www.w3.org/2000/svg" xmlns:xlink="http://www.w3.org/1999/xlink" height="645.625" style="max-width: 1713.30859375px;" viewBox="-20 -20 1713.30859375 645.625"><style>#mermaid-1627503616740{font-family:"trebuchet ms",verdana,arial,sans-serif;font-size:16px;fill:#000000;}#mermaid-1627503616740 .error-icon{fill:#552222;}#mermaid-1627503616740 .error-text{fill:#552222;stroke:#552222;}#mermaid-1627503616740 .edge-thickness-normal{stroke-width:2px;}#mermaid-1627503616740 .edge-thickness-thick{stroke-width:3.5px;}#mermaid-1627503616740 .edge-pattern-solid{stroke-dasharray:0;}#mermaid-1627503616740 .edge-pattern-dashed{stroke-dasharray:3;}#mermaid-1627503616740 .edge-pattern-dotted{stroke-dasharray:2;}#mermaid-1627503616740 .marker{fill:#666;stroke:#666;}#mermaid-1627503616740 .marker.cross{stroke:#666;}#mermaid-1627503616740 svg{font-family:"trebuchet ms",verdana,arial,sans-serif;font-size:16px;}#mermaid-1627503616740 g.classGroup text{fill:#999;fill:#111111;stroke:none;font-family:"trebuchet ms",verdana,arial,sans-serif;font-size:10px;}#mermaid-1627503616740 g.classGroup text .title{font-weight:bolder;}#mermaid-1627503616740 .classTitle{font-weight:bolder;}#mermaid-1627503616740 .node rect,#mermaid-1627503616740 .node circle,#mermaid-1627503616740 .node ellipse,#mermaid-1627503616740 .node polygon,#mermaid-1627503616740 .node path{fill:#eee;stroke:#999;stroke-width:1px;}#mermaid-1627503616740 .divider{stroke:#999;stroke:1;}#mermaid-1627503616740 g.clickable{cursor:pointer;}#mermaid-1627503616740 g.classGroup rect{fill:#eee;stroke:#999;}#mermaid-1627503616740 g.classGroup line{stroke:#999;stroke-width:1;}#mermaid-1627503616740 .classLabel .box{stroke:none;stroke-width:0;fill:#eee;opacity:0.5;}#mermaid-1627503616740 .classLabel .label{fill:#999;font-size:10px;}#mermaid-1627503616740 .relation{stroke:#666;stroke-width:1;fill:none;}#mermaid-1627503616740 .dashed-line{stroke-dasharray:3;}#mermaid-1627503616740 #compositionStart,#mermaid-1627503616740 .composition{fill:#666 !important;stroke:#666 !important;stroke-width:1;}#mermaid-1627503616740 #compositionEnd,#mermaid-1627503616740 .composition{fill:#666 !important;stroke:#666 !important;stroke-width:1;}#mermaid-1627503616740 #dependencyStart,#mermaid-1627503616740 .dependency{fill:#666 !important;stroke:#666 !important;stroke-width:1;}#mermaid-1627503616740 #dependencyStart,#mermaid-1627503616740 .dependency{fill:#666 !important;stroke:#666 !important;stroke-width:1;}#mermaid-1627503616740 #extensionStart,#mermaid-1627503616740 .extension{fill:#666 !important;stroke:#666 !important;stroke-width:1;}#mermaid-1627503616740 #extensionEnd,#mermaid-1627503616740 .extension{fill:#666 !important;stroke:#666 !important;stroke-width:1;}#mermaid-1627503616740 #aggregationStart,#mermaid-1627503616740 .aggregation{fill:#eee !important;stroke:#666 !important;stroke-width:1;}#mermaid-1627503616740 #aggregationEnd,#mermaid-1627503616740 .aggregation{fill:#eee !important;stroke:#666 !important;stroke-width:1;}#mermaid-1627503616740 .edgeTerminals{font-size:11px;}#mermaid-1627503616740:root{--mermaid-font-family:"trebuchet ms",verdana,arial,sans-serif;}</style><g></g><defs><marker id="extensionStart" class="extension" refX="0" refY="7" markerWidth="190" markerHeight="240" orient="auto"><path d="M 1,7 L18,13 V 1 Z"></path></marker></defs><defs><marker id="extensionEnd" refX="19" refY="7" markerWidth="20" markerHeight="28" orient="auto"><path d="M 1,1 V 13 L18,7 Z"></path></marker></defs><defs><marker id="compositionStart" class="extension" refX="0" refY="7" markerWidth="190" markerHeight="240" orient="auto"><path d="M 18,7 L9,13 L1,7 L9,1 Z"></path></marker></defs><defs><marker id="compositionEnd" refX="19" refY="7" markerWidth="20" markerHeight="28" orient="auto"><path d="M 18,7 L9,13 L1,7 L9,1 Z"></path></marker></defs><defs><marker id="aggregationStart" class="extension" refX="0" refY="7" markerWidth="190" markerHeight="240" orient="auto"><path d="M 18,7 L9,13 L1,7 L9,1 Z"></path></marker></defs><defs><marker id="aggregationEnd" refX="19" refY="7" markerWidth="20" markerHeight="28" orient="auto"><path d="M 18,7 L9,13 L1,7 L9,1 Z"></path></marker></defs><defs><marker id="dependencyStart" class="extension" refX="0" refY="7" markerWidth="190" markerHeight="240" orient="auto"><path d="M 5,7 L9,13 L1,7 L9,1 Z"></path></marker></defs><defs><marker id="dependencyEnd" refX="19" refY="7" markerWidth="20" markerHeight="28" orient="auto"><path d="M 18,7 L9,13 L14,7 L9,1 Z"></path></marker></defs><g id="classid-CrashDriverInfo-0" class="classGroup" transform="translate(469.6796875,85.59375 )"><rect x="0" y="0" width="82.96875" height="30" class=" "></rect><text y="15" x="0"><tspan class="title" x="5">CrashDriverInfo</tspan></text><line x1="0" y1="21" y2="21" x2="82.96875"></line><text x="5" y="31" fill="white" class="classText"></text><line x1="0" y1="26" y2="26" x2="82.96875"></line><text x="5" y="41" fill="white" class="classText"></text></g><g id="classid-Person-1" class="classGroup" transform="translate(685.47265625,454 )"><rect x="0" y="0" width="41.765625" height="30" class=" "></rect><text y="15" x="0"><tspan class="title" x="5">Person</tspan></text><line x1="0" y1="21" y2="21" x2="41.765625"></line><text x="5" y="31" fill="white" class="classText"></text><line x1="0" y1="26" y2="26" x2="41.765625"></line><text x="5" y="41" fill="white" class="classText"></text></g><g id="classid-Crash-2" class="classGroup" transform="translate(963.109375,176.6875 )"><rect x="0" y="0" width="35.953125" height="30" class=" "></rect><text y="15" x="0"><tspan class="title" x="5">Crash</tspan></text><line x1="0" y1="21" y2="21" x2="35.953125"></line><text x="5" y="31" fill="white" class="classText"></text><line x1="0" y1="26" y2="26" x2="35.953125"></line><text x="5" y="41" fill="white" class="classText"></text></g><g id="classid-PersonChargeAssociation-3" class="classGroup" transform="translate(98.58984375,171.15625 )"><rect x="0" y="0" width="169.96875" height="41.0625" class=" "></rect><text y="15" x="0"><tspan class="title" x="26.625">PersonChargeAssociation</tspan></text><line x1="0" y1="21.0625" y2="21.0625" x2="169.96875"></line><text x="5" y="31.0625" fill="white" class="classText"><tspan x="5">+Boolean JuvenileAsAdultIndicator</tspan></text><line x1="0" y1="37.0625" y2="37.0625" x2="169.96875"></line><text x="5" y="52.0625" fill="white" class="classText"></text></g><g id="classid-Charge-4" class="classGroup" transform="translate(0,262.25 )"><rect x="0" y="0" width="159.34375" height="51.125" class=" "></rect><text y="15" x="0"><tspan class="title" x="63.4609375">Charge</tspan></text><line x1="0" y1="21.0625" y2="21.0625" x2="159.34375"></line><text x="5" y="31.0625" fill="white" class="classText"><tspan x="5">+String ChargeDescriptionText</tspan><tspan x="5" dy="10">+Boolean ChargeFelonyIndicator</tspan></text><line x1="0" y1="47.125" y2="47.125" x2="159.34375"></line><text x="5" y="62.125" fill="white" class="classText"></text></g><g id="classid-Metadata-5" class="classGroup" transform="translate(318.55859375,171.1875 )"><rect x="0" y="0" width="188.8125" height="41" class=" "></rect><text y="15" x="0"><tspan class="title" x="72.9453125">Metadata</tspan></text><line x1="0" y1="21" y2="21" x2="188.8125"></line><text x="5" y="31" fill="white" class="classText"><tspan x="5">+Boolean CriminalInformationIndicator</tspan></text><line x1="0" y1="37" y2="37" x2="188.8125"></line><text x="5" y="52" fill="white" class="classText"></text></g><g id="classid-PrivacyMetadata-6" class="classGroup" transform="translate(557.37109375,171.125 )"><rect x="0" y="0" width="103.984375" height="41.125" class=" "></rect><text y="15" x="0"><tspan class="title" x="13.4375">PrivacyMetadata</tspan></text><line x1="0" y1="21.0625" y2="21.0625" x2="103.984375"></line><text x="5" y="31.0625" fill="white" class="classText"><tspan x="5">+String PrivacyCode</tspan></text><line x1="0" y1="37.125" y2="37.125" x2="103.984375"></line><text x="5" y="52.125" fill="white" class="classText"></text></g><g id="classid-PersonName-7" class="classGroup" transform="translate(579.3203125,544.5625 )"><rect x="0" y="0" width="133.9375" height="61.0625" class=" "></rect><text y="15" x="0"><tspan class="title" x="37.9140625">PersonName</tspan></text><line x1="0" y1="21" y2="21" x2="133.9375"></line><text x="5" y="31" fill="white" class="classText"><tspan x="5">+String PersonGivenName</tspan><tspan x="5" dy="10">+String PersonMiddleName</tspan><tspan x="5" dy="10">+String PersonLastName</tspan></text><line x1="0" y1="57.0625" y2="57.0625" x2="133.9375"></line><text x="5" y="72.0625" fill="white" class="classText"></text></g><g id="classid-PersonBirthDate-8" class="classGroup" transform="translate(789.67578125,554.59375 )"><rect x="0" y="0" width="86.328125" height="41" class=" "></rect><text y="15" x="0"><tspan class="title" x="5">PersonBirthDate</tspan></text><line x1="0" y1="21" y2="21" x2="86.328125"></line><text x="5" y="31" fill="white" class="classText"><tspan x="5">+Date Date</tspan></text><line x1="0" y1="37" y2="37" x2="86.328125"></line><text x="5" y="52" fill="white" class="classText"></text></g><g id="classid-Activity-9" class="classGroup" transform="translate(1022.01171875,0 )"><rect x="0" y="0" width="45.96875" height="30.0625" class=" "></rect><text y="15" x="0"><tspan class="title" x="5">Activity</tspan></text><line x1="0" y1="21.0625" y2="21.0625" x2="45.96875"></line><text x="5" y="31.0625" fill="white" class="classText"></text><line x1="0" y1="26.0625" y2="26.0625" x2="45.96875"></line><text x="5" y="41.0625" fill="white" class="classText"></text></g><g id="classid-Incident-10" class="classGroup" transform="translate(966.9765625,85.59375 )"><rect x="0" y="0" width="48.21875" height="30" class=" "></rect><text y="15" x="0"><tspan class="title" x="5">Incident</tspan></text><line x1="0" y1="21" y2="21" x2="48.21875"></line><text x="5" y="31" fill="white" class="classText"></text><line x1="0" y1="26" y2="26" x2="48.21875"></line><text x="5" y="41" fill="white" class="classText"></text></g><g id="classid-ActivityDate-11" class="classGroup" transform="translate(1065.1953125,80.0625 )"><rect x="0" y="0" width="67.421875" height="41.0625" class=" "></rect><text y="15" x="0"><tspan class="title" x="5">ActivityDate</tspan></text><line x1="0" y1="21.0625" y2="21.0625" x2="67.421875"></line><text x="5" y="31.0625" fill="white" class="classText"><tspan x="5">+Date Date</tspan></text><line x1="0" y1="37.0625" y2="37.0625" x2="67.421875"></line><text x="5" y="52.0625" fill="white" class="classText"></text></g><g id="classid-CrashVehicle-12" class="classGroup" transform="translate(891.85546875,272.8125 )"><rect x="0" y="0" width="70.640625" height="30" class=" "></rect><text y="15" x="0"><tspan class="title" x="5">CrashVehicle</tspan></text><line x1="0" y1="21" y2="21" x2="70.640625"></line><text x="5" y="31" fill="white" class="classText"></text><line x1="0" y1="26" y2="26" x2="70.640625"></line><text x="5" y="41" fill="white" class="classText"></text></g><g id="classid-CrashDriver-13" class="classGroup" transform="translate(894.70703125,363.40625 )"><rect x="0" y="0" width="64.9375" height="30" class=" "></rect><text y="15" x="0"><tspan class="title" x="5">CrashDriver</tspan></text><line x1="0" y1="21" y2="21" x2="64.9375"></line><text x="5" y="31" fill="white" class="classText"></text><line x1="0" y1="26" y2="26" x2="64.9375"></line><text x="5" y="41" fill="white" class="classText"></text></g><g id="classid-CrashPerson-14" class="classGroup" transform="translate(755.015625,363.40625 )"><rect x="0" y="0" width="67.71875" height="30" class=" "></rect><text y="15" x="0"><tspan class="title" x="5">CrashPerson</tspan></text><line x1="0" y1="21" y2="21" x2="67.71875"></line><text x="5" y="31" fill="white" class="classText"></text><line x1="0" y1="26" y2="26" x2="67.71875"></line><text x="5" y="41" fill="white" class="classText"></text></g><g id="classid-CrashPersonInjury-15" class="classGroup" transform="translate(837.83203125,443.4375 )"><rect x="0" y="0" width="146.234375" height="51.125" class=" "></rect><text y="15" x="0"><tspan class="title" x="30.3203125">CrashPersonInjury</tspan></text><line x1="0" y1="21.0625" y2="21.0625" x2="146.234375"></line><text x="5" y="31.0625" fill="white" class="classText"><tspan x="5">+String InjuryDescriptionText</tspan><tspan x="5" dy="10">+String InjurySeverityCode</tspan></text><line x1="0" y1="47.125" y2="47.125" x2="146.234375"></line><text x="5" y="62.125" fill="white" class="classText"></text></g><g id="classid-Location-16" class="classGroup" transform="translate(1355.98046875,272.8125 )"><rect x="0" y="0" width="50.15625" height="30" class=" "></rect><text y="15" x="0"><tspan class="title" x="5">Location</tspan></text><line x1="0" y1="21" y2="21" x2="50.15625"></line><text x="5" y="31" fill="white" class="classText"></text><line x1="0" y1="26" y2="26" x2="50.15625"></line><text x="5" y="41" fill="white" class="classText"></text></g><g id="classid-DriverLicense-17" class="classGroup" transform="translate(1034.06640625,454 )"><rect x="0" y="0" width="74.3125" height="30" class=" "></rect><text y="15" x="0"><tspan class="title" x="5">DriverLicense</tspan></text><line x1="0" y1="21" y2="21" x2="74.3125"></line><text x="5" y="31" fill="white" class="classText"></text><line x1="0" y1="26" y2="26" x2="74.3125"></line><text x="5" y="41" fill="white" class="classText"></text></g><g id="classid-DriverLicenseCardIdentification-18" class="classGroup" transform="translate(991.89453125,554.5625 )"><rect x="0" y="0" width="158.65625" height="41.0625" class=" "></rect><text y="15" x="0"><tspan class="title" x="5">DriverLicenseCardIdentification</tspan></text><line x1="0" y1="21" y2="21" x2="158.65625"></line><text x="5" y="31" fill="white" class="classText"><tspan x="5">+String IdentificationID</tspan></text><line x1="0" y1="37.0625" y2="37.0625" x2="158.65625"></line><text x="5" y="52.0625" fill="white" class="classText"></text></g><g id="classid-Location2DGeospatialCoordinate-19" class="classGroup" transform="translate(1203.22265625,363.375 )"><rect x="0" y="0" width="162.671875" height="30.0625" class=" "></rect><text y="15" x="0"><tspan class="title" x="5">Location2DGeospatialCoordinate</tspan></text><line x1="0" y1="21.0625" y2="21.0625" x2="162.671875"></line><text x="5" y="31.0625" fill="white" class="classText"></text><line x1="0" y1="26.0625" y2="26.0625" x2="162.671875"></line><text x="5" y="41.0625" fill="white" class="classText"></text></g><g id="classid-GeographicCoordinateLatitude-20" class="classGroup" transform="translate(1158.37890625,443.46875 )"><rect x="0" y="0" width="153.265625" height="51.0625" class=" "></rect><text y="15" x="0"><tspan class="title" x="5">GeographicCoordinateLatitude</tspan></text><line x1="0" y1="21.0625" y2="21.0625" x2="153.265625"></line><text x="5" y="31.0625" fill="white" class="classText"><tspan x="5">+Number LatitudeDegreeValue</tspan><tspan x="5" dy="10">+Number LatitudeMinuteValue</tspan></text><line x1="0" y1="47.0625" y2="47.0625" x2="153.265625"></line><text x="5" y="62.0625" fill="white" class="classText"></text></g><g id="classid-GeographicCoordinateLongitude-21" class="classGroup" transform="translate(1361.64453125,443.4375 )"><rect x="0" y="0" width="160.5625" height="51.125" class=" "></rect><text y="15" x="0"><tspan class="title" x="5">GeographicCoordinateLongitude</tspan></text><line x1="0" y1="21.0625" y2="21.0625" x2="160.5625"></line><text x="5" y="31.0625" fill="white" class="classText"><tspan x="5">LongitudeDegreeValue</tspan><tspan x="5" dy="10">LongitudeMinuteValue</tspan></text><line x1="0" y1="47.125" y2="47.125" x2="160.5625"></line><text x="5" y="62.125" fill="white" class="classText"></text></g><g id="classid-LocationGeospatialPoint-22" class="classGroup" transform="translate(1549.98046875,363.375 )"><rect x="0" y="0" width="123.328125" height="30.0625" class=" "></rect><text y="15" x="0"><tspan class="title" x="5">LocationGeospatialPoint</tspan></text><line x1="0" y1="21.0625" y2="21.0625" x2="123.328125"></line><text x="5" y="31.0625" fill="white" class="classText"></text><line x1="0" y1="26.0625" y2="26.0625" x2="123.328125"></line><text x="5" y="41.0625" fill="white" class="classText"></text></g><g id="classid-Point-23" class="classGroup" transform="translate(1582.80078125,448.46875 )"><rect x="0" y="0" width="57.6875" height="41.0625" class=" "></rect><text y="15" x="0"><tspan class="title" x="16.6484375">Point</tspan></text><line x1="0" y1="21" y2="21" x2="57.6875"></line><text x="5" y="31" fill="white" class="classText"><tspan x="5">+String id</tspan></text><line x1="0" y1="37.0625" y2="37.0625" x2="57.6875"></line><text x="5" y="52.0625" fill="white" class="classText"></text></g><g id="classid-pos-24" class="classGroup" transform="translate(1568.32421875,549.53125 )"><rect x="0" y="0" width="86.640625" height="51.125" class=" "></rect><text y="15" x="0"><tspan class="title" x="35.421875">pos</tspan></text><line x1="0" y1="21.0625" y2="21.0625" x2="86.640625"></line><text x="5" y="31.0625" fill="white" class="classText"><tspan x="5">+String srsName</tspan><tspan x="5" dy="10">+String Value</tspan></text><line x1="0" y1="47.125" y2="47.125" x2="86.640625"></line><text x="5" y="62.125" fill="white" class="classText"></text></g><path d="M552.6484375,110.79311879073593L576.599609375,116.68176565894662C600.55078125,122.5704125271573,648.453125,134.34770626357866,672.404296875,147.83010313178931C696.35546875,161.3125,696.35546875,176.5,696.35546875,191.6875C696.35546875,206.875,696.35546875,222.0625,696.35546875,238.08333333333334C696.35546875,254.10416666666666,696.35546875,270.9583333333333,696.35546875,287.8125C696.35546875,304.6666666666667,696.35546875,321.5208333333333,696.35546875,336.6197916666667C696.35546875,351.71875,696.35546875,365.0625,696.35546875,378.40625C696.35546875,391.75,696.35546875,405.09375,697.5276978394108,417.6927083333333C698.6999269288216,430.2916666666667,701.044385107643,442.1458333333333,702.2166141970539,448.0729166666667L703.3888432864647,454" id="edge0" class="relation" marker-start="url(#aggregationStart)"></path><path d="M552.6484375,108.47634255334756L585.6712239583334,114.7511187944563C618.6940104166666,121.02589503556504,684.7395833333334,133.57544751778252,753.1497395833334,146.85122925866227C821.5598958333334,160.12701099954202,892.3346354166666,174.12902199908407,927.7220052083334,181.13002749885513L963.109375,188.13103299862613" id="edge1" class="relation" marker-start="url(#aggregationStart)"></path><path d="M469.6796875,106.35960472735295L421.9954427083333,112.98717060612745C374.3111979166667,119.61473648490197,278.9427083333333,132.86986824245096,231.25846354166666,143.6693091212255C183.57421875,154.46875,183.57421875,162.8125,183.57421875,166.984375L183.57421875,171.15625" id="edge2" class="relation" marker-start="url(#aggregationStart)"></path><path d="M469.6796875,104.81391141701359L401.998046875,111.69909284751132C334.31640625,118.58427427800905,198.953125,132.35463713900452,131.271484375,146.83356856950226C63.58984375,161.3125,63.58984375,176.5,63.58984375,191.6875C63.58984375,206.875,63.58984375,222.0625,64.9151038447672,233.82291666666666C66.2403639395344,245.58333333333334,68.89088412906881,253.91666666666666,70.21614422383601,258.0833333333333L71.54140431860321,262.25" id="edge3" class="relation" marker-start="url(#aggregationStart)"></path><path d="M478.812912877488,115.59375L467.8382346895733,120.68229166666667C456.86355650165865,125.77083333333333,434.9142001258294,135.94791666666666,423.93952193791466,145.21354166666666C412.96484375,154.47916666666666,412.96484375,162.83333333333334,412.96484375,167.01041666666666L412.96484375,171.1875" id="edge4" class="relation" marker-start="url(#aggregationStart)"></path><path d="M543.515212122512,115.59375L554.4898903104266,120.68229166666667C565.4645684983414,125.77083333333333,587.4139248741707,135.94791666666666,598.3886030620853,145.203125C609.36328125,154.45833333333334,609.36328125,162.79166666666666,609.36328125,166.95833333333334L609.36328125,171.125" id="edge5" class="relation" marker-start="url(#aggregationStart)"></path><path d="M688.5360157215698,484L681.4948568513082,489.9270833333333C674.4536979810465,495.8541666666667,660.3713802405233,507.7083333333333,653.3302213702617,517.8020833333334C646.2890625,527.8958333333334,646.2890625,536.2291666666666,646.2890625,540.3958333333334L646.2890625,544.5625" id="edge6" class="relation" marker-start="url(#aggregationStart)"></path><path d="M727.23828125,477.3479655651637L744.8385416666666,484.38372130430304C762.4388020833334,491.41947704344244,797.6393229166666,505.4909885217212,815.2395833333334,518.3652859275272C832.83984375,531.2395833333334,832.83984375,542.9166666666666,832.83984375,548.7552083333334L832.83984375,554.59375" id="edge7" class="relation" marker-start="url(#aggregationStart)"></path><path d="M268.55859375,198.95521181594228L343.19140625,205.33767651328523C417.82421875,211.72014121062819,567.08984375,224.48507060531406,641.72265625,239.29461863599036C716.35546875,254.10416666666666,716.35546875,270.9583333333333,716.35546875,287.8125C716.35546875,304.6666666666667,716.35546875,321.5208333333333,716.35546875,336.6197916666667C716.35546875,351.71875,716.35546875,365.0625,716.35546875,378.40625C716.35546875,391.75,716.35546875,405.09375,715.1832396605892,417.6927083333333C714.0110105711784,430.2916666666667,711.666552392357,442.1458333333333,710.4943233029461,448.0729166666667L709.3220942135353,454" id="edge8" class="relation" marker-start="url(#aggregationStart)"></path><path d="M183.57421875,212.21875L183.57421875,216.390625C183.57421875,220.5625,183.57421875,228.90625,175.0120148975072,237.24479166666666C166.4498110450144,245.58333333333334,149.32540334002883,253.91666666666666,140.76319948753604,258.0833333333333L132.20099563504326,262.25" id="edge9" class="relation" marker-start="url(#aggregationStart)"></path><path d="M1024.7534823868073,30.0625L1019.1422249056727,34.229166666666664C1013.5309674245382,38.395833333333336,1002.3084524622691,46.729166666666664,996.6971949811345,55.984375C991.0859375,65.23958333333333,991.0859375,75.41666666666667,991.0859375,80.50520833333333L991.0859375,85.59375" id="edge10" class="relation" marker-start="url(#extensionStart)"></path><path d="M991.0859375,115.59375L991.0859375,120.68229166666667C991.0859375,125.77083333333333,991.0859375,135.94791666666666,989.9679676783265,146.13020833333334C988.849997856653,156.3125,986.6140582133058,166.5,985.4960883916324,171.59375L984.3781185699588,176.6875" id="edge11" class="relation" marker-start="url(#extensionStart)"></path><path d="M1065.2387051131927,30.0625L1070.8499625943273,34.229166666666664C1076.4612200754618,38.395833333333336,1087.683735037731,46.729166666666664,1093.2949925188655,55.0625C1098.90625,63.395833333333336,1098.90625,71.72916666666667,1098.90625,75.89583333333333L1098.90625,80.0625" id="edge12" class="relation" marker-start="url(#aggregationStart)"></path><path d="M963.3377379115226,206.6875L957.3107451346021,211.78125C951.2837523576818,216.875,939.2297668038409,227.0625,933.2027740269205,238.08333333333334C927.17578125,249.10416666666666,927.17578125,260.9583333333333,927.17578125,266.8854166666667L927.17578125,272.8125" id="edge13" class="relation" marker-start="url(#aggregationStart)"></path><path d="M927.17578125,302.8125L927.17578125,308.7395833333333C927.17578125,314.6666666666667,927.17578125,326.5208333333333,927.17578125,336.6197916666667C927.17578125,346.71875,927.17578125,355.0625,927.17578125,359.234375L927.17578125,363.40625" id="edge14" class="relation" marker-start="url(#aggregationStart)"></path><path d="M963.109375,195.94874100719426L934.0703125,202.83228417266187C905.03125,209.71582733812951,846.953125,223.48291366906474,817.9140625,238.7935401678657C788.875,254.10416666666666,788.875,270.9583333333333,788.875,287.8125C788.875,304.6666666666667,788.875,321.5208333333333,788.875,334.1197916666667C788.875,346.71875,788.875,355.0625,788.875,359.234375L788.875,363.40625" id="edge15" class="relation" marker-start="url(#aggregationStart)"></path><path d="M822.734375,389.5096026927138L837.4368489583334,394.33091891059485C852.1393229166666,399.15223512847587,881.5442708333334,408.7948675642379,896.2467447916666,417.78285044878567C910.94921875,426.7708333333333,910.94921875,435.1041666666667,910.94921875,439.2708333333333L910.94921875,443.4375" id="edge16" class="relation" marker-start="url(#aggregationStart)"></path><path d="M778.3495316159251,393.40625L775.4221357216043,397.578125C772.4947398272834,401.75,766.6399480386417,410.09375,757.3321458428169,420.1927083333333C748.0243436469922,430.2916666666667,735.2635310439842,442.1458333333333,728.8831247424805,448.0729166666667L722.5027184409765,454" id="edge17" class="relation" marker-start="url(#aggregationStart)"></path><path d="M999.0625,193.73528280741849L1062.728515625,200.98773567284874C1126.39453125,208.24018853827897,1253.7265625,222.74509426913949,1317.392578125,235.92463046790309C1381.05859375,249.10416666666666,1381.05859375,260.9583333333333,1381.05859375,266.8854166666667L1381.05859375,272.8125" id="edge18" class="relation" marker-start="url(#aggregationStart)"></path><path d="M894.70703125,391.6385632903842L883.7473958333334,396.1050527419868C872.7877604166666,400.57154219358944,850.8684895833334,409.5045210967947,822.95703125,420.96261123133564C795.0455729166666,432.4207013658765,761.1419270833334,446.4039027317529,744.1901041666666,453.3955034146911L727.23828125,460.3871040976294" id="edge19" class="relation" marker-start="url(#aggregationStart)"></path><path d="M959.64453125,387.4294561503417L978.2408854166666,392.59746345861805C996.8372395833334,397.76547076689445,1034.0299479166667,408.1014853834472,1052.6263020833333,419.1965760250569C1071.22265625,430.2916666666667,1071.22265625,442.1458333333333,1071.22265625,448.0729166666667L1071.22265625,454" id="edge20" class="relation" marker-start="url(#aggregationStart)"></path><path d="M1071.22265625,484L1071.22265625,489.9270833333333C1071.22265625,495.8541666666667,1071.22265625,507.7083333333333,1071.22265625,519.46875C1071.22265625,531.2291666666666,1071.22265625,542.8958333333334,1071.22265625,548.7291666666666L1071.22265625,554.5625" id="edge21" class="relation" marker-start="url(#aggregationStart)"></path><path d="M1355.98046875,300.9525279306995L1344.0768229166667,307.1896066089162C1332.1731770833333,313.426685287133,1308.3658854166667,325.9008426435665,1296.4622395833333,336.3045879884499C1284.55859375,346.7083333333333,1284.55859375,355.0416666666667,1284.55859375,359.2083333333333L1284.55859375,363.375" id="edge22" class="relation" marker-start="url(#aggregationStart)"></path><path d="M1265.9543417008197,393.4375L1260.797237875683,397.6041666666667C1255.6401340505465,401.7708333333333,1245.3259264002734,410.1041666666667,1240.1688225751366,418.4427083333333C1235.01171875,426.78125,1235.01171875,435.125,1235.01171875,439.296875L1235.01171875,443.46875" id="edge23" class="relation" marker-start="url(#aggregationStart)"></path><path d="M1343.648068525566,393.4375L1360.0276873129717,397.6041666666667C1376.4073061003774,401.7708333333333,1409.166543675189,410.1041666666667,1425.5461624625943,418.4375C1441.92578125,426.7708333333333,1441.92578125,435.1041666666667,1441.92578125,439.2708333333333L1441.92578125,443.4375" id="edge24" class="relation" marker-start="url(#aggregationStart)"></path><path d="M1406.13671875,293.31158944604437L1440.3880208333333,300.8221578717036C1474.6393229166667,308.3327262973629,1543.1419270833333,323.35386314868146,1577.3932291666667,335.0310982410074C1611.64453125,346.7083333333333,1611.64453125,355.0416666666667,1611.64453125,359.2083333333333L1611.64453125,363.375" id="edge25" class="relation" marker-start="url(#aggregationStart)"></path><path d="M1611.64453125,393.4375L1611.64453125,397.6041666666667C1611.64453125,401.7708333333333,1611.64453125,410.1041666666667,1611.64453125,419.2760416666667C1611.64453125,428.4479166666667,1611.64453125,438.4583333333333,1611.64453125,443.4635416666667L1611.64453125,448.46875" id="edge26" class="relation" marker-start="url(#aggregationStart)"></path><path d="M1611.64453125,489.53125L1611.64453125,494.5364583333333C1611.64453125,499.5416666666667,1611.64453125,509.5520833333333,1611.64453125,519.5520833333334C1611.64453125,529.5520833333334,1611.64453125,539.5416666666666,1611.64453125,544.5364583333334L1611.64453125,549.53125" id="edge27" class="relation" marker-start="url(#dependencyStart)"></path></svg>