<svg id="mermaid-1630529028470" width="100%" xmlns="http://www.w3.org/2000/svg" xmlns:xlink="http://www.w3.org/1999/xlink" height="232.1875" style="max-width: 731.17578125px;" viewBox="-20 -20 731.17578125 232.1875"><style>#mermaid-1630529028470{font-family:"trebuchet ms",verdana,arial,sans-serif;font-size:16px;fill:#000000;}#mermaid-1630529028470 .error-icon{fill:#552222;}#mermaid-1630529028470 .error-text{fill:#552222;stroke:#552222;}#mermaid-1630529028470 .edge-thickness-normal{stroke-width:2px;}#mermaid-1630529028470 .edge-thickness-thick{stroke-width:3.5px;}#mermaid-1630529028470 .edge-pattern-solid{stroke-dasharray:0;}#mermaid-1630529028470 .edge-pattern-dashed{stroke-dasharray:3;}#mermaid-1630529028470 .edge-pattern-dotted{stroke-dasharray:2;}#mermaid-1630529028470 .marker{fill:#666;stroke:#666;}#mermaid-1630529028470 .marker.cross{stroke:#666;}#mermaid-1630529028470 svg{font-family:"trebuchet ms",verdana,arial,sans-serif;font-size:16px;}#mermaid-1630529028470 g.classGroup text{fill:#999;fill:#111111;stroke:none;font-family:"trebuchet ms",verdana,arial,sans-serif;font-size:10px;}#mermaid-1630529028470 g.classGroup text .title{font-weight:bolder;}#mermaid-1630529028470 .classTitle{font-weight:bolder;}#mermaid-1630529028470 .node rect,#mermaid-1630529028470 .node circle,#mermaid-1630529028470 .node ellipse,#mermaid-1630529028470 .node polygon,#mermaid-1630529028470 .node path{fill:#eee;stroke:#999;stroke-width:1px;}#mermaid-1630529028470 .divider{stroke:#999;stroke:1;}#mermaid-1630529028470 g.clickable{cursor:pointer;}#mermaid-1630529028470 g.classGroup rect{fill:#eee;stroke:#999;}#mermaid-1630529028470 g.classGroup line{stroke:#999;stroke-width:1;}#mermaid-1630529028470 .classLabel .box{stroke:none;stroke-width:0;fill:#eee;opacity:0.5;}#mermaid-1630529028470 .classLabel .label{fill:#999;font-size:10px;}#mermaid-1630529028470 .relation{stroke:#666;stroke-width:1;fill:none;}#mermaid-1630529028470 .dashed-line{stroke-dasharray:3;}#mermaid-1630529028470 #compositionStart,#mermaid-1630529028470 .composition{fill:#666 !important;stroke:#666 !important;stroke-width:1;}#mermaid-1630529028470 #compositionEnd,#mermaid-1630529028470 .composition{fill:#666 !important;stroke:#666 !important;stroke-width:1;}#mermaid-1630529028470 #dependencyStart,#mermaid-1630529028470 .dependency{fill:#666 !important;stroke:#666 !important;stroke-width:1;}#mermaid-1630529028470 #dependencyStart,#mermaid-1630529028470 .dependency{fill:#666 !important;stroke:#666 !important;stroke-width:1;}#mermaid-1630529028470 #extensionStart,#mermaid-1630529028470 .extension{fill:#666 !important;stroke:#666 !important;stroke-width:1;}#mermaid-1630529028470 #extensionEnd,#mermaid-1630529028470 .extension{fill:#666 !important;stroke:#666 !important;stroke-width:1;}#mermaid-1630529028470 #aggregationStart,#mermaid-1630529028470 .aggregation{fill:#eee !important;stroke:#666 !important;stroke-width:1;}#mermaid-1630529028470 #aggregationEnd,#mermaid-1630529028470 .aggregation{fill:#eee !important;stroke:#666 !important;stroke-width:1;}#mermaid-1630529028470 .edgeTerminals{font-size:11px;}#mermaid-1630529028470:root{--mermaid-font-family:"trebuchet ms",verdana,arial,sans-serif;}</style><g></g><defs><marker id="extensionStart" class="extension" refX="0" refY="7" markerWidth="190" markerHeight="240" orient="auto"><path d="M 1,7 L18,13 V 1 Z"></path></marker></defs><defs><marker id="extensionEnd" refX="19" refY="7" markerWidth="20" markerHeight="28" orient="auto"><path d="M 1,1 V 13 L18,7 Z"></path></marker></defs><defs><marker id="compositionStart" class="extension" refX="0" refY="7" markerWidth="190" markerHeight="240" orient="auto"><path d="M 18,7 L9,13 L1,7 L9,1 Z"></path></marker></defs><defs><marker id="compositionEnd" refX="19" refY="7" markerWidth="20" markerHeight="28" orient="auto"><path d="M 18,7 L9,13 L1,7 L9,1 Z"></path></marker></defs><defs><marker id="aggregationStart" class="extension" refX="0" refY="7" markerWidth="190" markerHeight="240" orient="auto"><path d="M 18,7 L9,13 L1,7 L9,1 Z"></path></marker></defs><defs><marker id="aggregationEnd" refX="19" refY="7" markerWidth="20" markerHeight="28" orient="auto"><path d="M 18,7 L9,13 L1,7 L9,1 Z"></path></marker></defs><defs><marker id="dependencyStart" class="extension" refX="0" refY="7" markerWidth="190" markerHeight="240" orient="auto"><path d="M 5,7 L9,13 L1,7 L9,1 Z"></path></marker></defs><defs><marker id="dependencyEnd" refX="19" refY="7" markerWidth="20" markerHeight="28" orient="auto"><path d="M 18,7 L9,13 L14,7 L9,1 Z"></path></marker></defs><g id="classid-CrashDriverInfo-0" class="classGroup" transform="translate(135.6953125,25.53125 )"><rect x="0" y="0" width="82.96875" height="30" class=" "></rect><text y="15" x="0"><tspan class="title" x="5">CrashDriverInfo</tspan></text><line x1="0" y1="21" y2="21" x2="82.96875"></line><text x="5" y="31" fill="white" class="classText"></text><line x1="0" y1="26" y2="26" x2="82.96875"></line><text x="5" y="41" fill="white" class="classText"></text></g><g id="classid-Driver-1" class="classGroup" transform="translate(0,141.09375 )"><rect x="0" y="0" width="144.71875" height="41.0625" class=" "></rect><text y="15" x="0"><tspan class="title" x="57.8671875">Driver</tspan></text><line x1="0" y1="21" y2="21" x2="144.71875"></line><text x="5" y="31" fill="white" class="classText"><tspan x="5">+String DriverLicenseNumber</tspan></text><line x1="0" y1="37.0625" y2="37.0625" x2="144.71875"></line><text x="5" y="52.0625" fill="white" class="classText"></text></g><g id="classid-InjuredPerson-2" class="classGroup" transform="translate(194.71875,131.0625 )"><rect x="0" y="0" width="130.171875" height="61.125" class=" "></rect><text y="15" x="0"><tspan class="title" x="32.15625">InjuredPerson</tspan></text><line x1="0" y1="21.0625" y2="21.0625" x2="130.171875"></line><text x="5" y="31.0625" fill="white" class="classText"><tspan x="5">+String InjuryDescription</tspan><tspan x="5" dy="10">+Code SeverityCode</tspan><tspan x="5" dy="10">+String InjuryPrivacyCode</tspan></text><line x1="0" y1="57.125" y2="57.125" x2="130.171875"></line><text x="5" y="72.125" fill="white" class="classText"></text></g><g id="classid-Crash-3" class="classGroup" transform="translate(374.890625,136.09375 )"><rect x="0" y="0" width="165.390625" height="51.0625" class=" "></rect><text y="15" x="0"><tspan class="title" x="69.71875">Crash</tspan></text><line x1="0" y1="21" y2="21" x2="165.390625"></line><text x="5" y="31" fill="white" class="classText"><tspan x="5">+Date CrashDate</tspan><tspan x="5" dy="10">+String CrashLocationCoordinates</tspan></text><line x1="0" y1="47.0625" y2="47.0625" x2="165.390625"></line><text x="5" y="62.0625" fill="white" class="classText"></text></g><g id="classid-Charge-4" class="classGroup" transform="translate(591.37890625,136.0625 )"><rect x="0" y="0" width="99.796875" height="51.125" class=" "></rect><text y="15" x="0"><tspan class="title" x="33.6875">Charge</tspan></text><line x1="0" y1="21.0625" y2="21.0625" x2="99.796875"></line><text x="5" y="31.0625" fill="white" class="classText"><tspan x="5">+String Description</tspan><tspan x="5" dy="10">+boolean isFelony</tspan></text><line x1="0" y1="47.125" y2="47.125" x2="99.796875"></line><text x="5" y="62.125" fill="white" class="classText"></text></g><g id="classid-Person-5" class="classGroup" transform="translate(276.48828125,0 )"><rect x="0" y="0" width="146.609375" height="81.0625" class=" "></rect><text y="15" x="0"><tspan class="title" x="57.421875">Person</tspan></text><line x1="0" y1="21" y2="21" x2="146.609375"></line><text x="5" y="31" fill="white" class="classText"><tspan x="5">+Date BirthDate</tspan><tspan x="5" dy="10">+String BirthDatePrivacyCode</tspan><tspan x="5" dy="10">+String FirstName</tspan><tspan x="5" dy="10">+String MiddleName</tspan><tspan x="5" dy="10">+String LastName</tspan></text><line x1="0" y1="77.0625" y2="77.0625" x2="146.609375"></line><text x="5" y="92.0625" fill="white" class="classText"></text></g><path d="M151.14875044706724,55.53125L136.5334639142227,63.953125C121.91817738137816,72.375,92.68760431568909,89.21875,79.00778153835167,103.47916666666667C65.32795876101424,117.73958333333333,67.1988862720285,129.41666666666666,68.13435002753562,135.25520833333334L69.06981378304275,141.09375" id="edge0" class="relation" marker-start="url(#aggregationStart)"></path><path d="M177.1796875,55.53125L177.1796875,63.953125C177.1796875,72.375,177.1796875,89.21875,183.37578798743905,101.80729166666667C189.57188847487814,114.39583333333333,201.9640894497563,122.72916666666667,208.16018993719536,126.89583333333333L214.35629042463444,131.0625" id="edge1" class="relation" marker-start="url(#aggregationStart)"></path><path d="M218.6640625,50.22619420762287L258.484375,59.53224517301906C298.3046875,68.83829613841525,377.9453125,87.45039806920762,417.765625,101.76165736793716C457.5859375,116.07291666666667,457.5859375,126.08333333333333,457.5859375,131.08854166666666L457.5859375,136.09375" id="edge2" class="relation" marker-start="url(#aggregationStart)"></path><path d="M218.6640625,47.63291510199292L275.5501302083333,57.37117925166077C332.4361979166667,67.10944340132862,446.2083333333333,86.5859717006643,510.41020531613236,101.32423585033216C574.6120772989315,116.0625,589.2436858478628,126.0625,596.5594901223285,131.0625L603.8752943967942,136.0625" id="edge3" class="relation" marker-start="url(#aggregationStart)"></path><path d="M276.48828125,65.4711075817802L256.603515625,72.2363396514835C236.71875,79.0015717211868,196.94921875,92.5320358605934,168.15148252952756,105.13580959696337C139.35374630905514,117.73958333333333,121.52780511811024,129.41666666666666,112.6148345226378,135.25520833333334L103.70186392716536,141.09375" id="edge4" class="relation" marker-start="url(#extensionStart)"></path><path d="M349.79296875,81.0625L349.79296875,85.22916666666667C349.79296875,89.39583333333333,349.79296875,97.72916666666667,343.0446911909449,106.0625C336.2964136318897,114.39583333333333,322.7998585137795,122.72916666666667,316.0515809547244,126.89583333333333L309.3033033956693,131.0625" id="edge5" class="relation" marker-start="url(#extensionStart)"></path><path d="M423.09765625,56.46490428219746L461.1276041666667,64.73117023516456C499.1575520833333,72.99743618813164,575.2174479166666,89.52996809406581,612.3475083192726,102.79623404703291C649.4775687218785,116.0625,647.677793693757,126.0625,646.7779061796963,131.0625L645.8780186656355,136.0625" id="edge6" class="relation" marker-start="url(#dependencyStart)" marker-end="url(#dependencyEnd)"></path></svg>