<svg id="mermaid-1627486294016" width="100%" xmlns="http://www.w3.org/2000/svg" xmlns:xlink="http://www.w3.org/1999/xlink" height="232.1875" style="max-width: 741.0234375px;" viewBox="-20 -20 741.0234375 232.1875"><style>#mermaid-1627486294016{font-family:"trebuchet ms",verdana,arial,sans-serif;font-size:16px;fill:#000000;}#mermaid-1627486294016 .error-icon{fill:#552222;}#mermaid-1627486294016 .error-text{fill:#552222;stroke:#552222;}#mermaid-1627486294016 .edge-thickness-normal{stroke-width:2px;}#mermaid-1627486294016 .edge-thickness-thick{stroke-width:3.5px;}#mermaid-1627486294016 .edge-pattern-solid{stroke-dasharray:0;}#mermaid-1627486294016 .edge-pattern-dashed{stroke-dasharray:3;}#mermaid-1627486294016 .edge-pattern-dotted{stroke-dasharray:2;}#mermaid-1627486294016 .marker{fill:#666;stroke:#666;}#mermaid-1627486294016 .marker.cross{stroke:#666;}#mermaid-1627486294016 svg{font-family:"trebuchet ms",verdana,arial,sans-serif;font-size:16px;}#mermaid-1627486294016 g.classGroup text{fill:#999;fill:#111111;stroke:none;font-family:"trebuchet ms",verdana,arial,sans-serif;font-size:10px;}#mermaid-1627486294016 g.classGroup text .title{font-weight:bolder;}#mermaid-1627486294016 .classTitle{font-weight:bolder;}#mermaid-1627486294016 .node rect,#mermaid-1627486294016 .node circle,#mermaid-1627486294016 .node ellipse,#mermaid-1627486294016 .node polygon,#mermaid-1627486294016 .node path{fill:#eee;stroke:#999;stroke-width:1px;}#mermaid-1627486294016 .divider{stroke:#999;stroke:1;}#mermaid-1627486294016 g.clickable{cursor:pointer;}#mermaid-1627486294016 g.classGroup rect{fill:#eee;stroke:#999;}#mermaid-1627486294016 g.classGroup line{stroke:#999;stroke-width:1;}#mermaid-1627486294016 .classLabel .box{stroke:none;stroke-width:0;fill:#eee;opacity:0.5;}#mermaid-1627486294016 .classLabel .label{fill:#999;font-size:10px;}#mermaid-1627486294016 .relation{stroke:#666;stroke-width:1;fill:none;}#mermaid-1627486294016 .dashed-line{stroke-dasharray:3;}#mermaid-1627486294016 #compositionStart,#mermaid-1627486294016 .composition{fill:#666 !important;stroke:#666 !important;stroke-width:1;}#mermaid-1627486294016 #compositionEnd,#mermaid-1627486294016 .composition{fill:#666 !important;stroke:#666 !important;stroke-width:1;}#mermaid-1627486294016 #dependencyStart,#mermaid-1627486294016 .dependency{fill:#666 !important;stroke:#666 !important;stroke-width:1;}#mermaid-1627486294016 #dependencyStart,#mermaid-1627486294016 .dependency{fill:#666 !important;stroke:#666 !important;stroke-width:1;}#mermaid-1627486294016 #extensionStart,#mermaid-1627486294016 .extension{fill:#666 !important;stroke:#666 !important;stroke-width:1;}#mermaid-1627486294016 #extensionEnd,#mermaid-1627486294016 .extension{fill:#666 !important;stroke:#666 !important;stroke-width:1;}#mermaid-1627486294016 #aggregationStart,#mermaid-1627486294016 .aggregation{fill:#eee !important;stroke:#666 !important;stroke-width:1;}#mermaid-1627486294016 #aggregationEnd,#mermaid-1627486294016 .aggregation{fill:#eee !important;stroke:#666 !important;stroke-width:1;}#mermaid-1627486294016 .edgeTerminals{font-size:11px;}#mermaid-1627486294016:root{--mermaid-font-family:"trebuchet ms",verdana,arial,sans-serif;}</style><g></g><defs><marker id="extensionStart" class="extension" refX="0" refY="7" markerWidth="190" markerHeight="240" orient="auto"><path d="M 1,7 L18,13 V 1 Z"></path></marker></defs><defs><marker id="extensionEnd" refX="19" refY="7" markerWidth="20" markerHeight="28" orient="auto"><path d="M 1,1 V 13 L18,7 Z"></path></marker></defs><defs><marker id="compositionStart" class="extension" refX="0" refY="7" markerWidth="190" markerHeight="240" orient="auto"><path d="M 18,7 L9,13 L1,7 L9,1 Z"></path></marker></defs><defs><marker id="compositionEnd" refX="19" refY="7" markerWidth="20" markerHeight="28" orient="auto"><path d="M 18,7 L9,13 L1,7 L9,1 Z"></path></marker></defs><defs><marker id="aggregationStart" class="extension" refX="0" refY="7" markerWidth="190" markerHeight="240" orient="auto"><path d="M 18,7 L9,13 L1,7 L9,1 Z"></path></marker></defs><defs><marker id="aggregationEnd" refX="19" refY="7" markerWidth="20" markerHeight="28" orient="auto"><path d="M 18,7 L9,13 L1,7 L9,1 Z"></path></marker></defs><defs><marker id="dependencyStart" class="extension" refX="0" refY="7" markerWidth="190" markerHeight="240" orient="auto"><path d="M 5,7 L9,13 L1,7 L9,1 Z"></path></marker></defs><defs><marker id="dependencyEnd" refX="19" refY="7" markerWidth="20" markerHeight="28" orient="auto"><path d="M 18,7 L9,13 L14,7 L9,1 Z"></path></marker></defs><g id="classid-CrashDriverInfo-0" class="classGroup" transform="translate(417.046875,25.53125 )"><rect x="0" y="0" width="82.96875" height="30" class=" "></rect><text y="15" x="0"><tspan class="title" x="5">CrashDriverInfo</tspan></text><line x1="0" y1="21" y2="21" x2="82.96875"></line><text x="5" y="31" fill="white" class="classText"></text><line x1="0" y1="26" y2="26" x2="82.96875"></line><text x="5" y="41" fill="white" class="classText"></text></g><g id="classid-Driver-1" class="classGroup" transform="translate(10.9453125,141.09375 )"><rect x="0" y="0" width="144.71875" height="41.0625" class=" "></rect><text y="15" x="0"><tspan class="title" x="57.8671875">Driver</tspan></text><line x1="0" y1="21" y2="21" x2="144.71875"></line><text x="5" y="31" fill="white" class="classText"><tspan x="5">+String DriverLicenseNumber</tspan></text><line x1="0" y1="37.0625" y2="37.0625" x2="144.71875"></line><text x="5" y="52.0625" fill="white" class="classText"></text></g><g id="classid-InjuredPerson-2" class="classGroup" transform="translate(205.6640625,131.0625 )"><rect x="0" y="0" width="130.171875" height="61.125" class=" "></rect><text y="15" x="0"><tspan class="title" x="32.15625">InjuredPerson</tspan></text><line x1="0" y1="21.0625" y2="21.0625" x2="130.171875"></line><text x="5" y="31.0625" fill="white" class="classText"><tspan x="5">+String InjuryDescription</tspan><tspan x="5" dy="10">+Code SeverityCode</tspan><tspan x="5" dy="10">+String InjuryPrivacyCode</tspan></text><line x1="0" y1="57.125" y2="57.125" x2="130.171875"></line><text x="5" y="72.125" fill="white" class="classText"></text></g><g id="classid-Crash-3" class="classGroup" transform="translate(385.8359375,136.09375 )"><rect x="0" y="0" width="165.390625" height="51.0625" class=" "></rect><text y="15" x="0"><tspan class="title" x="69.71875">Crash</tspan></text><line x1="0" y1="21" y2="21" x2="165.390625"></line><text x="5" y="31" fill="white" class="classText"><tspan x="5">+Date CrashDate</tspan><tspan x="5" dy="10">+String CrashLocationCoordinates</tspan></text><line x1="0" y1="47.0625" y2="47.0625" x2="165.390625"></line><text x="5" y="62.0625" fill="white" class="classText"></text></g><g id="classid-Charge-4" class="classGroup" transform="translate(601.2265625,136.0625 )"><rect x="0" y="0" width="99.796875" height="51.125" class=" "></rect><text y="15" x="0"><tspan class="title" x="33.6875">Charge</tspan></text><line x1="0" y1="21.0625" y2="21.0625" x2="99.796875"></line><text x="5" y="31.0625" fill="white" class="classText"><tspan x="5">+String Description</tspan><tspan x="5" dy="10">+boolean isFelony</tspan></text><line x1="0" y1="47.125" y2="47.125" x2="99.796875"></line><text x="5" y="62.125" fill="white" class="classText"></text></g><g id="classid-Person-5" class="classGroup" transform="translate(0,0 )"><rect x="0" y="0" width="146.609375" height="81.0625" class=" "></rect><text y="15" x="0"><tspan class="title" x="57.421875">Person</tspan></text><line x1="0" y1="21" y2="21" x2="146.609375"></line><text x="5" y="31" fill="white" class="classText"><tspan x="5">+Date BirthDate</tspan><tspan x="5" dy="10">+String BirthDatePrivacyCode</tspan><tspan x="5" dy="10">+String FirstName</tspan><tspan x="5" dy="10">+String MiddleName</tspan><tspan x="5" dy="10">+String LastName</tspan></text><line x1="0" y1="77.0625" y2="77.0625" x2="146.609375"></line><text x="5" y="92.0625" fill="white" class="classText"></text></g><path d="M417.046875,53.94854886830284L390.1920572916667,62.634207390252364C363.3372395833333,71.31986591220189,309.6276041666667,88.69118295610095,264.6344767206834,103.21538314471714C219.64134927470005,117.73958333333333,183.36472979940007,129.41666666666666,165.2264200617501,135.25520833333334L147.08811032410011,141.09375" id="edge0" class="relation" marker-start="url(#aggregationStart)"></path><path d="M435.89534155937054,55.53125L423.1862221328088,63.953125C410.477102706247,72.375,385.0588638531235,89.21875,365.68378079701546,101.80729166666667C346.30869774090735,114.39583333333333,332.97677048181475,122.72916666666667,326.31080685226846,126.89583333333333L319.64484322272216,131.0625" id="edge1" class="relation" marker-start="url(#aggregationStart)"></path><path d="M460.8202342632332,55.53125L462.1054035526943,63.953125C463.3905728421555,72.375,465.96091142107775,89.21875,467.2460807105388,102.64583333333333C468.53125,116.07291666666667,468.53125,126.08333333333333,468.53125,131.08854166666666L468.53125,136.09375" id="edge2" class="relation" marker-start="url(#aggregationStart)"></path><path d="M500.015625,54.646572793282495L525.2005208333334,63.21589399440208C550.3854166666666,71.78521519552167,600.7552083333334,88.92385759776083,625.9401041666666,102.49317879888042C651.125,116.0625,651.125,126.0625,651.125,131.0625L651.125,136.0625" id="edge3" class="relation" marker-start="url(#aggregationStart)"></path><path d="M67.11966127205531,81.0625L66.48383231004608,85.22916666666667C65.84800334803687,89.39583333333333,64.57634542401844,97.72916666666667,66.0421287604719,107.734375C67.50791209692538,117.73958333333333,71.71113669385078,129.41666666666666,73.81274899231346,135.25520833333334L75.91436129077616,141.09375" id="edge4" class="relation" marker-start="url(#extensionStart)"></path><path d="M131.27239620588938,81.0625L137.23155412990783,85.22916666666667C143.19071205392626,89.39583333333333,155.10902790196312,97.72916666666667,168.846412766364,106.0625C182.5837976307649,114.39583333333333,198.14025151152978,122.72916666666667,205.91847845191228,126.89583333333333L213.69670539229472,131.0625" id="edge5" class="relation" marker-start="url(#extensionStart)"></path></svg>