<svg id="mermaid-1632686891220" width="100%" xmlns="http://www.w3.org/2000/svg" xmlns:xlink="http://www.w3.org/1999/xlink" height="747.625" style="max-width: 1793.234375px;" viewBox="-20 -20 1793.234375 747.625"><style>#mermaid-1632686891220{font-family:"trebuchet ms",verdana,arial,sans-serif;font-size:16px;fill:#000000;}#mermaid-1632686891220 .error-icon{fill:#552222;}#mermaid-1632686891220 .error-text{fill:#552222;stroke:#552222;}#mermaid-1632686891220 .edge-thickness-normal{stroke-width:2px;}#mermaid-1632686891220 .edge-thickness-thick{stroke-width:3.5px;}#mermaid-1632686891220 .edge-pattern-solid{stroke-dasharray:0;}#mermaid-1632686891220 .edge-pattern-dashed{stroke-dasharray:3;}#mermaid-1632686891220 .edge-pattern-dotted{stroke-dasharray:2;}#mermaid-1632686891220 .marker{fill:#666;stroke:#666;}#mermaid-1632686891220 .marker.cross{stroke:#666;}#mermaid-1632686891220 svg{font-family:"trebuchet ms",verdana,arial,sans-serif;font-size:16px;}#mermaid-1632686891220 g.classGroup text{fill:#999;fill:#111111;stroke:none;font-family:"trebuchet ms",verdana,arial,sans-serif;font-size:10px;}#mermaid-1632686891220 g.classGroup text .title{font-weight:bolder;}#mermaid-1632686891220 .classTitle{font-weight:bolder;}#mermaid-1632686891220 .node rect,#mermaid-1632686891220 .node circle,#mermaid-1632686891220 .node ellipse,#mermaid-1632686891220 .node polygon,#mermaid-1632686891220 .node path{fill:#eee;stroke:#999;stroke-width:1px;}#mermaid-1632686891220 .divider{stroke:#999;stroke:1;}#mermaid-1632686891220 g.clickable{cursor:pointer;}#mermaid-1632686891220 g.classGroup rect{fill:#eee;stroke:#999;}#mermaid-1632686891220 g.classGroup line{stroke:#999;stroke-width:1;}#mermaid-1632686891220 .classLabel .box{stroke:none;stroke-width:0;fill:#eee;opacity:0.5;}#mermaid-1632686891220 .classLabel .label{fill:#999;font-size:10px;}#mermaid-1632686891220 .relation{stroke:#666;stroke-width:1;fill:none;}#mermaid-1632686891220 .dashed-line{stroke-dasharray:3;}#mermaid-1632686891220 #compositionStart,#mermaid-1632686891220 .composition{fill:#666 !important;stroke:#666 !important;stroke-width:1;}#mermaid-1632686891220 #compositionEnd,#mermaid-1632686891220 .composition{fill:#666 !important;stroke:#666 !important;stroke-width:1;}#mermaid-1632686891220 #dependencyStart,#mermaid-1632686891220 .dependency{fill:#666 !important;stroke:#666 !important;stroke-width:1;}#mermaid-1632686891220 #dependencyStart,#mermaid-1632686891220 .dependency{fill:#666 !important;stroke:#666 !important;stroke-width:1;}#mermaid-1632686891220 #extensionStart,#mermaid-1632686891220 .extension{fill:#666 !important;stroke:#666 !important;stroke-width:1;}#mermaid-1632686891220 #extensionEnd,#mermaid-1632686891220 .extension{fill:#666 !important;stroke:#666 !important;stroke-width:1;}#mermaid-1632686891220 #aggregationStart,#mermaid-1632686891220 .aggregation{fill:#eee !important;stroke:#666 !important;stroke-width:1;}#mermaid-1632686891220 #aggregationEnd,#mermaid-1632686891220 .aggregation{fill:#eee !important;stroke:#666 !important;stroke-width:1;}#mermaid-1632686891220 .edgeTerminals{font-size:11px;}#mermaid-1632686891220:root{--mermaid-font-family:"trebuchet ms",verdana,arial,sans-serif;}</style><g></g><defs><marker id="extensionStart" class="extension" refX="0" refY="7" markerWidth="190" markerHeight="240" orient="auto"><path d="M 1,7 L18,13 V 1 Z"></path></marker></defs><defs><marker id="extensionEnd" refX="19" refY="7" markerWidth="20" markerHeight="28" orient="auto"><path d="M 1,1 V 13 L18,7 Z"></path></marker></defs><defs><marker id="compositionStart" class="extension" refX="0" refY="7" markerWidth="190" markerHeight="240" orient="auto"><path d="M 18,7 L9,13 L1,7 L9,1 Z"></path></marker></defs><defs><marker id="compositionEnd" refX="19" refY="7" markerWidth="20" markerHeight="28" orient="auto"><path d="M 18,7 L9,13 L1,7 L9,1 Z"></path></marker></defs><defs><marker id="aggregationStart" class="extension" refX="0" refY="7" markerWidth="190" markerHeight="240" orient="auto"><path d="M 18,7 L9,13 L1,7 L9,1 Z"></path></marker></defs><defs><marker id="aggregationEnd" refX="19" refY="7" markerWidth="20" markerHeight="28" orient="auto"><path d="M 18,7 L9,13 L1,7 L9,1 Z"></path></marker></defs><defs><marker id="dependencyStart" class="extension" refX="0" refY="7" markerWidth="190" markerHeight="240" orient="auto"><path d="M 5,7 L9,13 L1,7 L9,1 Z"></path></marker></defs><defs><marker id="dependencyEnd" refX="19" refY="7" markerWidth="20" markerHeight="28" orient="auto"><path d="M 18,7 L9,13 L14,7 L9,1 Z"></path></marker></defs><g id="classid-CrashDriverInfo-0" class="classGroup" transform="translate(469.6796875,85.59375 )"><rect x="0" y="0" width="82.96875" height="30" class=" "></rect><text y="15" x="0"><tspan class="title" x="5">CrashDriverInfo</tspan></text><line x1="0" y1="21" y2="21" x2="82.96875"></line><text x="5" y="31" fill="white" class="classText"></text><line x1="0" y1="26" y2="26" x2="82.96875"></line><text x="5" y="41" fill="white" class="classText"></text></g><g id="classid-Person-1" class="classGroup" transform="translate(685.47265625,464.9375 )"><rect x="0" y="0" width="41.765625" height="30" class=" "></rect><text y="15" x="0"><tspan class="title" x="5">Person</tspan></text><line x1="0" y1="21" y2="21" x2="41.765625"></line><text x="5" y="31" fill="white" class="classText"></text><line x1="0" y1="26" y2="26" x2="41.765625"></line><text x="5" y="41" fill="white" class="classText"></text></g><g id="classid-Crash-2" class="classGroup" transform="translate(1036.69140625,176.6875 )"><rect x="0" y="0" width="35.953125" height="30" class=" "></rect><text y="15" x="0"><tspan class="title" x="5">Crash</tspan></text><line x1="0" y1="21" y2="21" x2="35.953125"></line><text x="5" y="31" fill="white" class="classText"></text><line x1="0" y1="26" y2="26" x2="35.953125"></line><text x="5" y="41" fill="white" class="classText"></text></g><g id="classid-PersonChargeAssociation-3" class="classGroup" transform="translate(98.58984375,171.15625 )"><rect x="0" y="0" width="169.96875" height="41.0625" class=" "></rect><text y="15" x="0"><tspan class="title" x="26.625">PersonChargeAssociation</tspan></text><line x1="0" y1="21.0625" y2="21.0625" x2="169.96875"></line><text x="5" y="31.0625" fill="white" class="classText"><tspan x="5">+Boolean JuvenileAsAdultIndicator</tspan></text><line x1="0" y1="37.0625" y2="37.0625" x2="169.96875"></line><text x="5" y="52.0625" fill="white" class="classText"></text></g><g id="classid-Charge-4" class="classGroup" transform="translate(0,262.25 )"><rect x="0" y="0" width="159.34375" height="51.125" class=" "></rect><text y="15" x="0"><tspan class="title" x="63.4609375">Charge</tspan></text><line x1="0" y1="21.0625" y2="21.0625" x2="159.34375"></line><text x="5" y="31.0625" fill="white" class="classText"><tspan x="5">+String ChargeDescriptionText</tspan><tspan x="5" dy="10">+Boolean ChargeFelonyIndicator</tspan></text><line x1="0" y1="47.125" y2="47.125" x2="159.34375"></line><text x="5" y="62.125" fill="white" class="classText"></text></g><g id="classid-Metadata-5" class="classGroup" transform="translate(318.55859375,171.1875 )"><rect x="0" y="0" width="188.8125" height="41" class=" "></rect><text y="15" x="0"><tspan class="title" x="72.9453125">Metadata</tspan></text><line x1="0" y1="21" y2="21" x2="188.8125"></line><text x="5" y="31" fill="white" class="classText"><tspan x="5">+Boolean CriminalInformationIndicator</tspan></text><line x1="0" y1="37" y2="37" x2="188.8125"></line><text x="5" y="52" fill="white" class="classText"></text></g><g id="classid-PrivacyMetadata-6" class="classGroup" transform="translate(557.37109375,171.125 )"><rect x="0" y="0" width="103.984375" height="41.125" class=" "></rect><text y="15" x="0"><tspan class="title" x="13.4375">PrivacyMetadata</tspan></text><line x1="0" y1="21.0625" y2="21.0625" x2="103.984375"></line><text x="5" y="31.0625" fill="white" class="classText"><tspan x="5">+String PrivacyCode</tspan></text><line x1="0" y1="37.125" y2="37.125" x2="103.984375"></line><text x="5" y="52.125" fill="white" class="classText"></text></g><g id="classid-PersonName-7" class="classGroup" transform="translate(579.3203125,555.5 )"><rect x="0" y="0" width="133.9375" height="61.0625" class=" "></rect><text y="15" x="0"><tspan class="title" x="37.9140625">PersonName</tspan></text><line x1="0" y1="21" y2="21" x2="133.9375"></line><text x="5" y="31" fill="white" class="classText"><tspan x="5">+String PersonGivenName</tspan><tspan x="5" dy="10">+String PersonMiddleName</tspan><tspan x="5" dy="10">+String PersonLastName</tspan></text><line x1="0" y1="57.0625" y2="57.0625" x2="133.9375"></line><text x="5" y="72.0625" fill="white" class="classText"></text></g><g id="classid-PersonBirthDate-8" class="classGroup" transform="translate(853.37890625,565.53125 )"><rect x="0" y="0" width="86.328125" height="41" class=" "></rect><text y="15" x="0"><tspan class="title" x="5">PersonBirthDate</tspan></text><line x1="0" y1="21" y2="21" x2="86.328125"></line><text x="5" y="31" fill="white" class="classText"><tspan x="5">+Date Date</tspan></text><line x1="0" y1="37" y2="37" x2="86.328125"></line><text x="5" y="52" fill="white" class="classText"></text></g><g id="classid-Activity-9" class="classGroup" transform="translate(1095.59375,0 )"><rect x="0" y="0" width="45.96875" height="30.0625" class=" "></rect><text y="15" x="0"><tspan class="title" x="5">Activity</tspan></text><line x1="0" y1="21.0625" y2="21.0625" x2="45.96875"></line><text x="5" y="31.0625" fill="white" class="classText"></text><line x1="0" y1="26.0625" y2="26.0625" x2="45.96875"></line><text x="5" y="41.0625" fill="white" class="classText"></text></g><g id="classid-Incident-10" class="classGroup" transform="translate(1040.55859375,85.59375 )"><rect x="0" y="0" width="48.21875" height="30" class=" "></rect><text y="15" x="0"><tspan class="title" x="5">Incident</tspan></text><line x1="0" y1="21" y2="21" x2="48.21875"></line><text x="5" y="31" fill="white" class="classText"></text><line x1="0" y1="26" y2="26" x2="48.21875"></line><text x="5" y="41" fill="white" class="classText"></text></g><g id="classid-ActivityDate-11" class="classGroup" transform="translate(1138.77734375,80.0625 )"><rect x="0" y="0" width="67.421875" height="41.0625" class=" "></rect><text y="15" x="0"><tspan class="title" x="5">ActivityDate</tspan></text><line x1="0" y1="21.0625" y2="21.0625" x2="67.421875"></line><text x="5" y="31.0625" fill="white" class="classText"><tspan x="5">+Date Date</tspan></text><line x1="0" y1="37.0625" y2="37.0625" x2="67.421875"></line><text x="5" y="52.0625" fill="white" class="classText"></text></g><g id="classid-CrashVehicle-12" class="classGroup" transform="translate(993.62890625,272.8125 )"><rect x="0" y="0" width="70.640625" height="30" class=" "></rect><text y="15" x="0"><tspan class="title" x="5">CrashVehicle</tspan></text><line x1="0" y1="21" y2="21" x2="70.640625"></line><text x="5" y="31" fill="white" class="classText"></text><line x1="0" y1="26" y2="26" x2="70.640625"></line><text x="5" y="41" fill="white" class="classText"></text></g><g id="classid-CrashDriver-13" class="classGroup" transform="translate(996.48046875,368.875 )"><rect x="0" y="0" width="64.9375" height="30" class=" "></rect><text y="15" x="0"><tspan class="title" x="5">CrashDriver</tspan></text><line x1="0" y1="21" y2="21" x2="64.9375"></line><text x="5" y="31" fill="white" class="classText"></text><line x1="0" y1="26" y2="26" x2="64.9375"></line><text x="5" y="41" fill="white" class="classText"></text></g><g id="classid-CrashPerson-14" class="classGroup" transform="translate(751.35546875,363.375 )"><rect x="0" y="0" width="195.125" height="41" class=" "></rect><text y="15" x="0"><tspan class="title" x="68.703125">CrashPerson</tspan></text><line x1="0" y1="21" y2="21" x2="195.125"></line><text x="5" y="31" fill="white" class="classText"><tspan x="5">+Boolean PersonDefenestrationIndicator</tspan></text><line x1="0" y1="37" y2="37" x2="195.125"></line><text x="5" y="52" fill="white" class="classText"></text></g><g id="classid-CrashPersonInjury-15" class="classGroup" transform="translate(901.53515625,454.375 )"><rect x="0" y="0" width="146.234375" height="51.125" class=" "></rect><text y="15" x="0"><tspan class="title" x="30.3203125">CrashPersonInjury</tspan></text><line x1="0" y1="21.0625" y2="21.0625" x2="146.234375"></line><text x="5" y="31.0625" fill="white" class="classText"><tspan x="5">+String InjuryDescriptionText</tspan><tspan x="5" dy="10">+String InjurySeverityCode</tspan></text><line x1="0" y1="47.125" y2="47.125" x2="146.234375"></line><text x="5" y="62.125" fill="white" class="classText"></text></g><g id="classid-Location-16" class="classGroup" transform="translate(1429.5625,272.8125 )"><rect x="0" y="0" width="50.15625" height="30" class=" "></rect><text y="15" x="0"><tspan class="title" x="5">Location</tspan></text><line x1="0" y1="21" y2="21" x2="50.15625"></line><text x="5" y="31" fill="white" class="classText"></text><line x1="0" y1="26" y2="26" x2="50.15625"></line><text x="5" y="41" fill="white" class="classText"></text></g><g id="classid-DriverLicense-17" class="classGroup" transform="translate(1107.6484375,464.9375 )"><rect x="0" y="0" width="74.3125" height="30" class=" "></rect><text y="15" x="0"><tspan class="title" x="5">DriverLicense</tspan></text><line x1="0" y1="21" y2="21" x2="74.3125"></line><text x="5" y="31" fill="white" class="classText"></text><line x1="0" y1="26" y2="26" x2="74.3125"></line><text x="5" y="41" fill="white" class="classText"></text></g><g id="classid-DriverLicenseCardIdentification-18" class="classGroup" transform="translate(1065.4765625,565.5 )"><rect x="0" y="0" width="158.65625" height="41.0625" class=" "></rect><text y="15" x="0"><tspan class="title" x="5">DriverLicenseCardIdentification</tspan></text><line x1="0" y1="21" y2="21" x2="158.65625"></line><text x="5" y="31" fill="white" class="classText"><tspan x="5">+String IdentificationID</tspan></text><line x1="0" y1="37.0625" y2="37.0625" x2="158.65625"></line><text x="5" y="52.0625" fill="white" class="classText"></text></g><g id="classid-ContactInformation-19" class="classGroup" transform="translate(1085.890625,666.5625 )"><rect x="0" y="0" width="117.828125" height="41.0625" class=" "></rect><text y="15" x="0"><tspan class="title" x="13.5078125">ContactInformation</tspan></text><line x1="0" y1="21" y2="21" x2="117.828125"></line><text x="5" y="31" fill="white" class="classText"><tspan x="5">+String ContactEmailID</tspan></text><line x1="0" y1="37.0625" y2="37.0625" x2="117.828125"></line><text x="5" y="52.0625" fill="white" class="classText"></text></g><g id="classid-Location2DGeospatialCoordinate-20" class="classGroup" transform="translate(1291.67578125,368.84375 )"><rect x="0" y="0" width="162.671875" height="30.0625" class=" "></rect><text y="15" x="0"><tspan class="title" x="5">Location2DGeospatialCoordinate</tspan></text><line x1="0" y1="21.0625" y2="21.0625" x2="162.671875"></line><text x="5" y="31.0625" fill="white" class="classText"></text><line x1="0" y1="26.0625" y2="26.0625" x2="162.671875"></line><text x="5" y="41.0625" fill="white" class="classText"></text></g><g id="classid-GeographicCoordinateLatitude-21" class="classGroup" transform="translate(1231.9609375,454.40625 )"><rect x="0" y="0" width="153.265625" height="51.0625" class=" "></rect><text y="15" x="0"><tspan class="title" x="5">GeographicCoordinateLatitude</tspan></text><line x1="0" y1="21.0625" y2="21.0625" x2="153.265625"></line><text x="5" y="31.0625" fill="white" class="classText"><tspan x="5">+Number LatitudeDegreeValue</tspan><tspan x="5" dy="10">+Number LatitudeMinuteValue</tspan></text><line x1="0" y1="47.0625" y2="47.0625" x2="153.265625"></line><text x="5" y="62.0625" fill="white" class="classText"></text></g><g id="classid-GeographicCoordinateLongitude-22" class="classGroup" transform="translate(1435.2265625,454.375 )"><rect x="0" y="0" width="160.5625" height="51.125" class=" "></rect><text y="15" x="0"><tspan class="title" x="5">GeographicCoordinateLongitude</tspan></text><line x1="0" y1="21.0625" y2="21.0625" x2="160.5625"></line><text x="5" y="31.0625" fill="white" class="classText"><tspan x="5">+Number LongitudeDegreeValue</tspan><tspan x="5" dy="10">+Number LongitudeMinuteValue</tspan></text><line x1="0" y1="47.125" y2="47.125" x2="160.5625"></line><text x="5" y="62.125" fill="white" class="classText"></text></g><g id="classid-LocationGeospatialPoint-23" class="classGroup" transform="translate(1629.90625,368.84375 )"><rect x="0" y="0" width="123.328125" height="30.0625" class=" "></rect><text y="15" x="0"><tspan class="title" x="5">LocationGeospatialPoint</tspan></text><line x1="0" y1="21.0625" y2="21.0625" x2="123.328125"></line><text x="5" y="31.0625" fill="white" class="classText"></text><line x1="0" y1="26.0625" y2="26.0625" x2="123.328125"></line><text x="5" y="41.0625" fill="white" class="classText"></text></g><g id="classid-Point-24" class="classGroup" transform="translate(1662.7265625,459.40625 )"><rect x="0" y="0" width="57.6875" height="41.0625" class=" "></rect><text y="15" x="0"><tspan class="title" x="16.6484375">Point</tspan></text><line x1="0" y1="21" y2="21" x2="57.6875"></line><text x="5" y="31" fill="white" class="classText"><tspan x="5">+String id</tspan></text><line x1="0" y1="37.0625" y2="37.0625" x2="57.6875"></line><text x="5" y="52.0625" fill="white" class="classText"></text></g><g id="classid-pos-25" class="classGroup" transform="translate(1648.25,560.46875 )"><rect x="0" y="0" width="86.640625" height="51.125" class=" "></rect><text y="15" x="0"><tspan class="title" x="35.421875">pos</tspan></text><line x1="0" y1="21.0625" y2="21.0625" x2="86.640625"></line><text x="5" y="31.0625" fill="white" class="classText"><tspan x="5">+String srsName</tspan><tspan x="5" dy="10">+String Value</tspan></text><line x1="0" y1="47.125" y2="47.125" x2="86.640625"></line><text x="5" y="62.125" fill="white" class="classText"></text></g><path d="M552.6484375,110.79311879073593L576.599609375,116.68176565894662C600.55078125,122.5704125271573,648.453125,134.34770626357866,672.404296875,147.83010313178931C696.35546875,161.3125,696.35546875,176.5,696.35546875,191.6875C696.35546875,206.875,696.35546875,222.0625,696.35546875,238.08333333333334C696.35546875,254.10416666666666,696.35546875,270.9583333333333,696.35546875,287.8125C696.35546875,304.6666666666667,696.35546875,321.5208333333333,696.35546875,337.53125C696.35546875,353.5416666666667,696.35546875,368.7083333333333,696.35546875,383.875C696.35546875,399.0416666666667,696.35546875,414.2083333333333,697.5276978394108,427.71875C698.6999269288216,441.2291666666667,701.044385107643,453.0833333333333,702.2166141970539,459.0104166666667L703.3888432864647,464.9375" id="edge0" class="relation" marker-start="url(#aggregationStart)"></path><path d="M552.6484375,107.55148738434752L590.9798177083334,113.98040615362294C629.3111979166666,120.40932492289835,705.9739583333334,133.26716246144917,786.6477864583334,146.78801564341845C867.3216145833334,160.3088688253877,952.0065104166666,174.4927376507754,994.3489583333334,181.58467206346927L1036.69140625,188.67660647616313" id="edge1" class="relation" marker-start="url(#aggregationStart)"></path><path d="M469.6796875,106.35960472735295L421.9954427083333,112.98717060612745C374.3111979166667,119.61473648490197,278.9427083333333,132.86986824245096,231.25846354166666,143.6693091212255C183.57421875,154.46875,183.57421875,162.8125,183.57421875,166.984375L183.57421875,171.15625" id="edge2" class="relation" marker-start="url(#aggregationStart)"></path><path d="M469.6796875,104.81391141701359L401.998046875,111.69909284751132C334.31640625,118.58427427800905,198.953125,132.35463713900452,131.271484375,146.83356856950226C63.58984375,161.3125,63.58984375,176.5,63.58984375,191.6875C63.58984375,206.875,63.58984375,222.0625,64.9151038447672,233.82291666666666C66.2403639395344,245.58333333333334,68.89088412906881,253.91666666666666,70.21614422383601,258.0833333333333L71.54140431860321,262.25" id="edge3" class="relation" marker-start="url(#aggregationStart)"></path><path d="M478.812912877488,115.59375L467.8382346895733,120.68229166666667C456.86355650165865,125.77083333333333,434.9142001258294,135.94791666666666,423.93952193791466,145.21354166666666C412.96484375,154.47916666666666,412.96484375,162.83333333333334,412.96484375,167.01041666666666L412.96484375,171.1875" id="edge4" class="relation" marker-start="url(#aggregationStart)"></path><path d="M543.515212122512,115.59375L554.4898903104266,120.68229166666667C565.4645684983414,125.77083333333333,587.4139248741707,135.94791666666666,598.3886030620853,145.203125C609.36328125,154.45833333333334,609.36328125,162.79166666666666,609.36328125,166.95833333333334L609.36328125,171.125" id="edge5" class="relation" marker-start="url(#aggregationStart)"></path><path d="M688.5360157215698,494.9375L681.4948568513082,500.8645833333333C674.4536979810465,506.7916666666667,660.3713802405233,518.6458333333334,653.3302213702617,528.7395833333334C646.2890625,538.8333333333334,646.2890625,547.1666666666666,646.2890625,551.3333333333334L646.2890625,555.5" id="edge6" class="relation" marker-start="url(#aggregationStart)"></path><path d="M727.23828125,485.4893223176142L755.4557291666666,492.99110193134516C783.6731770833334,500.49288154507616,840.1080729166666,515.496440772538,868.3255208333334,528.8367620529357C896.54296875,542.1770833333334,896.54296875,553.8541666666666,896.54296875,559.6927083333334L896.54296875,565.53125" id="edge7" class="relation" marker-start="url(#aggregationStart)"></path><path d="M268.55859375,198.95521181594228L343.19140625,205.33767651328523C417.82421875,211.72014121062819,567.08984375,224.48507060531406,641.72265625,239.29461863599036C716.35546875,254.10416666666666,716.35546875,270.9583333333333,716.35546875,287.8125C716.35546875,304.6666666666667,716.35546875,321.5208333333333,716.35546875,337.53125C716.35546875,353.5416666666667,716.35546875,368.7083333333333,716.35546875,383.875C716.35546875,399.0416666666667,716.35546875,414.2083333333333,715.1832396605892,427.71875C714.0110105711784,441.2291666666667,711.666552392357,453.0833333333333,710.4943233029461,459.0104166666667L709.3220942135353,464.9375" id="edge8" class="relation" marker-start="url(#aggregationStart)"></path><path d="M183.57421875,212.21875L183.57421875,216.390625C183.57421875,220.5625,183.57421875,228.90625,175.0120148975072,237.24479166666666C166.4498110450144,245.58333333333334,149.32540334002883,253.91666666666666,140.76319948753604,258.0833333333333L132.20099563504326,262.25" id="edge9" class="relation" marker-start="url(#aggregationStart)"></path><path d="M1098.3355136368073,30.0625L1092.7242561556727,34.229166666666664C1087.1129986745382,38.395833333333336,1075.890483712269,46.729166666666664,1070.2792262311345,55.984375C1064.66796875,65.23958333333333,1064.66796875,75.41666666666667,1064.66796875,80.50520833333333L1064.66796875,85.59375" id="edge10" class="relation" marker-start="url(#extensionStart)"></path><path d="M1064.66796875,115.59375L1064.66796875,120.68229166666667C1064.66796875,125.77083333333333,1064.66796875,135.94791666666666,1063.5499989283264,146.13020833333334C1062.432029106653,156.3125,1060.196089463306,166.5,1059.0781196416324,171.59375L1057.9601498199588,176.6875" id="edge11" class="relation" marker-start="url(#extensionStart)"></path><path d="M1138.8207363631927,30.0625L1144.4319938443273,34.229166666666664C1150.0432513254618,38.395833333333336,1161.265766287731,46.729166666666664,1166.8770237688655,55.0625C1172.48828125,63.395833333333336,1172.48828125,71.72916666666667,1172.48828125,75.89583333333333L1172.48828125,80.0625" id="edge12" class="relation" marker-start="url(#aggregationStart)"></path><path d="M1046.2008905606997,206.6875L1043.3256119255832,211.78125C1040.4503332904665,216.875,1034.6997760202332,227.0625,1031.8244973851167,238.08333333333334C1028.94921875,249.10416666666666,1028.94921875,260.9583333333333,1028.94921875,266.8854166666667L1028.94921875,272.8125" id="edge13" class="relation" marker-start="url(#aggregationStart)"></path><path d="M1028.94921875,302.8125L1028.94921875,308.7395833333333C1028.94921875,314.6666666666667,1028.94921875,326.5208333333333,1028.94921875,337.53125C1028.94921875,348.5416666666667,1028.94921875,358.7083333333333,1028.94921875,363.7916666666667L1028.94921875,368.875" id="edge14" class="relation" marker-start="url(#aggregationStart)"></path><path d="M1036.69140625,195.66833659249696L1005.3958333333334,202.5986138270808C974.1002604166666,209.52889106166467,911.5091145833334,223.38944553083232,880.2135416666666,238.7468060987495C848.91796875,254.10416666666666,848.91796875,270.9583333333333,848.91796875,287.8125C848.91796875,304.6666666666667,848.91796875,321.5208333333333,848.91796875,334.1145833333333C848.91796875,346.7083333333333,848.91796875,355.0416666666667,848.91796875,359.2083333333333L848.91796875,363.375" id="edge15" class="relation" marker-start="url(#aggregationStart)"></path><path d="M905.5675223214286,404.375L917.0816592261905,408.5416666666667C928.5957961309523,412.7083333333333,951.6240699404761,421.0416666666667,963.1382068452381,429.375C974.65234375,437.7083333333333,974.65234375,446.0416666666667,974.65234375,450.2083333333333L974.65234375,454.375" id="edge16" class="relation" marker-start="url(#aggregationStart)"></path><path d="M823.5604824862637,404.375L818.4065218635532,408.5416666666667C813.2525612408425,412.7083333333333,802.9446399954213,421.0416666666667,786.8909397893773,431.5957939077025C770.8372395833334,442.1499211487383,749.0377604166666,454.92484229747674,738.1380208333334,461.31230287184593L727.23828125,467.6997634462151" id="edge17" class="relation" marker-start="url(#aggregationStart)"></path><path d="M1072.64453125,193.73528280741849L1136.310546875,200.98773567284874C1199.9765625,208.24018853827897,1327.30859375,222.74509426913949,1390.974609375,235.92463046790309C1454.640625,249.10416666666666,1454.640625,260.9583333333333,1454.640625,266.8854166666667L1454.640625,272.8125" id="edge18" class="relation" marker-start="url(#aggregationStart)"></path><path d="M996.48046875,394.71404619970195L979.17578125,400.490871833085C961.87109375,406.26769746646795,927.26171875,417.82134873323395,882.3880208333334,431.0806299321905C837.5143229166666,444.33991113114706,782.3763020833334,459.3048222622942,754.8072916666666,466.7872778278677L727.23828125,474.26973339344124" id="edge19" class="relation" marker-start="url(#aggregationStart)"></path><path d="M1061.41796875,396.62647510030683L1075.3157552083333,402.08456258358905C1089.2135416666667,407.5426500668712,1117.0091145833333,418.45882503343563,1130.9069010416667,429.84399585005116C1144.8046875,441.2291666666667,1144.8046875,453.0833333333333,1144.8046875,459.0104166666667L1144.8046875,464.9375" id="edge20" class="relation" marker-start="url(#aggregationStart)"></path><path d="M1144.8046875,494.9375L1144.8046875,500.8645833333333C1144.8046875,506.7916666666667,1144.8046875,518.6458333333334,1144.8046875,530.40625C1144.8046875,542.1666666666666,1144.8046875,553.8333333333334,1144.8046875,559.6666666666666L1144.8046875,565.5" id="edge21" class="relation" marker-start="url(#aggregationStart)"></path><path d="M1144.8046875,606.5625L1144.8046875,612.3958333333334C1144.8046875,618.2291666666666,1144.8046875,629.8958333333334,1144.8046875,639.8958333333334C1144.8046875,649.8958333333334,1144.8046875,658.2291666666666,1144.8046875,662.3958333333334L1144.8046875,666.5625" id="edge22" class="relation" marker-start="url(#aggregationStart)"></path><path d="M1430.424385815822,302.8125L1420.8556079715183,308.7395833333333C1411.2868301272147,314.6666666666667,1392.1492744386076,326.5208333333333,1382.5804965943037,337.5260416666667C1373.01171875,348.53125,1373.01171875,358.6875,1373.01171875,363.765625L1373.01171875,368.84375" id="edge23" class="relation" marker-start="url(#aggregationStart)"></path><path d="M1351.7307826450892,398.90625L1344.541277204241,403.984375C1337.351771763393,409.0625,1322.9727608816963,419.21875,1315.783255440848,428.46875C1308.59375,437.71875,1308.59375,446.0625,1308.59375,450.234375L1308.59375,454.40625" id="edge24" class="relation" marker-start="url(#aggregationStart)"></path><path d="M1420.0863211495537,398.90625L1435.9899030412946,403.984375C1451.8934849330356,409.0625,1483.700648716518,419.21875,1499.6042306082588,428.4635416666667C1515.5078125,437.7083333333333,1515.5078125,446.0416666666667,1515.5078125,450.2083333333333L1515.5078125,454.375" id="edge25" class="relation" marker-start="url(#aggregationStart)"></path><path d="M1479.71875,293.1643523098229L1515.02734375,300.69946025818575C1550.3359375,308.2345682065486,1620.953125,323.3047841032743,1656.26171875,335.91801705163715C1691.5703125,348.53125,1691.5703125,358.6875,1691.5703125,363.765625L1691.5703125,368.84375" id="edge26" class="relation" marker-start="url(#aggregationStart)"></path><path d="M1691.5703125,398.90625L1691.5703125,403.984375C1691.5703125,409.0625,1691.5703125,419.21875,1691.5703125,429.3020833333333C1691.5703125,439.3854166666667,1691.5703125,449.3958333333333,1691.5703125,454.4010416666667L1691.5703125,459.40625" id="edge27" class="relation" marker-start="url(#aggregationStart)"></path><path d="M1691.5703125,500.46875L1691.5703125,505.4739583333333C1691.5703125,510.4791666666667,1691.5703125,520.4895833333334,1691.5703125,530.4895833333334C1691.5703125,540.4895833333334,1691.5703125,550.4791666666666,1691.5703125,555.4739583333334L1691.5703125,560.46875" id="edge28" class="relation" marker-start="url(#dependencyStart)"></path></svg>