<?xml version="1.0" encoding="UTF-8" standalone="no"?><svg xmlns="http://www.w3.org/2000/svg" xmlns:xlink="http://www.w3.org/1999/xlink" contentScriptType="application/ecmascript" contentStyleType="text/css" height="984px" preserveAspectRatio="none" style="width:1546px;height:984px;background:#FFFFFF;" version="1.1" viewBox="0 0 1546 984" width="1546px" zoomAndPan="magnify"><defs><filter height="300%" id="f1sx6ve0fye6pa" width="300%" x="-1" y="-1"><feGaussianBlur result="blurOut" stdDeviation="2.0"/><feColorMatrix in="blurOut" result="blurOut2" type="matrix" values="0 0 0 0 0 0 0 0 0 0 0 0 0 0 0 0 0 0 .4 0"/><feOffset dx="4.0" dy="4.0" in="blurOut2" result="blurOut3"/><feBlend in="SourceGraphic" in2="blurOut3" mode="normal"/></filter></defs><g><!--MD5=[0ca52150d58ea9226726bc176f1d20cf]
class CrashDriverInfo--><rect codeLine="9" fill="#FFFFFF" filter="url(#f1sx6ve0fye6pa)" height="48" id="CrashDriverInfo" style="stroke:#000000;stroke-width:1.5;" width="121" x="497.6769" y="122"/><ellipse cx="512.6769" cy="138" fill="#ADD1B2" rx="11" ry="11" style="stroke:#000000;stroke-width:1.0;"/><path d="M515.15,144.1431 Q514.569,144.4419 513.9298,144.5913 Q513.2907,144.7407 512.5851,144.7407 Q510.0783,144.7407 508.7584,143.0889 Q507.4386,141.437 507.4386,138.3159 Q507.4386,135.1865 508.7584,133.5347 Q510.0783,131.8828 512.5851,131.8828 Q513.2907,131.8828 513.9381,132.0322 Q514.5856,132.1816 515.15,132.4805 L515.15,135.2031 Q514.5192,134.6221 513.9257,134.3523 Q513.3322,134.0825 512.7013,134.0825 Q511.3566,134.0825 510.6718,135.1492 Q509.987,136.2158 509.987,138.3159 Q509.987,140.4077 510.6718,141.4744 Q511.3566,142.541 512.7013,142.541 Q513.3322,142.541 513.9257,142.2712 Q514.5192,142.0015 515.15,141.4204 Z " fill="#000000"/><text fill="#000000" font-family="sans-serif" font-size="12" lengthAdjust="spacing" textLength="89" x="526.6769" y="142.5352">CrashDriverInfo</text><line style="stroke:#000000;stroke-width:1.5;" x1="498.6769" x2="617.6769" y1="154" y2="154"/><line style="stroke:#000000;stroke-width:1.5;" x1="498.6769" x2="617.6769" y1="162" y2="162"/><!--MD5=[09ce52be0ee7de43c61b6e2d59bf108b]
class Person--><rect codeLine="20" fill="#FFFFFF" filter="url(#f1sx6ve0fye6pa)" height="48" id="Person" style="stroke:#000000;stroke-width:1.5;" width="71" x="278.6769" y="640"/><ellipse cx="293.6769" cy="656" fill="#ADD1B2" rx="11" ry="11" style="stroke:#000000;stroke-width:1.0;"/><path d="M296.15,662.1431 Q295.569,662.4419 294.9298,662.5913 Q294.2907,662.7407 293.5851,662.7407 Q291.0783,662.7407 289.7584,661.0889 Q288.4386,659.437 288.4386,656.3159 Q288.4386,653.1865 289.7584,651.5347 Q291.0783,649.8828 293.5851,649.8828 Q294.2907,649.8828 294.9381,650.0322 Q295.5856,650.1816 296.15,650.4805 L296.15,653.2031 Q295.5192,652.6221 294.9257,652.3523 Q294.3322,652.0825 293.7013,652.0825 Q292.3566,652.0825 291.6718,653.1492 Q290.987,654.2158 290.987,656.3159 Q290.987,658.4077 291.6718,659.4744 Q292.3566,660.541 293.7013,660.541 Q294.3322,660.541 294.9257,660.2712 Q295.5192,660.0015 296.15,659.4204 Z " fill="#000000"/><text fill="#000000" font-family="sans-serif" font-size="12" lengthAdjust="spacing" textLength="39" x="307.6769" y="660.5352">Person</text><line style="stroke:#000000;stroke-width:1.5;" x1="279.6769" x2="348.6769" y1="672" y2="672"/><line style="stroke:#000000;stroke-width:1.5;" x1="279.6769" x2="348.6769" y1="680" y2="680"/><!--MD5=[4bf124702e26e8742700d64b46e56cfa]
class Crash--><rect codeLine="60" fill="#FFFFFF" filter="url(#f1sx6ve0fye6pa)" height="48" id="Crash" style="stroke:#000000;stroke-width:1.5;" width="65" x="868.6769" y="244"/><ellipse cx="883.6769" cy="260" fill="#ADD1B2" rx="11" ry="11" style="stroke:#000000;stroke-width:1.0;"/><path d="M886.15,266.1431 Q885.569,266.4419 884.9298,266.5913 Q884.2907,266.7407 883.5851,266.7407 Q881.0783,266.7407 879.7584,265.0889 Q878.4386,263.437 878.4386,260.3159 Q878.4386,257.1865 879.7584,255.5347 Q881.0783,253.8828 883.5851,253.8828 Q884.2907,253.8828 884.9381,254.0322 Q885.5856,254.1816 886.15,254.4805 L886.15,257.2031 Q885.5192,256.6221 884.9257,256.3523 Q884.3322,256.0825 883.7013,256.0825 Q882.3566,256.0825 881.6718,257.1492 Q880.987,258.2158 880.987,260.3159 Q880.987,262.4077 881.6718,263.4744 Q882.3566,264.541 883.7013,264.541 Q884.3322,264.541 884.9257,264.2712 Q885.5192,264.0015 886.15,263.4204 Z " fill="#000000"/><text fill="#000000" font-family="sans-serif" font-size="12" lengthAdjust="spacing" textLength="33" x="897.6769" y="264.5352">Crash</text><line style="stroke:#000000;stroke-width:1.5;" x1="869.6769" x2="932.6769" y1="276" y2="276"/><line style="stroke:#000000;stroke-width:1.5;" x1="869.6769" x2="932.6769" y1="284" y2="284"/><!--MD5=[9dca03ec17ce011482ca677557bb1826]
class PersonChargeAssociation--><rect codeLine="36" fill="#FFFFFF" filter="url(#f1sx6ve0fye6pa)" height="60.9551" id="PersonChargeAssociation" style="stroke:#000000;stroke-width:1.5;" width="203" x="134.6767" y="237.5"/><ellipse cx="161.8267" cy="253.5" fill="#ADD1B2" rx="11" ry="11" style="stroke:#000000;stroke-width:1.0;"/><path d="M164.2998,259.6431 Q163.7188,259.9419 163.0796,260.0913 Q162.4405,260.2407 161.7349,260.2407 Q159.2281,260.2407 157.9082,258.5889 Q156.5884,256.937 156.5884,253.8159 Q156.5884,250.6865 157.9082,249.0347 Q159.2281,247.3828 161.7349,247.3828 Q162.4405,247.3828 163.0879,247.5322 Q163.7354,247.6816 164.2998,247.9805 L164.2998,250.7031 Q163.669,250.1221 163.0755,249.8523 Q162.482,249.5825 161.8511,249.5825 Q160.5064,249.5825 159.8216,250.6492 Q159.1368,251.7158 159.1368,253.8159 Q159.1368,255.9077 159.8216,256.9744 Q160.5064,258.041 161.8511,258.041 Q162.482,258.041 163.0755,257.7712 Q163.669,257.5015 164.2998,256.9204 Z " fill="#000000"/><text fill="#000000" font-family="sans-serif" font-size="12" lengthAdjust="spacing" textLength="144" x="178.5267" y="258.0352">PersonChargeAssociation</text><line style="stroke:#000000;stroke-width:1.5;" x1="135.6767" x2="336.6767" y1="269.5" y2="269.5"/><ellipse cx="145.6767" cy="280.5" fill="none" rx="3" ry="3" style="stroke:#038048;stroke-width:1.0;"/><text fill="#000000" font-family="sans-serif" font-size="11" lengthAdjust="spacing" textLength="177" x="154.6767" y="284.1348">Boolean JuvenileAsAdultIndicator</text><line style="stroke:#000000;stroke-width:1.5;" x1="135.6767" x2="336.6767" y1="290.4551" y2="290.4551"/><!--MD5=[b8a8351f4de83c8eb85722e96e223bf9]
class Charge--><rect codeLine="42" fill="#FFFFFF" filter="url(#f1sx6ve0fye6pa)" height="73.9102" id="Charge" style="stroke:#000000;stroke-width:1.5;" width="193" x="289.6769" y="359"/><ellipse cx="361.4269" cy="375" fill="#ADD1B2" rx="11" ry="11" style="stroke:#000000;stroke-width:1.0;"/><path d="M363.9,381.1431 Q363.319,381.4419 362.6798,381.5913 Q362.0407,381.7407 361.3351,381.7407 Q358.8283,381.7407 357.5084,380.0889 Q356.1886,378.437 356.1886,375.3159 Q356.1886,372.1865 357.5084,370.5347 Q358.8283,368.8828 361.3351,368.8828 Q362.0407,368.8828 362.6881,369.0322 Q363.3356,369.1816 363.9,369.4805 L363.9,372.2031 Q363.2692,371.6221 362.6757,371.3523 Q362.0822,371.0825 361.4513,371.0825 Q360.1066,371.0825 359.4218,372.1492 Q358.737,373.2158 358.737,375.3159 Q358.737,377.4077 359.4218,378.4744 Q360.1066,379.541 361.4513,379.541 Q362.0822,379.541 362.6757,379.2712 Q363.2692,379.0015 363.9,378.4204 Z " fill="#000000"/><text fill="#000000" font-family="sans-serif" font-size="12" lengthAdjust="spacing" textLength="41" x="381.9269" y="379.5352">Charge</text><line style="stroke:#000000;stroke-width:1.5;" x1="290.6769" x2="481.6769" y1="391" y2="391"/><ellipse cx="300.6769" cy="402" fill="none" rx="3" ry="3" style="stroke:#038048;stroke-width:1.0;"/><text fill="#000000" font-family="sans-serif" font-size="11" lengthAdjust="spacing" textLength="160" x="309.6769" y="405.6348">String ChargeDescriptionText</text><ellipse cx="300.6769" cy="414.9551" fill="none" rx="3" ry="3" style="stroke:#038048;stroke-width:1.0;"/><text fill="#000000" font-family="sans-serif" font-size="11" lengthAdjust="spacing" textLength="167" x="309.6769" y="418.5898">Boolean ChargeFelonyIndicator</text><line style="stroke:#000000;stroke-width:1.5;" x1="290.6769" x2="481.6769" y1="424.9102" y2="424.9102"/><!--MD5=[7d2c4ae7970c32f414f93e7b18676929]
class Metadata--><rect codeLine="47" fill="#FFFFFF" filter="url(#f1sx6ve0fye6pa)" height="60.9551" id="Metadata" style="stroke:#000000;stroke-width:1.5;" width="227" x="444.6769" y="237.5"/><ellipse cx="526.9269" cy="253.5" fill="#ADD1B2" rx="11" ry="11" style="stroke:#000000;stroke-width:1.0;"/><path d="M529.4,259.6431 Q528.819,259.9419 528.1798,260.0913 Q527.5407,260.2407 526.8351,260.2407 Q524.3283,260.2407 523.0084,258.5889 Q521.6886,256.937 521.6886,253.8159 Q521.6886,250.6865 523.0084,249.0347 Q524.3283,247.3828 526.8351,247.3828 Q527.5407,247.3828 528.1881,247.5322 Q528.8356,247.6816 529.4,247.9805 L529.4,250.7031 Q528.7692,250.1221 528.1757,249.8523 Q527.5822,249.5825 526.9513,249.5825 Q525.6066,249.5825 524.9218,250.6492 Q524.237,251.7158 524.237,253.8159 Q524.237,255.9077 524.9218,256.9744 Q525.6066,258.041 526.9513,258.041 Q527.5822,258.041 528.1757,257.7712 Q528.7692,257.5015 529.4,256.9204 Z " fill="#000000"/><text fill="#000000" font-family="sans-serif" font-size="12" lengthAdjust="spacing" textLength="54" x="547.4269" y="258.0352">Metadata</text><line style="stroke:#000000;stroke-width:1.5;" x1="445.6769" x2="670.6769" y1="269.5" y2="269.5"/><ellipse cx="455.6769" cy="280.5" fill="none" rx="3" ry="3" style="stroke:#038048;stroke-width:1.0;"/><text fill="#000000" font-family="sans-serif" font-size="11" lengthAdjust="spacing" textLength="201" x="464.6769" y="284.1348">Boolean CriminalInformationIndicator</text><line style="stroke:#000000;stroke-width:1.5;" x1="445.6769" x2="670.6769" y1="290.4551" y2="290.4551"/><!--MD5=[6bb9af735327eaee89eff0a188106a74]
class PrivacyMetadata--><rect codeLine="51" fill="#FFFFFF" filter="url(#f1sx6ve0fye6pa)" height="60.9551" id="PrivacyMetadata" style="stroke:#000000;stroke-width:1.5;" width="127" x="706.6769" y="237.5"/><ellipse cx="722.1269" cy="253.5" fill="#ADD1B2" rx="11" ry="11" style="stroke:#000000;stroke-width:1.0;"/><path d="M724.6,259.6431 Q724.019,259.9419 723.3798,260.0913 Q722.7407,260.2407 722.0351,260.2407 Q719.5283,260.2407 718.2084,258.5889 Q716.8886,256.937 716.8886,253.8159 Q716.8886,250.6865 718.2084,249.0347 Q719.5283,247.3828 722.0351,247.3828 Q722.7407,247.3828 723.3881,247.5322 Q724.0356,247.6816 724.6,247.9805 L724.6,250.7031 Q723.9692,250.1221 723.3757,249.8523 Q722.7822,249.5825 722.1513,249.5825 Q720.8066,249.5825 720.1218,250.6492 Q719.437,251.7158 719.437,253.8159 Q719.437,255.9077 720.1218,256.9744 Q720.8066,258.041 722.1513,258.041 Q722.7822,258.041 723.3757,257.7712 Q723.9692,257.5015 724.6,256.9204 Z " fill="#000000"/><text fill="#000000" font-family="sans-serif" font-size="12" lengthAdjust="spacing" textLength="94" x="736.2269" y="258.0352">PrivacyMetadata</text><line style="stroke:#000000;stroke-width:1.5;" x1="707.6769" x2="832.6769" y1="269.5" y2="269.5"/><ellipse cx="717.6769" cy="280.5" fill="none" rx="3" ry="3" style="stroke:#038048;stroke-width:1.0;"/><text fill="#000000" font-family="sans-serif" font-size="11" lengthAdjust="spacing" textLength="101" x="726.6769" y="284.1348">String PrivacyCode</text><line style="stroke:#000000;stroke-width:1.5;" x1="707.6769" x2="832.6769" y1="290.4551" y2="290.4551"/><!--MD5=[cedd7d1f3986db0d22ffdda3d8cf74b8]
class PersonName--><rect codeLine="26" fill="#FFFFFF" filter="url(#f1sx6ve0fye6pa)" height="86.8652" id="PersonName" style="stroke:#000000;stroke-width:1.5;" width="163" x="143.6767" y="761.5"/><ellipse cx="184.7767" cy="777.5" fill="#ADD1B2" rx="11" ry="11" style="stroke:#000000;stroke-width:1.0;"/><path d="M187.2498,783.6431 Q186.6688,783.9419 186.0296,784.0913 Q185.3905,784.2407 184.6849,784.2407 Q182.1781,784.2407 180.8582,782.5889 Q179.5384,780.937 179.5384,777.8159 Q179.5384,774.6865 180.8582,773.0347 Q182.1781,771.3828 184.6849,771.3828 Q185.3905,771.3828 186.0379,771.5322 Q186.6854,771.6816 187.2498,771.9805 L187.2498,774.7031 Q186.619,774.1221 186.0255,773.8523 Q185.432,773.5825 184.8011,773.5825 Q183.4564,773.5825 182.7716,774.6492 Q182.0868,775.7158 182.0868,777.8159 Q182.0868,779.9077 182.7716,780.9744 Q183.4564,782.041 184.8011,782.041 Q185.432,782.041 186.0255,781.7712 Q186.619,781.5015 187.2498,780.9204 Z " fill="#000000"/><text fill="#000000" font-family="sans-serif" font-size="12" lengthAdjust="spacing" textLength="73" x="204.5767" y="782.0352">PersonName</text><line style="stroke:#000000;stroke-width:1.5;" x1="144.6767" x2="305.6767" y1="793.5" y2="793.5"/><ellipse cx="154.6767" cy="804.5" fill="none" rx="3" ry="3" style="stroke:#038048;stroke-width:1.0;"/><text fill="#000000" font-family="sans-serif" font-size="11" lengthAdjust="spacing" textLength="132" x="163.6767" y="808.1348">String PersonGivenName</text><ellipse cx="154.6767" cy="817.4551" fill="none" rx="3" ry="3" style="stroke:#038048;stroke-width:1.0;"/><text fill="#000000" font-family="sans-serif" font-size="11" lengthAdjust="spacing" textLength="137" x="163.6767" y="821.0898">String PersonMiddleName</text><ellipse cx="154.6767" cy="830.4102" fill="none" rx="3" ry="3" style="stroke:#038048;stroke-width:1.0;"/><text fill="#000000" font-family="sans-serif" font-size="11" lengthAdjust="spacing" textLength="124" x="163.6767" y="834.0449">String PersonLastName</text><line style="stroke:#000000;stroke-width:1.5;" x1="144.6767" x2="305.6767" y1="840.3652" y2="840.3652"/><!--MD5=[ec2dfac1cefc2697463488f5dd0c38b2]
class PersonBirthDate--><rect codeLine="32" fill="#FFFFFF" filter="url(#f1sx6ve0fye6pa)" height="60.9551" id="PersonBirthDate" style="stroke:#000000;stroke-width:1.5;" width="124" x="341.9269" y="774.5"/><ellipse cx="356.9269" cy="790.5" fill="#ADD1B2" rx="11" ry="11" style="stroke:#000000;stroke-width:1.0;"/><path d="M359.4,796.6431 Q358.819,796.9419 358.1798,797.0913 Q357.5407,797.2407 356.8351,797.2407 Q354.3283,797.2407 353.0084,795.5889 Q351.6886,793.937 351.6886,790.8159 Q351.6886,787.6865 353.0084,786.0347 Q354.3283,784.3828 356.8351,784.3828 Q357.5407,784.3828 358.1881,784.5322 Q358.8356,784.6816 359.4,784.9805 L359.4,787.7031 Q358.7692,787.1221 358.1757,786.8523 Q357.5822,786.5825 356.9513,786.5825 Q355.6066,786.5825 354.9218,787.6492 Q354.237,788.7158 354.237,790.8159 Q354.237,792.9077 354.9218,793.9744 Q355.6066,795.041 356.9513,795.041 Q357.5822,795.041 358.1757,794.7712 Q358.7692,794.5015 359.4,793.9204 Z " fill="#000000"/><text fill="#000000" font-family="sans-serif" font-size="12" lengthAdjust="spacing" textLength="92" x="370.9269" y="795.0352">PersonBirthDate</text><line style="stroke:#000000;stroke-width:1.5;" x1="342.9269" x2="464.9269" y1="806.5" y2="806.5"/><ellipse cx="352.9269" cy="817.5" fill="none" rx="3" ry="3" style="stroke:#038048;stroke-width:1.0;"/><text fill="#000000" font-family="sans-serif" font-size="11" lengthAdjust="spacing" textLength="51" x="361.9269" y="821.1348">Date Date</text><line style="stroke:#000000;stroke-width:1.5;" x1="342.9269" x2="464.9269" y1="827.4551" y2="827.4551"/><!--MD5=[c881b25adf3665c6568c9693d41a70f3]
class Activity--><rect codeLine="88" fill="#FFFFFF" filter="url(#f1sx6ve0fye6pa)" height="48" id="Activity" style="stroke:#000000;stroke-width:1.5;" width="72" x="515.9269" y="7"/><ellipse cx="530.9269" cy="23" fill="#ADD1B2" rx="11" ry="11" style="stroke:#000000;stroke-width:1.0;"/><path d="M533.4,29.1431 Q532.819,29.4419 532.1798,29.5913 Q531.5407,29.7407 530.8351,29.7407 Q528.3283,29.7407 527.0084,28.0889 Q525.6886,26.437 525.6886,23.3159 Q525.6886,20.1865 527.0084,18.5347 Q528.3283,16.8828 530.8351,16.8828 Q531.5407,16.8828 532.1881,17.0322 Q532.8356,17.1816 533.4,17.4805 L533.4,20.2031 Q532.7692,19.6221 532.1757,19.3523 Q531.5822,19.0825 530.9513,19.0825 Q529.6066,19.0825 528.9218,20.1492 Q528.237,21.2158 528.237,23.3159 Q528.237,25.4077 528.9218,26.4744 Q529.6066,27.541 530.9513,27.541 Q531.5822,27.541 532.1757,27.2712 Q532.7692,27.0015 533.4,26.4204 Z " fill="#000000"/><text fill="#000000" font-family="sans-serif" font-size="12" lengthAdjust="spacing" textLength="40" x="544.9269" y="27.5352">Activity</text><line style="stroke:#000000;stroke-width:1.5;" x1="516.9269" x2="586.9269" y1="39" y2="39"/><line style="stroke:#000000;stroke-width:1.5;" x1="516.9269" x2="586.9269" y1="47" y2="47"/><!--MD5=[a2a32eb8740a34a1508bfb05a6833e01]
class Incident--><rect codeLine="85" fill="#FFFFFF" filter="url(#f1sx6ve0fye6pa)" height="48" id="Incident" style="stroke:#000000;stroke-width:1.5;" width="77" x="757.6769" y="122"/><ellipse cx="772.6769" cy="138" fill="#ADD1B2" rx="11" ry="11" style="stroke:#000000;stroke-width:1.0;"/><path d="M775.15,144.1431 Q774.569,144.4419 773.9298,144.5913 Q773.2907,144.7407 772.5851,144.7407 Q770.0783,144.7407 768.7584,143.0889 Q767.4386,141.437 767.4386,138.3159 Q767.4386,135.1865 768.7584,133.5347 Q770.0783,131.8828 772.5851,131.8828 Q773.2907,131.8828 773.9381,132.0322 Q774.5856,132.1816 775.15,132.4805 L775.15,135.2031 Q774.5192,134.6221 773.9257,134.3523 Q773.3322,134.0825 772.7013,134.0825 Q771.3566,134.0825 770.6718,135.1492 Q769.987,136.2158 769.987,138.3159 Q769.987,140.4077 770.6718,141.4744 Q771.3566,142.541 772.7013,142.541 Q773.3322,142.541 773.9257,142.2712 Q774.5192,142.0015 775.15,141.4204 Z " fill="#000000"/><text fill="#000000" font-family="sans-serif" font-size="12" lengthAdjust="spacing" textLength="45" x="786.6769" y="142.5352">Incident</text><line style="stroke:#000000;stroke-width:1.5;" x1="758.6769" x2="833.6769" y1="154" y2="154"/><line style="stroke:#000000;stroke-width:1.5;" x1="758.6769" x2="833.6769" y1="162" y2="162"/><!--MD5=[9279b3c725445f06cad4eebf38049ac2]
class ActivityDate--><rect codeLine="91" fill="#FFFFFF" filter="url(#f1sx6ve0fye6pa)" height="60.9551" id="ActivityDate" style="stroke:#000000;stroke-width:1.5;" width="99" x="363.6769" y="115.5"/><ellipse cx="378.6769" cy="131.5" fill="#ADD1B2" rx="11" ry="11" style="stroke:#000000;stroke-width:1.0;"/><path d="M381.15,137.6431 Q380.569,137.9419 379.9298,138.0913 Q379.2907,138.2407 378.5851,138.2407 Q376.0783,138.2407 374.7584,136.5889 Q373.4386,134.937 373.4386,131.8159 Q373.4386,128.6865 374.7584,127.0347 Q376.0783,125.3828 378.5851,125.3828 Q379.2907,125.3828 379.9381,125.5322 Q380.5856,125.6816 381.15,125.9805 L381.15,128.7031 Q380.5192,128.1221 379.9257,127.8523 Q379.3322,127.5825 378.7013,127.5825 Q377.3566,127.5825 376.6718,128.6492 Q375.987,129.7158 375.987,131.8159 Q375.987,133.9077 376.6718,134.9744 Q377.3566,136.041 378.7013,136.041 Q379.3322,136.041 379.9257,135.7712 Q380.5192,135.5015 381.15,134.9204 Z " fill="#000000"/><text fill="#000000" font-family="sans-serif" font-size="12" lengthAdjust="spacing" textLength="67" x="392.6769" y="136.0352">ActivityDate</text><line style="stroke:#000000;stroke-width:1.5;" x1="364.6769" x2="461.6769" y1="147.5" y2="147.5"/><ellipse cx="374.6769" cy="158.5" fill="none" rx="3" ry="3" style="stroke:#038048;stroke-width:1.0;"/><text fill="#000000" font-family="sans-serif" font-size="11" lengthAdjust="spacing" textLength="51" x="383.6769" y="162.1348">Date Date</text><line style="stroke:#000000;stroke-width:1.5;" x1="364.6769" x2="461.6769" y1="168.4551" y2="168.4551"/><!--MD5=[680836abe462d552d920d2d1701723e1]
class CrashVehicle--><rect fill="#FFFFFF" filter="url(#f1sx6ve0fye6pa)" height="48" id="CrashVehicle" style="stroke:#000000;stroke-width:1.5;" width="106" x="791.9269" y="372"/><ellipse cx="806.9269" cy="388" fill="#ADD1B2" rx="11" ry="11" style="stroke:#000000;stroke-width:1.0;"/><path d="M809.4,394.1431 Q808.819,394.4419 808.1798,394.5913 Q807.5407,394.7407 806.8351,394.7407 Q804.3283,394.7407 803.0084,393.0889 Q801.6886,391.437 801.6886,388.3159 Q801.6886,385.1865 803.0084,383.5347 Q804.3283,381.8828 806.8351,381.8828 Q807.5407,381.8828 808.1881,382.0322 Q808.8356,382.1816 809.4,382.4805 L809.4,385.2031 Q808.7692,384.6221 808.1757,384.3523 Q807.5822,384.0825 806.9513,384.0825 Q805.6066,384.0825 804.9218,385.1492 Q804.237,386.2158 804.237,388.3159 Q804.237,390.4077 804.9218,391.4744 Q805.6066,392.541 806.9513,392.541 Q807.5822,392.541 808.1757,392.2712 Q808.7692,392.0015 809.4,391.4204 Z " fill="#000000"/><text fill="#000000" font-family="sans-serif" font-size="12" lengthAdjust="spacing" textLength="74" x="820.9269" y="392.5352">CrashVehicle</text><line style="stroke:#000000;stroke-width:1.5;" x1="792.9269" x2="896.9269" y1="404" y2="404"/><line style="stroke:#000000;stroke-width:1.5;" x1="792.9269" x2="896.9269" y1="412" y2="412"/><!--MD5=[8c39359234e234240a191058ee6dcfe5]
class CrashDriver--><rect codeLine="74" fill="#FFFFFF" filter="url(#f1sx6ve0fye6pa)" height="48" id="CrashDriver" style="stroke:#000000;stroke-width:1.5;" width="100" x="749.9269" y="506"/><ellipse cx="764.9269" cy="522" fill="#ADD1B2" rx="11" ry="11" style="stroke:#000000;stroke-width:1.0;"/><path d="M767.4,528.1431 Q766.819,528.4419 766.1798,528.5913 Q765.5407,528.7407 764.8351,528.7407 Q762.3283,528.7407 761.0084,527.0889 Q759.6886,525.437 759.6886,522.3159 Q759.6886,519.1865 761.0084,517.5347 Q762.3283,515.8828 764.8351,515.8828 Q765.5407,515.8828 766.1881,516.0322 Q766.8356,516.1816 767.4,516.4805 L767.4,519.2031 Q766.7692,518.6221 766.1757,518.3523 Q765.5822,518.0825 764.9513,518.0825 Q763.6066,518.0825 762.9218,519.1492 Q762.237,520.2158 762.237,522.3159 Q762.237,524.4077 762.9218,525.4744 Q763.6066,526.541 764.9513,526.541 Q765.5822,526.541 766.1757,526.2712 Q766.7692,526.0015 767.4,525.4204 Z " fill="#000000"/><text fill="#000000" font-family="sans-serif" font-size="12" lengthAdjust="spacing" textLength="68" x="778.9269" y="526.5352">CrashDriver</text><line style="stroke:#000000;stroke-width:1.5;" x1="750.9269" x2="848.9269" y1="538" y2="538"/><line style="stroke:#000000;stroke-width:1.5;" x1="750.9269" x2="848.9269" y1="546" y2="546"/><!--MD5=[29c8db4e642d991ef28a2b68cb3567ba]
class CrashPerson--><rect codeLine="77" fill="#FFFFFF" filter="url(#f1sx6ve0fye6pa)" height="60.9551" id="CrashPerson" style="stroke:#000000;stroke-width:1.5;" width="235" x="517.6769" y="365.5"/><ellipse cx="594.9269" cy="381.5" fill="#ADD1B2" rx="11" ry="11" style="stroke:#000000;stroke-width:1.0;"/><path d="M597.4,387.6431 Q596.819,387.9419 596.1798,388.0913 Q595.5407,388.2407 594.8351,388.2407 Q592.3283,388.2407 591.0084,386.5889 Q589.6886,384.937 589.6886,381.8159 Q589.6886,378.6865 591.0084,377.0347 Q592.3283,375.3828 594.8351,375.3828 Q595.5407,375.3828 596.1881,375.5322 Q596.8356,375.6816 597.4,375.9805 L597.4,378.7031 Q596.7692,378.1221 596.1757,377.8523 Q595.5822,377.5825 594.9513,377.5825 Q593.6066,377.5825 592.9218,378.6492 Q592.237,379.7158 592.237,381.8159 Q592.237,383.9077 592.9218,384.9744 Q593.6066,386.041 594.9513,386.041 Q595.5822,386.041 596.1757,385.7712 Q596.7692,385.5015 597.4,384.9204 Z " fill="#000000"/><text fill="#000000" font-family="sans-serif" font-size="12" lengthAdjust="spacing" textLength="72" x="615.4269" y="386.0352">CrashPerson</text><line style="stroke:#000000;stroke-width:1.5;" x1="518.6769" x2="751.6769" y1="397.5" y2="397.5"/><ellipse cx="528.6769" cy="408.5" fill="none" rx="3" ry="3" style="stroke:#038048;stroke-width:1.0;"/><text fill="#000000" font-family="sans-serif" font-size="11" lengthAdjust="spacing" textLength="209" x="537.6769" y="412.1348">Boolean PersonDefenestrationIndicator</text><line style="stroke:#000000;stroke-width:1.5;" x1="518.6769" x2="751.6769" y1="418.4551" y2="418.4551"/><!--MD5=[91e7d895635beffd37495b5768e3e9fa]
class CrashPersonInjury--><rect codeLine="80" fill="#FFFFFF" filter="url(#f1sx6ve0fye6pa)" height="73.9102" id="CrashPersonInjury" style="stroke:#000000;stroke-width:1.5;" width="178" x="536.9269" y="493"/><ellipse cx="570.8269" cy="509" fill="#ADD1B2" rx="11" ry="11" style="stroke:#000000;stroke-width:1.0;"/><path d="M573.3,515.1431 Q572.719,515.4419 572.0798,515.5913 Q571.4407,515.7407 570.7351,515.7407 Q568.2283,515.7407 566.9084,514.0889 Q565.5886,512.437 565.5886,509.3159 Q565.5886,506.1865 566.9084,504.5347 Q568.2283,502.8828 570.7351,502.8828 Q571.4407,502.8828 572.0881,503.0322 Q572.7356,503.1816 573.3,503.4805 L573.3,506.2031 Q572.6692,505.6221 572.0757,505.3523 Q571.4822,505.0825 570.8513,505.0825 Q569.5066,505.0825 568.8218,506.1492 Q568.137,507.2158 568.137,509.3159 Q568.137,511.4077 568.8218,512.4744 Q569.5066,513.541 570.8513,513.541 Q571.4822,513.541 572.0757,513.2712 Q572.6692,513.0015 573.3,512.4204 Z " fill="#000000"/><text fill="#000000" font-family="sans-serif" font-size="12" lengthAdjust="spacing" textLength="104" x="589.0269" y="513.5352">CrashPersonInjury</text><line style="stroke:#000000;stroke-width:1.5;" x1="537.9269" x2="713.9269" y1="525" y2="525"/><ellipse cx="547.9269" cy="536" fill="none" rx="3" ry="3" style="stroke:#038048;stroke-width:1.0;"/><text fill="#000000" font-family="sans-serif" font-size="11" lengthAdjust="spacing" textLength="152" x="556.9269" y="539.6348">String InjuryDescriptionText</text><ellipse cx="547.9269" cy="548.9551" fill="none" rx="3" ry="3" style="stroke:#038048;stroke-width:1.0;"/><text fill="#000000" font-family="sans-serif" font-size="11" lengthAdjust="spacing" textLength="136" x="556.9269" y="552.5898">String InjurySeverityCode</text><line style="stroke:#000000;stroke-width:1.5;" x1="537.9269" x2="713.9269" y1="558.9102" y2="558.9102"/><!--MD5=[4f1f3706c1a355a8488e154afcaed5df]
class Location--><rect codeLine="116" fill="#FFFFFF" filter="url(#f1sx6ve0fye6pa)" height="48" id="Location" style="stroke:#000000;stroke-width:1.5;" width="79" x="935.6769" y="372"/><ellipse cx="950.6769" cy="388" fill="#ADD1B2" rx="11" ry="11" style="stroke:#000000;stroke-width:1.0;"/><path d="M953.15,394.1431 Q952.569,394.4419 951.9298,394.5913 Q951.2907,394.7407 950.5851,394.7407 Q948.0783,394.7407 946.7584,393.0889 Q945.4386,391.437 945.4386,388.3159 Q945.4386,385.1865 946.7584,383.5347 Q948.0783,381.8828 950.5851,381.8828 Q951.2907,381.8828 951.9381,382.0322 Q952.5856,382.1816 953.15,382.4805 L953.15,385.2031 Q952.5192,384.6221 951.9257,384.3523 Q951.3322,384.0825 950.7013,384.0825 Q949.3566,384.0825 948.6718,385.1492 Q947.987,386.2158 947.987,388.3159 Q947.987,390.4077 948.6718,391.4744 Q949.3566,392.541 950.7013,392.541 Q951.3322,392.541 951.9257,392.2712 Q952.5192,392.0015 953.15,391.4204 Z " fill="#000000"/><text fill="#000000" font-family="sans-serif" font-size="12" lengthAdjust="spacing" textLength="47" x="964.6769" y="392.5352">Location</text><line style="stroke:#000000;stroke-width:1.5;" x1="936.6769" x2="1013.6769" y1="404" y2="404"/><line style="stroke:#000000;stroke-width:1.5;" x1="936.6769" x2="1013.6769" y1="412" y2="412"/><!--MD5=[5999a290c6b468e29c073bd2553f28d1]
class DriverLicense--><rect codeLine="95" fill="#FFFFFF" filter="url(#f1sx6ve0fye6pa)" height="48" id="DriverLicense" style="stroke:#000000;stroke-width:1.5;" width="109" x="743.6769" y="640"/><ellipse cx="758.6769" cy="656" fill="#ADD1B2" rx="11" ry="11" style="stroke:#000000;stroke-width:1.0;"/><path d="M761.15,662.1431 Q760.569,662.4419 759.9298,662.5913 Q759.2907,662.7407 758.5851,662.7407 Q756.0783,662.7407 754.7584,661.0889 Q753.4386,659.437 753.4386,656.3159 Q753.4386,653.1865 754.7584,651.5347 Q756.0783,649.8828 758.5851,649.8828 Q759.2907,649.8828 759.9381,650.0322 Q760.5856,650.1816 761.15,650.4805 L761.15,653.2031 Q760.5192,652.6221 759.9257,652.3523 Q759.3322,652.0825 758.7013,652.0825 Q757.3566,652.0825 756.6718,653.1492 Q755.987,654.2158 755.987,656.3159 Q755.987,658.4077 756.6718,659.4744 Q757.3566,660.541 758.7013,660.541 Q759.3322,660.541 759.9257,660.2712 Q760.5192,660.0015 761.15,659.4204 Z " fill="#000000"/><text fill="#000000" font-family="sans-serif" font-size="12" lengthAdjust="spacing" textLength="77" x="772.6769" y="660.5352">DriverLicense</text><line style="stroke:#000000;stroke-width:1.5;" x1="744.6769" x2="851.6769" y1="672" y2="672"/><line style="stroke:#000000;stroke-width:1.5;" x1="744.6769" x2="851.6769" y1="680" y2="680"/><!--MD5=[5070acae41788f5f6682778e5cb4268b]
class DriverLicenseCardIdentification--><rect codeLine="98" fill="#FFFFFF" filter="url(#f1sx6ve0fye6pa)" height="60.9551" id="DriverLicenseCardIdentification" style="stroke:#000000;stroke-width:1.5;" width="210" x="690.9269" y="774.5"/><ellipse cx="705.9269" cy="790.5" fill="#ADD1B2" rx="11" ry="11" style="stroke:#000000;stroke-width:1.0;"/><path d="M708.4,796.6431 Q707.819,796.9419 707.1798,797.0913 Q706.5407,797.2407 705.8351,797.2407 Q703.3283,797.2407 702.0084,795.5889 Q700.6886,793.937 700.6886,790.8159 Q700.6886,787.6865 702.0084,786.0347 Q703.3283,784.3828 705.8351,784.3828 Q706.5407,784.3828 707.1881,784.5322 Q707.8356,784.6816 708.4,784.9805 L708.4,787.7031 Q707.7692,787.1221 707.1757,786.8523 Q706.5822,786.5825 705.9513,786.5825 Q704.6066,786.5825 703.9218,787.6492 Q703.237,788.7158 703.237,790.8159 Q703.237,792.9077 703.9218,793.9744 Q704.6066,795.041 705.9513,795.041 Q706.5822,795.041 707.1757,794.7712 Q707.7692,794.5015 708.4,793.9204 Z " fill="#000000"/><text fill="#000000" font-family="sans-serif" font-size="12" lengthAdjust="spacing" textLength="178" x="719.9269" y="795.0352">DriverLicenseCardIdentification</text><line style="stroke:#000000;stroke-width:1.5;" x1="691.9269" x2="899.9269" y1="806.5" y2="806.5"/><ellipse cx="701.9269" cy="817.5" fill="none" rx="3" ry="3" style="stroke:#038048;stroke-width:1.0;"/><text fill="#000000" font-family="sans-serif" font-size="11" lengthAdjust="spacing" textLength="116" x="710.9269" y="821.1348">String IdentificationID</text><line style="stroke:#000000;stroke-width:1.5;" x1="691.9269" x2="899.9269" y1="827.4551" y2="827.4551"/><!--MD5=[e5d8e980445664eb27d87f993fe9a72f]
class ContactInformation--><rect codeLine="102" fill="#FFFFFF" filter="url(#f1sx6ve0fye6pa)" height="60.9551" id="ContactInformation" style="stroke:#000000;stroke-width:1.5;" width="142" x="724.9269" y="909.5"/><ellipse cx="740.8269" cy="925.5" fill="#ADD1B2" rx="11" ry="11" style="stroke:#000000;stroke-width:1.0;"/><path d="M743.3,931.6431 Q742.719,931.9419 742.0798,932.0913 Q741.4407,932.2407 740.7351,932.2407 Q738.2283,932.2407 736.9084,930.5889 Q735.5886,928.937 735.5886,925.8159 Q735.5886,922.6865 736.9084,921.0347 Q738.2283,919.3828 740.7351,919.3828 Q741.4407,919.3828 742.0881,919.5322 Q742.7356,919.6816 743.3,919.9805 L743.3,922.7031 Q742.6692,922.1221 742.0757,921.8523 Q741.4822,921.5825 740.8513,921.5825 Q739.5066,921.5825 738.8218,922.6492 Q738.137,923.7158 738.137,925.8159 Q738.137,927.9077 738.8218,928.9744 Q739.5066,930.041 740.8513,930.041 Q741.4822,930.041 742.0757,929.7712 Q742.6692,929.5015 743.3,928.9204 Z " fill="#000000"/><text fill="#000000" font-family="sans-serif" font-size="12" lengthAdjust="spacing" textLength="108" x="755.0269" y="930.0352">ContactInformation</text><line style="stroke:#000000;stroke-width:1.5;" x1="725.9269" x2="865.9269" y1="941.5" y2="941.5"/><ellipse cx="735.9269" cy="952.5" fill="none" rx="3" ry="3" style="stroke:#038048;stroke-width:1.0;"/><text fill="#000000" font-family="sans-serif" font-size="11" lengthAdjust="spacing" textLength="116" x="744.9269" y="956.1348">String ContactEmailID</text><line style="stroke:#000000;stroke-width:1.5;" x1="725.9269" x2="865.9269" y1="962.4551" y2="962.4551"/><!--MD5=[bdd85803e7fa3947a92e827929eb1f40]
class Location2DGeospatialCoordinate--><rect codeLine="120" fill="#FFFFFF" filter="url(#f1sx6ve0fye6pa)" height="48" id="Location2DGeospatialCoordinate" style="stroke:#000000;stroke-width:1.5;" width="220" x="1093.9299" y="506"/><ellipse cx="1108.9299" cy="522" fill="#ADD1B2" rx="11" ry="11" style="stroke:#000000;stroke-width:1.0;"/><path d="M1111.403,528.1431 Q1110.822,528.4419 1110.1828,528.5913 Q1109.5437,528.7407 1108.8381,528.7407 Q1106.3313,528.7407 1105.0114,527.0889 Q1103.6916,525.437 1103.6916,522.3159 Q1103.6916,519.1865 1105.0114,517.5347 Q1106.3313,515.8828 1108.8381,515.8828 Q1109.5437,515.8828 1110.1911,516.0322 Q1110.8386,516.1816 1111.403,516.4805 L1111.403,519.2031 Q1110.7722,518.6221 1110.1787,518.3523 Q1109.5852,518.0825 1108.9543,518.0825 Q1107.6096,518.0825 1106.9248,519.1492 Q1106.24,520.2158 1106.24,522.3159 Q1106.24,524.4077 1106.9248,525.4744 Q1107.6096,526.541 1108.9543,526.541 Q1109.5852,526.541 1110.1787,526.2712 Q1110.7722,526.0015 1111.403,525.4204 Z " fill="#000000"/><text fill="#000000" font-family="sans-serif" font-size="12" lengthAdjust="spacing" textLength="188" x="1122.9299" y="526.5352">Location2DGeospatialCoordinate</text><line style="stroke:#000000;stroke-width:1.5;" x1="1094.9299" x2="1312.9299" y1="538" y2="538"/><line style="stroke:#000000;stroke-width:1.5;" x1="1094.9299" x2="1312.9299" y1="546" y2="546"/><!--MD5=[eb64dd8b0717b8aad832d04a88d65118]
class GeographicCoordinateLatitude--><rect codeLine="123" fill="#FFFFFF" filter="url(#f1sx6ve0fye6pa)" height="73.9102" id="GeographicCoordinateLatitude" style="stroke:#000000;stroke-width:1.5;" width="207" x="1325.6799" y="627"/><ellipse cx="1340.6799" cy="643" fill="#ADD1B2" rx="11" ry="11" style="stroke:#000000;stroke-width:1.0;"/><path d="M1343.153,649.1431 Q1342.572,649.4419 1341.9328,649.5913 Q1341.2937,649.7407 1340.5881,649.7407 Q1338.0813,649.7407 1336.7614,648.0889 Q1335.4416,646.437 1335.4416,643.3159 Q1335.4416,640.1865 1336.7614,638.5347 Q1338.0813,636.8828 1340.5881,636.8828 Q1341.2937,636.8828 1341.9411,637.0322 Q1342.5886,637.1816 1343.153,637.4805 L1343.153,640.2031 Q1342.5222,639.6221 1341.9287,639.3523 Q1341.3352,639.0825 1340.7043,639.0825 Q1339.3596,639.0825 1338.6748,640.1492 Q1337.99,641.2158 1337.99,643.3159 Q1337.99,645.4077 1338.6748,646.4744 Q1339.3596,647.541 1340.7043,647.541 Q1341.3352,647.541 1341.9287,647.2712 Q1342.5222,647.0015 1343.153,646.4204 Z " fill="#000000"/><text fill="#000000" font-family="sans-serif" font-size="12" lengthAdjust="spacing" textLength="175" x="1354.6799" y="647.5352">GeographicCoordinateLatitude</text><line style="stroke:#000000;stroke-width:1.5;" x1="1326.6799" x2="1531.6799" y1="659" y2="659"/><ellipse cx="1336.6799" cy="670" fill="none" rx="3" ry="3" style="stroke:#038048;stroke-width:1.0;"/><text fill="#000000" font-family="sans-serif" font-size="11" lengthAdjust="spacing" textLength="156" x="1345.6799" y="673.6348">Number LatitudeDegreeValue</text><ellipse cx="1336.6799" cy="682.9551" fill="none" rx="3" ry="3" style="stroke:#038048;stroke-width:1.0;"/><text fill="#000000" font-family="sans-serif" font-size="11" lengthAdjust="spacing" textLength="154" x="1345.6799" y="686.5898">Number LatitudeMinuteValue</text><line style="stroke:#000000;stroke-width:1.5;" x1="1326.6799" x2="1531.6799" y1="692.9102" y2="692.9102"/><!--MD5=[3c96e806b4e16c121c351726cc7223ef]
class GeographicCoordinateLongitude--><rect codeLine="128" fill="#FFFFFF" filter="url(#f1sx6ve0fye6pa)" height="73.9102" id="GeographicCoordinateLongitude" style="stroke:#000000;stroke-width:1.5;" width="217" x="1073.6769" y="627"/><ellipse cx="1088.6769" cy="643" fill="#ADD1B2" rx="11" ry="11" style="stroke:#000000;stroke-width:1.0;"/><path d="M1091.15,649.1431 Q1090.569,649.4419 1089.9298,649.5913 Q1089.2907,649.7407 1088.5851,649.7407 Q1086.0783,649.7407 1084.7584,648.0889 Q1083.4386,646.437 1083.4386,643.3159 Q1083.4386,640.1865 1084.7584,638.5347 Q1086.0783,636.8828 1088.5851,636.8828 Q1089.2907,636.8828 1089.9381,637.0322 Q1090.5856,637.1816 1091.15,637.4805 L1091.15,640.2031 Q1090.5192,639.6221 1089.9257,639.3523 Q1089.3322,639.0825 1088.7013,639.0825 Q1087.3566,639.0825 1086.6718,640.1492 Q1085.987,641.2158 1085.987,643.3159 Q1085.987,645.4077 1086.6718,646.4744 Q1087.3566,647.541 1088.7013,647.541 Q1089.3322,647.541 1089.9257,647.2712 Q1090.5192,647.0015 1091.15,646.4204 Z " fill="#000000"/><text fill="#000000" font-family="sans-serif" font-size="12" lengthAdjust="spacing" textLength="185" x="1102.6769" y="647.5352">GeographicCoordinateLongitude</text><line style="stroke:#000000;stroke-width:1.5;" x1="1074.6769" x2="1289.6769" y1="659" y2="659"/><ellipse cx="1084.6769" cy="670" fill="none" rx="3" ry="3" style="stroke:#038048;stroke-width:1.0;"/><text fill="#000000" font-family="sans-serif" font-size="11" lengthAdjust="spacing" textLength="167" x="1093.6769" y="673.6348">Number LongitudeDegreeValue</text><ellipse cx="1084.6769" cy="682.9551" fill="none" rx="3" ry="3" style="stroke:#038048;stroke-width:1.0;"/><text fill="#000000" font-family="sans-serif" font-size="11" lengthAdjust="spacing" textLength="165" x="1093.6769" y="686.5898">Number LongitudeMinuteValue</text><line style="stroke:#000000;stroke-width:1.5;" x1="1074.6769" x2="1289.6769" y1="692.9102" y2="692.9102"/><!--MD5=[1c35501828a625c1bb78f5a5cf28064d]
class LocationGeospatialPoint--><rect codeLine="133" fill="#FFFFFF" filter="url(#f1sx6ve0fye6pa)" height="48" id="LocationGeospatialPoint" style="stroke:#000000;stroke-width:1.5;" width="168" x="890.9269" y="506"/><ellipse cx="905.9269" cy="522" fill="#ADD1B2" rx="11" ry="11" style="stroke:#000000;stroke-width:1.0;"/><path d="M908.4,528.1431 Q907.819,528.4419 907.1798,528.5913 Q906.5407,528.7407 905.8351,528.7407 Q903.3283,528.7407 902.0084,527.0889 Q900.6886,525.437 900.6886,522.3159 Q900.6886,519.1865 902.0084,517.5347 Q903.3283,515.8828 905.8351,515.8828 Q906.5407,515.8828 907.1881,516.0322 Q907.8356,516.1816 908.4,516.4805 L908.4,519.2031 Q907.7692,518.6221 907.1757,518.3523 Q906.5822,518.0825 905.9513,518.0825 Q904.6066,518.0825 903.9218,519.1492 Q903.237,520.2158 903.237,522.3159 Q903.237,524.4077 903.9218,525.4744 Q904.6066,526.541 905.9513,526.541 Q906.5822,526.541 907.1757,526.2712 Q907.7692,526.0015 908.4,525.4204 Z " fill="#000000"/><text fill="#000000" font-family="sans-serif" font-size="12" lengthAdjust="spacing" textLength="136" x="919.9269" y="526.5352">LocationGeospatialPoint</text><line style="stroke:#000000;stroke-width:1.5;" x1="891.9269" x2="1057.9269" y1="538" y2="538"/><line style="stroke:#000000;stroke-width:1.5;" x1="891.9269" x2="1057.9269" y1="546" y2="546"/><!--MD5=[972bde5337b4335dd91fa5354c932445]
class Point--><rect codeLine="136" fill="#FFFFFF" filter="url(#f1sx6ve0fye6pa)" height="60.9551" id="Point" style="stroke:#000000;stroke-width:1.5;" width="71" x="942.6769" y="633.5"/><ellipse cx="962.6269" cy="649.5" fill="#ADD1B2" rx="11" ry="11" style="stroke:#000000;stroke-width:1.0;"/><path d="M965.1,655.6431 Q964.519,655.9419 963.8798,656.0913 Q963.2407,656.2407 962.5351,656.2407 Q960.0283,656.2407 958.7084,654.5889 Q957.3886,652.937 957.3886,649.8159 Q957.3886,646.6865 958.7084,645.0347 Q960.0283,643.3828 962.5351,643.3828 Q963.2407,643.3828 963.8881,643.5322 Q964.5356,643.6816 965.1,643.9805 L965.1,646.7031 Q964.4692,646.1221 963.8757,645.8523 Q963.2822,645.5825 962.6513,645.5825 Q961.3066,645.5825 960.6218,646.6492 Q959.937,647.7158 959.937,649.8159 Q959.937,651.9077 960.6218,652.9744 Q961.3066,654.041 962.6513,654.041 Q963.2822,654.041 963.8757,653.7712 Q964.4692,653.5015 965.1,652.9204 Z " fill="#000000"/><text fill="#000000" font-family="sans-serif" font-size="12" lengthAdjust="spacing" textLength="28" x="977.7269" y="654.0352">Point</text><line style="stroke:#000000;stroke-width:1.5;" x1="943.6769" x2="1012.6769" y1="665.5" y2="665.5"/><ellipse cx="953.6769" cy="676.5" fill="none" rx="3" ry="3" style="stroke:#038048;stroke-width:1.0;"/><text fill="#000000" font-family="sans-serif" font-size="11" lengthAdjust="spacing" textLength="45" x="962.6769" y="680.1348">String id</text><line style="stroke:#000000;stroke-width:1.5;" x1="943.6769" x2="1012.6769" y1="686.4551" y2="686.4551"/><!--MD5=[3487cc8ebf67081b546406f57ee833b5]
class pos--><rect codeLine="140" fill="#FFFFFF" filter="url(#f1sx6ve0fye6pa)" height="73.9102" id="pos" style="stroke:#000000;stroke-width:1.5;" width="108" x="935.9269" y="768"/><ellipse cx="975.6769" cy="784" fill="#ADD1B2" rx="11" ry="11" style="stroke:#000000;stroke-width:1.0;"/><path d="M978.15,790.1431 Q977.569,790.4419 976.9298,790.5913 Q976.2907,790.7407 975.5851,790.7407 Q973.0783,790.7407 971.7584,789.0889 Q970.4386,787.437 970.4386,784.3159 Q970.4386,781.1865 971.7584,779.5347 Q973.0783,777.8828 975.5851,777.8828 Q976.2907,777.8828 976.9381,778.0322 Q977.5856,778.1816 978.15,778.4805 L978.15,781.2031 Q977.5192,780.6221 976.9257,780.3523 Q976.3322,780.0825 975.7013,780.0825 Q974.3566,780.0825 973.6718,781.1492 Q972.987,782.2158 972.987,784.3159 Q972.987,786.4077 973.6718,787.4744 Q974.3566,788.541 975.7013,788.541 Q976.3322,788.541 976.9257,788.2712 Q977.5192,788.0015 978.15,787.4204 Z " fill="#000000"/><text fill="#000000" font-family="sans-serif" font-size="12" lengthAdjust="spacing" textLength="21" x="995.1769" y="788.5352">pos</text><line style="stroke:#000000;stroke-width:1.5;" x1="936.9269" x2="1042.9269" y1="800" y2="800"/><ellipse cx="946.9269" cy="811" fill="none" rx="3" ry="3" style="stroke:#038048;stroke-width:1.0;"/><text fill="#000000" font-family="sans-serif" font-size="11" lengthAdjust="spacing" textLength="82" x="955.9269" y="814.6348">String srsName</text><ellipse cx="946.9269" cy="823.9551" fill="none" rx="3" ry="3" style="stroke:#038048;stroke-width:1.0;"/><text fill="#000000" font-family="sans-serif" font-size="11" lengthAdjust="spacing" textLength="64" x="955.9269" y="827.5898">String Value</text><line style="stroke:#000000;stroke-width:1.5;" x1="936.9269" x2="1042.9269" y1="833.9102" y2="833.9102"/><!--MD5=[f3de8ab367e3a91ed0a719e60c1898dd]
reverse link CrashDriverInfo to Person--><path codeLine="12" d="M488.7129,174.166 C485.4229,175.178 482.1489,176.13 478.9269,177 C400.2009,198.246 169.6612,174.805 116.9267,237 C6,367.826 210.6919,571.532 286.9569,639.81 " fill="none" id="CrashDriverInfo-backto-Person" style="stroke:#000000;stroke-width:1.0;"/><polygon fill="none" points="501.4119,170.003,494.4646,168.0704,490.0086,173.7399,496.9559,175.6726,501.4119,170.003" style="stroke:#000000;stroke-width:1.0;"/><!--MD5=[dcac12265e2c941216f3f4e91d8ac5cd]
reverse link CrashDriverInfo to Crash--><path codeLine="13" d="M631.1879,164.509 C691.2959,180.066 777.9149,205.242 849.9269,237 C856.1299,239.736 862.5249,243.055 868.5999,246.475 " fill="none" id="CrashDriverInfo-backto-Crash" style="stroke:#000000;stroke-width:1.0;"/><polygon fill="none" points="618.4019,161.241,623.2248,166.6019,630.0283,164.2119,625.2054,158.851,618.4019,161.241" style="stroke:#000000;stroke-width:1.0;"/><!--MD5=[6680c5421ca2d45adb8348862de59712]
reverse link CrashDriverInfo to PersonChargeAssociation--><path codeLine="14" d="M485.2399,174.629 C483.1119,175.429 481.0039,176.221 478.9269,177 C424.6939,197.34 363.5469,219.986 316.1589,237.472 " fill="none" id="CrashDriverInfo-backto-PersonChargeAssociation" style="stroke:#000000;stroke-width:1.0;"/><polygon fill="none" points="497.5609,169.982,490.5354,168.3563,486.3327,174.2161,493.3582,175.8418,497.5609,169.982" style="stroke:#000000;stroke-width:1.0;"/><!--MD5=[42fea4975f65885373daaf2b9cd0dc2b]
reverse link CrashDriverInfo to Charge--><path codeLine="15" d="M496.6669,176.599 C471.6809,191.51 444.5759,211.821 426.9269,237 C401.3889,273.433 391.7539,324.605 388.1209,358.734 " fill="none" id="CrashDriverInfo-backto-Charge" style="stroke:#000000;stroke-width:1.0;"/><polygon fill="none" points="507.9549,170.13,500.7603,169.6425,497.5431,176.0962,504.7377,176.5837,507.9549,170.13" style="stroke:#000000;stroke-width:1.0;"/><!--MD5=[0b7f9933edc9b6fe190eba51a62e11b3]
reverse link CrashDriverInfo to Metadata--><path codeLine="16" d="M557.9269,183.151 C557.9269,200.387 557.9269,220.758 557.9269,237.106 " fill="none" id="CrashDriverInfo-backto-Metadata" style="stroke:#000000;stroke-width:1.0;"/><polygon fill="none" points="557.9269,170.137,553.9269,176.137,557.9269,182.137,561.9269,176.137,557.9269,170.137" style="stroke:#000000;stroke-width:1.0;"/><!--MD5=[8a065019b843158cae62e3d186143e26]
reverse link CrashDriverInfo to PrivacyMetadata--><path codeLine="17" d="M610.3799,176.691 C643.0269,195.17 684.8639,218.851 717.5049,237.327 " fill="none" id="CrashDriverInfo-backto-PrivacyMetadata" style="stroke:#000000;stroke-width:1.0;"/><polygon fill="none" points="598.8019,170.137,602.0537,176.5733,609.2456,176.0472,605.9938,169.6109,598.8019,170.137" style="stroke:#000000;stroke-width:1.0;"/><!--MD5=[fd900e32186d0297ae7eddda5d75776b]
reverse link Person to PersonName--><path codeLine="23" d="M291.9959,699.252 C280.0069,717.976 265.0459,741.342 252.2979,761.252 " fill="none" id="Person-backto-PersonName" style="stroke:#000000;stroke-width:1.0;"/><polygon fill="none" points="299.0299,688.265,292.4259,691.1612,292.5593,698.371,299.1633,695.4749,299.0299,688.265" style="stroke:#000000;stroke-width:1.0;"/><!--MD5=[132927765e2fa8fe53429e903df08f74]
reverse link Person to PersonBirthDate--><path codeLine="24" d="M336.1129,699.266 C351.0269,722.299 370.4859,752.353 384.7319,774.355 " fill="none" id="Person-backto-PersonBirthDate" style="stroke:#000000;stroke-width:1.0;"/><polygon fill="none" points="328.9909,688.265,328.8942,695.4755,335.5128,698.338,335.6095,691.1275,328.9909,688.265" style="stroke:#000000;stroke-width:1.0;"/><!--MD5=[dcacb6f7d8561b761a94c6902ff27f2b]
reverse link PersonChargeAssociation to Person--><path codeLine="39" d="M244.3439,311.518 C260.7639,394.459 296.5739,575.348 309.3139,639.7 " fill="none" id="PersonChargeAssociation-backto-Person" style="stroke:#000000;stroke-width:1.0;"/><polygon fill="none" points="241.7889,298.614,239.0301,305.2765,244.119,310.3856,246.8778,303.7231,241.7889,298.614" style="stroke:#000000;stroke-width:1.0;"/><!--MD5=[7c5c434b285911d2608649e547c37b44]
reverse link PersonChargeAssociation to Charge--><path codeLine="40" d="M281.2979,307.112 C300.8709,323.553 323.6509,342.689 342.9489,358.899 " fill="none" id="PersonChargeAssociation-backto-Charge" style="stroke:#000000;stroke-width:1.0;"/><polygon fill="none" points="271.0949,298.541,273.1164,305.463,280.2834,306.2592,278.2619,299.3373,271.0949,298.541" style="stroke:#000000;stroke-width:1.0;"/><!--MD5=[a6b4111015cbaef3250a5a40dc1c8541]
reverse link Activity to Incident--><path codeLine="55" d="M606.3189,57.19 C652.1749,78.426 716.6549,108.288 757.3569,127.138 " fill="none" id="Activity-backto-Incident" style="stroke:#000000;stroke-width:1.0;"/><polygon fill="none" points="603.1359,63.43,587.9299,48.674,609.0199,50.726,603.1359,63.43" style="stroke:#000000;stroke-width:1.0;"/><!--MD5=[0c9dd32de32c10e508933c0d9341ab24]
reverse link Incident to Crash--><path codeLine="56" d="M829.4539,185.317 C846.3319,204.606 866.2329,227.35 880.7439,243.934 " fill="none" id="Incident-backto-Crash" style="stroke:#000000;stroke-width:1.0;"/><polygon fill="none" points="824.0739,189.798,816.1719,170.137,834.6099,180.579,824.0739,189.798" style="stroke:#000000;stroke-width:1.0;"/><!--MD5=[560c57b254c5eb1d14b3eeadfb347a95]
reverse link Activity to ActivityDate--><path codeLine="58" d="M513.1469,63.526 C493.1579,79.776 468.9229,99.478 449.2929,115.436 " fill="none" id="Activity-backto-ActivityDate" style="stroke:#000000;stroke-width:1.0;"/><polygon fill="none" points="523.4629,55.14,516.2841,55.8215,514.1521,62.7102,521.3309,62.0287,523.4629,55.14" style="stroke:#000000;stroke-width:1.0;"/><!--MD5=[e10b34295337139350456ea5e5d63dfb]
reverse link Crash to CrashVehicle--><path codeLine="63" d="M885.3419,304.067 C875.7619,325.62 863.7519,352.644 855.3229,371.609 " fill="none" id="Crash-backto-CrashVehicle" style="stroke:#000000;stroke-width:1.0;"/><polygon fill="none" points="890.6559,292.11,884.5637,295.968,885.7817,303.0755,891.874,299.2175,890.6559,292.11" style="stroke:#000000;stroke-width:1.0;"/><!--MD5=[f66c9db38b9b928ddc99655e3cdcf1be]
reverse link CrashVehicle to CrashDriver--><path codeLine="64" d="M832.7209,432.805 C824.7849,456.082 814.6719,485.746 807.7889,505.938 " fill="none" id="CrashVehicle-backto-CrashDriver" style="stroke:#000000;stroke-width:1.0;"/><polygon fill="none" points="836.9849,420.295,831.2629,424.6835,833.1131,431.6532,838.8351,427.2647,836.9849,420.295" style="stroke:#000000;stroke-width:1.0;"/><!--MD5=[d2acec0a3ab9ae6daabf63d596805bfc]
reverse link Crash to CrashPerson--><path codeLine="65" d="M857.1949,295.146 C854.7509,296.475 852.3169,297.768 849.9269,299 C803.0519,323.156 748.8249,347.344 706.5579,365.398 " fill="none" id="Crash-backto-CrashPerson" style="stroke:#000000;stroke-width:1.0;"/><polygon fill="none" points="868.5819,288.756,861.392,288.2037,858.1168,294.6281,865.3067,295.1804,868.5819,288.756" style="stroke:#000000;stroke-width:1.0;"/><!--MD5=[34c515603cddc49dcef798711af2d859]
reverse link CrashPerson to CrashPersonInjury--><path codeLine="66" d="M632.0109,439.76 C630.8419,456.913 629.5089,476.467 628.3889,492.891 " fill="none" id="CrashPerson-backto-CrashPersonInjury" style="stroke:#000000;stroke-width:1.0;"/><polygon fill="none" points="632.9069,426.623,628.508,432.337,632.0906,438.5952,636.4895,432.8812,632.9069,426.623" style="stroke:#000000;stroke-width:1.0;"/><!--MD5=[ed10516f57e2e81c06c0460de89565b2]
reverse link CrashPerson to Person--><path codeLine="67" d="M589.0369,434.96 C567.7139,452.603 542.0219,473.867 518.9269,493 C455.5499,545.503 381.1969,607.182 341.7719,639.894 " fill="none" id="CrashPerson-backto-Person" style="stroke:#000000;stroke-width:1.0;"/><polygon fill="none" points="599.1239,426.615,591.9511,427.3576,589.8779,434.2642,597.0506,433.5216,599.1239,426.615" style="stroke:#000000;stroke-width:1.0;"/><!--MD5=[f9de7f9c10c90a3fc2bf73db36371dbd]
reverse link Crash to Location--><path codeLine="68" d="M921.1669,303.464 C933.8829,325.115 949.9469,352.467 961.1889,371.609 " fill="none" id="Crash-backto-Location" style="stroke:#000000;stroke-width:1.0;"/><polygon fill="none" points="914.4999,292.11,914.0893,299.3094,920.577,302.4574,920.9876,295.258,914.4999,292.11" style="stroke:#000000;stroke-width:1.0;"/><!--MD5=[fcfe4c0d3ef05d003821534be9bf9fd5]
reverse link CrashDriver to Person--><path codeLine="69" d="M748.5719,559.968 C743.0429,562.548 737.4269,564.953 731.9269,567 C594.9799,617.973 422.3509,647.211 349.2289,658.083 " fill="none" id="CrashDriver-backto-Person" style="stroke:#000000;stroke-width:1.0;"/><polygon fill="none" points="760.4589,554.113,753.309,553.1757,749.6938,559.4151,756.8437,560.3524,760.4589,554.113" style="stroke:#000000;stroke-width:1.0;"/><!--MD5=[c480e41666412584b3d0352925410ea2]
reverse link CrashDriver to DriverLicense--><path codeLine="70" d="M799.3739,567.456 C799.0229,590.633 798.5789,619.934 798.2759,639.938 " fill="none" id="CrashDriver-backto-DriverLicense" style="stroke:#000000;stroke-width:1.0;"/><polygon fill="none" points="799.5739,554.295,795.4834,560.2337,799.3919,566.2936,803.4825,560.355,799.5739,554.295" style="stroke:#000000;stroke-width:1.0;"/><!--MD5=[4e2a36621c278a2c6d865fd1bb161fdc]
reverse link DriverLicense to DriverLicenseCardIdentification--><path codeLine="71" d="M797.4019,701.496 C797.0749,724.212 796.6599,753.056 796.3529,774.355 " fill="none" id="DriverLicense-backto-DriverLicenseCardIdentification" style="stroke:#000000;stroke-width:1.0;"/><polygon fill="none" points="797.5919,688.265,793.5059,694.2068,797.4192,700.2638,801.5051,694.322,797.5919,688.265" style="stroke:#000000;stroke-width:1.0;"/><!--MD5=[e537d92b75f3ce5bed7cb1dc3d6900c0]
reverse link DriverLicenseCardIdentification to ContactInformation--><path codeLine="106" d="M795.9269,848.552 C795.9269,868.279 795.9269,891.2495 795.9269,909.1056 " fill="none" id="DriverLicenseCardIdentification-backto-ContactInformation" style="stroke:#000000;stroke-width:1.0;"/><polygon fill="none" points="795.9269,835.517,791.9269,841.517,795.9269,847.517,799.9269,841.517,795.9269,835.517" style="stroke:#000000;stroke-width:1.0;"/><!--MD5=[a4bbc4dc352961419a54b3376d941ffd]
reverse link Location to Location2DGeospatialCoordinate--><path codeLine="108" d="M1025.5739,426.194 C1067.2359,450.209 1125.4799,483.781 1163.9199,505.941 " fill="none" id="Location-backto-Location2DGeospatialCoordinate" style="stroke:#000000;stroke-width:1.0;"/><polygon fill="none" points="1014.2929,419.692,1017.4939,426.1537,1024.6897,425.6843,1021.4887,419.2225,1014.2929,419.692" style="stroke:#000000;stroke-width:1.0;"/><!--MD5=[070dac4558711191a044452bfa48d944]
reverse link Location2DGeospatialCoordinate to GeographicCoordinateLatitude--><path codeLine="109" d="M1254.7199,560.801 C1288.1299,580.401 1332.0499,606.168 1367.4399,626.925 " fill="none" id="Location2DGeospatialCoordinate-backto-GeographicCoordinateLatitude" style="stroke:#000000;stroke-width:1.0;"/><polygon fill="none" points="1243.3799,554.144,1246.5339,560.6288,1253.7329,560.2115,1250.5789,553.7267,1243.3799,554.144" style="stroke:#000000;stroke-width:1.0;"/><!--MD5=[6e4fe5877661db8bde712364ba73cfd2]
reverse link Location2DGeospatialCoordinate to GeographicCoordinateLongitude--><path codeLine="110" d="M1197.8799,567.259 C1194.7999,585.774 1191.0499,608.237 1187.9699,626.751 " fill="none" id="Location2DGeospatialCoordinate-backto-GeographicCoordinateLongitude" style="stroke:#000000;stroke-width:1.0;"/><polygon fill="none" points="1200.0399,554.295,1195.1083,559.5561,1198.068,566.1319,1202.9996,560.8707,1200.0399,554.295" style="stroke:#000000;stroke-width:1.0;"/><!--MD5=[7074db790ba0854fbc4cd99f266940ee]
reverse link Location to LocationGeospatialPoint--><path codeLine="112" d="M974.9269,433.456 C974.9269,456.633 974.9269,485.934 974.9269,505.938 " fill="none" id="Location-backto-LocationGeospatialPoint" style="stroke:#000000;stroke-width:1.0;"/><polygon fill="none" points="974.9269,420.295,970.9269,426.295,974.9269,432.295,978.9269,426.295,974.9269,420.295" style="stroke:#000000;stroke-width:1.0;"/><!--MD5=[c1289c942373101352275a91a25c52cf]
reverse link LocationGeospatialPoint to Point--><path codeLine="113" d="M975.7549,567.444 C976.2269,588.23 976.8119,613.946 977.2549,633.463 " fill="none" id="LocationGeospatialPoint-backto-Point" style="stroke:#000000;stroke-width:1.0;"/><polygon fill="none" points="975.4559,554.295,971.5934,560.3844,975.7289,566.2919,979.5914,560.2025,975.4559,554.295" style="stroke:#000000;stroke-width:1.0;"/><!--MD5=[3c010cfda084e2be63adee3a0fe9f7e6]
reverse link Point to pos--><path codeLine="114" d="M980.9449,699.961 C982.7329,720.677 984.9959,746.883 986.8029,767.811 " fill="none" id="Point-backto-pos" style="stroke:#000000;stroke-width:1.0;"/><polygon fill="#000000" points="980.5009,694.819,977.2897,704.1297,980.9309,699.8005,985.2601,703.4417,980.5009,694.819" style="stroke:#000000;stroke-width:1.0;"/><!--MD5=[4c8292cd1f43c237699dd085c0e45068]
@startuml

	skinparam class {
		TextColor Red
		BackgroundColor White
		ArrowColor Black
		BorderColor Black
	}

	class CrashDriverInfo{
	}

	CrashDriverInfo o- - Person
	CrashDriverInfo o- - Crash
	CrashDriverInfo o- - PersonChargeAssociation
	CrashDriverInfo o- - Charge
	CrashDriverInfo o- - Metadata
	CrashDriverInfo o- - PrivacyMetadata
	

	class Person{
	}

	Person o- - PersonName
	Person o- - PersonBirthDate

	class PersonName{
		+String PersonGivenName
		+String PersonMiddleName
		+String PersonLastName
	}

	class PersonBirthDate{
		+Date Date
	}

	class PersonChargeAssociation{
		+Boolean JuvenileAsAdultIndicator
	}
	PersonChargeAssociation o- - Person
	PersonChargeAssociation o- - Charge
	
	class Charge{
		+String ChargeDescriptionText
		+Boolean ChargeFelonyIndicator
	}
	
	class Metadata{
		+Boolean CriminalInformationIndicator
	}
	
	class PrivacyMetadata{
		+String PrivacyCode
	}

	Activity <|- - Incident
	Incident <|- - Crash

	Activity o- - ActivityDate

	class Crash{
	}
	
	Crash o- - CrashVehicle
	CrashVehicle o- - CrashDriver
	Crash o- - CrashPerson
	CrashPerson o- - CrashPersonInjury
	CrashPerson o- - Person
	Crash o- - Location
	CrashDriver o- - Person
	CrashDriver o- - DriverLicense
	DriverLicense o- - DriverLicenseCardIdentification
	
	
	class CrashDriver{
	}

	class CrashPerson{
		+Boolean PersonDefenestrationIndicator
	}
	class CrashPersonInjury{
		+String InjuryDescriptionText
		+String InjurySeverityCode
	}
	
	class Incident{
	}
	
	class Activity{
	}

	class ActivityDate{
		+Date Date
	}

	class DriverLicense{
	}
	
	class DriverLicenseCardIdentification{
		+String IdentificationID
	}

	class ContactInformation{
		+String ContactEmailID
	}

	DriverLicenseCardIdentification o- - ContactInformation

	Location o- - Location2DGeospatialCoordinate
	Location2DGeospatialCoordinate o- - GeographicCoordinateLatitude
	Location2DGeospatialCoordinate o- - GeographicCoordinateLongitude
	
	Location o- - LocationGeospatialPoint
	LocationGeospatialPoint o- - Point
	Point <- - pos
	
	class Location{
		
	}

	class Location2DGeospatialCoordinate{
	}

	class GeographicCoordinateLatitude{
		+Number LatitudeDegreeValue
		+Number LatitudeMinuteValue
	}

	class GeographicCoordinateLongitude{
		+Number LongitudeDegreeValue
		+Number LongitudeMinuteValue
	}

	class LocationGeospatialPoint{
	}
	
	class Point{
		+String id
	}
	
	class pos{
		+String srsName
		+String Value
	}

@enduml

PlantUML version 1.2022.1(Tue Feb 01 13:19:58 EST 2022)
(GPL source distribution)
Java Runtime: OpenJDK Runtime Environment
JVM: OpenJDK 64-Bit Server VM
Default Encoding: UTF-8
Language: en
Country: US
--></g></svg>