<svg id="mermaid-1631839290364" width="100%" xmlns="http://www.w3.org/2000/svg" xmlns:xlink="http://www.w3.org/1999/xlink" height="242.1875" style="max-width: 731.47265625px;" viewBox="-20 -20 731.47265625 242.1875"><style>#mermaid-1631839290364{font-family:"trebuchet ms",verdana,arial,sans-serif;font-size:16px;fill:#000000;}#mermaid-1631839290364 .error-icon{fill:#552222;}#mermaid-1631839290364 .error-text{fill:#552222;stroke:#552222;}#mermaid-1631839290364 .edge-thickness-normal{stroke-width:2px;}#mermaid-1631839290364 .edge-thickness-thick{stroke-width:3.5px;}#mermaid-1631839290364 .edge-pattern-solid{stroke-dasharray:0;}#mermaid-1631839290364 .edge-pattern-dashed{stroke-dasharray:3;}#mermaid-1631839290364 .edge-pattern-dotted{stroke-dasharray:2;}#mermaid-1631839290364 .marker{fill:#666;stroke:#666;}#mermaid-1631839290364 .marker.cross{stroke:#666;}#mermaid-1631839290364 svg{font-family:"trebuchet ms",verdana,arial,sans-serif;font-size:16px;}#mermaid-1631839290364 g.classGroup text{fill:#999;fill:#111111;stroke:none;font-family:"trebuchet ms",verdana,arial,sans-serif;font-size:10px;}#mermaid-1631839290364 g.classGroup text .title{font-weight:bolder;}#mermaid-1631839290364 .classTitle{font-weight:bolder;}#mermaid-1631839290364 .node rect,#mermaid-1631839290364 .node circle,#mermaid-1631839290364 .node ellipse,#mermaid-1631839290364 .node polygon,#mermaid-1631839290364 .node path{fill:#eee;stroke:#999;stroke-width:1px;}#mermaid-1631839290364 .divider{stroke:#999;stroke:1;}#mermaid-1631839290364 g.clickable{cursor:pointer;}#mermaid-1631839290364 g.classGroup rect{fill:#eee;stroke:#999;}#mermaid-1631839290364 g.classGroup line{stroke:#999;stroke-width:1;}#mermaid-1631839290364 .classLabel .box{stroke:none;stroke-width:0;fill:#eee;opacity:0.5;}#mermaid-1631839290364 .classLabel .label{fill:#999;font-size:10px;}#mermaid-1631839290364 .relation{stroke:#666;stroke-width:1;fill:none;}#mermaid-1631839290364 .dashed-line{stroke-dasharray:3;}#mermaid-1631839290364 #compositionStart,#mermaid-1631839290364 .composition{fill:#666 !important;stroke:#666 !important;stroke-width:1;}#mermaid-1631839290364 #compositionEnd,#mermaid-1631839290364 .composition{fill:#666 !important;stroke:#666 !important;stroke-width:1;}#mermaid-1631839290364 #dependencyStart,#mermaid-1631839290364 .dependency{fill:#666 !important;stroke:#666 !important;stroke-width:1;}#mermaid-1631839290364 #dependencyStart,#mermaid-1631839290364 .dependency{fill:#666 !important;stroke:#666 !important;stroke-width:1;}#mermaid-1631839290364 #extensionStart,#mermaid-1631839290364 .extension{fill:#666 !important;stroke:#666 !important;stroke-width:1;}#mermaid-1631839290364 #extensionEnd,#mermaid-1631839290364 .extension{fill:#666 !important;stroke:#666 !important;stroke-width:1;}#mermaid-1631839290364 #aggregationStart,#mermaid-1631839290364 .aggregation{fill:#eee !important;stroke:#666 !important;stroke-width:1;}#mermaid-1631839290364 #aggregationEnd,#mermaid-1631839290364 .aggregation{fill:#eee !important;stroke:#666 !important;stroke-width:1;}#mermaid-1631839290364 .edgeTerminals{font-size:11px;}#mermaid-1631839290364:root{--mermaid-font-family:"trebuchet ms",verdana,arial,sans-serif;}</style><g></g><defs><marker id="extensionStart" class="extension" refX="0" refY="7" markerWidth="190" markerHeight="240" orient="auto"><path d="M 1,7 L18,13 V 1 Z"></path></marker></defs><defs><marker id="extensionEnd" refX="19" refY="7" markerWidth="20" markerHeight="28" orient="auto"><path d="M 1,1 V 13 L18,7 Z"></path></marker></defs><defs><marker id="compositionStart" class="extension" refX="0" refY="7" markerWidth="190" markerHeight="240" orient="auto"><path d="M 18,7 L9,13 L1,7 L9,1 Z"></path></marker></defs><defs><marker id="compositionEnd" refX="19" refY="7" markerWidth="20" markerHeight="28" orient="auto"><path d="M 18,7 L9,13 L1,7 L9,1 Z"></path></marker></defs><defs><marker id="aggregationStart" class="extension" refX="0" refY="7" markerWidth="190" markerHeight="240" orient="auto"><path d="M 18,7 L9,13 L1,7 L9,1 Z"></path></marker></defs><defs><marker id="aggregationEnd" refX="19" refY="7" markerWidth="20" markerHeight="28" orient="auto"><path d="M 18,7 L9,13 L1,7 L9,1 Z"></path></marker></defs><defs><marker id="dependencyStart" class="extension" refX="0" refY="7" markerWidth="190" markerHeight="240" orient="auto"><path d="M 5,7 L9,13 L1,7 L9,1 Z"></path></marker></defs><defs><marker id="dependencyEnd" refX="19" refY="7" markerWidth="20" markerHeight="28" orient="auto"><path d="M 18,7 L9,13 L14,7 L9,1 Z"></path></marker></defs><g id="classid-CrashDriverInfo-0" class="classGroup" transform="translate(135.76953125,25.53125 )"><rect x="0" y="0" width="82.96875" height="30" class=" "></rect><text y="15" x="0"><tspan class="title" x="5">CrashDriverInfo</tspan></text><line x1="0" y1="21" y2="21" x2="82.96875"></line><text x="5" y="31" fill="white" class="classText"></text><line x1="0" y1="26" y2="26" x2="82.96875"></line><text x="5" y="41" fill="white" class="classText"></text></g><g id="classid-Driver-1" class="classGroup" transform="translate(0,141.09375 )"><rect x="0" y="0" width="144.71875" height="51.0625" class=" "></rect><text y="15" x="0"><tspan class="title" x="57.8671875">Driver</tspan></text><line x1="0" y1="21" y2="21" x2="144.71875"></line><text x="5" y="31" fill="white" class="classText"><tspan x="5">+String DriverLicenseNumber</tspan><tspan x="5" dy="10">+String Email</tspan></text><line x1="0" y1="47.0625" y2="47.0625" x2="144.71875"></line><text x="5" y="62.0625" fill="white" class="classText"></text></g><g id="classid-InjuredPerson-2" class="classGroup" transform="translate(194.71875,131.0625 )"><rect x="0" y="0" width="130.46875" height="71.125" class=" "></rect><text y="15" x="0"><tspan class="title" x="32.3046875">InjuredPerson</tspan></text><line x1="0" y1="21.0625" y2="21.0625" x2="130.46875"></line><text x="5" y="31.0625" fill="white" class="classText"><tspan x="5">+String InjuryDescription</tspan><tspan x="5" dy="10">+Code SeverityCode</tspan><tspan x="5" dy="10">+String InjuryPrivacyCode</tspan><tspan x="5" dy="10">+Boolean ThroughWindow</tspan></text><line x1="0" y1="67.125" y2="67.125" x2="130.46875"></line><text x="5" y="82.125" fill="white" class="classText"></text></g><g id="classid-Crash-3" class="classGroup" transform="translate(375.1875,141.09375 )"><rect x="0" y="0" width="165.390625" height="51.0625" class=" "></rect><text y="15" x="0"><tspan class="title" x="69.71875">Crash</tspan></text><line x1="0" y1="21" y2="21" x2="165.390625"></line><text x="5" y="31" fill="white" class="classText"><tspan x="5">+Date CrashDate</tspan><tspan x="5" dy="10">+String CrashLocationCoordinates</tspan></text><line x1="0" y1="47.0625" y2="47.0625" x2="165.390625"></line><text x="5" y="62.0625" fill="white" class="classText"></text></g><g id="classid-Charge-4" class="classGroup" transform="translate(591.67578125,141.0625 )"><rect x="0" y="0" width="99.796875" height="51.125" class=" "></rect><text y="15" x="0"><tspan class="title" x="33.6875">Charge</tspan></text><line x1="0" y1="21.0625" y2="21.0625" x2="99.796875"></line><text x="5" y="31.0625" fill="white" class="classText"><tspan x="5">+String Description</tspan><tspan x="5" dy="10">+boolean isFelony</tspan></text><line x1="0" y1="47.125" y2="47.125" x2="99.796875"></line><text x="5" y="62.125" fill="white" class="classText"></text></g><g id="classid-Person-5" class="classGroup" transform="translate(276.7109375,0 )"><rect x="0" y="0" width="146.609375" height="81.0625" class=" "></rect><text y="15" x="0"><tspan class="title" x="57.421875">Person</tspan></text><line x1="0" y1="21" y2="21" x2="146.609375"></line><text x="5" y="31" fill="white" class="classText"><tspan x="5">+Date BirthDate</tspan><tspan x="5" dy="10">+String BirthDatePrivacyCode</tspan><tspan x="5" dy="10">+String FirstName</tspan><tspan x="5" dy="10">+String MiddleName</tspan><tspan x="5" dy="10">+String LastName</tspan></text><line x1="0" y1="77.0625" y2="77.0625" x2="146.609375"></line><text x="5" y="92.0625" fill="white" class="classText"></text></g><path d="M151.20598064198856,55.53125L136.58115574332382,63.953125C121.95633084465904,72.375,92.70668104732952,89.21875,78.94008863436737,103.47916666666667C65.17349622140523,117.73958333333333,66.88996119281046,129.41666666666666,67.74819367851308,135.25520833333334L68.60642616421569,141.09375" id="edge0" class="relation" marker-start="url(#aggregationStart)"></path><path d="M177.25390625,55.53125L177.25390625,63.953125C177.25390625,72.375,177.25390625,89.21875,182.94356698271415,101.80729166666667C188.63322771542826,114.39583333333333,200.01254918085655,122.72916666666667,205.70220991357067,126.89583333333333L211.39187064628481,131.0625" id="edge1" class="relation" marker-start="url(#aggregationStart)"></path><path d="M218.73828125,50.21850205662505L258.595703125,59.52583504718754C298.453125,68.83316803775004,378.16796875,87.44783401887501,418.025390625,102.59370867610419C457.8828125,117.73958333333333,457.8828125,129.41666666666666,457.8828125,135.25520833333334L457.8828125,141.09375" id="edge2" class="relation" marker-start="url(#aggregationStart)"></path><path d="M218.73828125,47.62878681644808L275.6614583333333,57.36773901370673C332.5846354166667,67.10669121096538,446.4309895833333,86.5845956054827,511.1846190230478,102.15688113607469C575.9382484627623,117.72916666666667,591.5991531755245,129.39583333333334,599.4296055319056,135.22916666666666L607.2600578882868,141.0625" id="edge3" class="relation" marker-start="url(#aggregationStart)"></path><path d="M276.7109375,65.45190247127485L256.8014322916667,72.22033539272904C236.89192708333334,78.98876831418323,197.07291666666666,92.5256341570916,168.9791347528595,105.13260874521247C140.88535283905227,117.73958333333333,124.51679942810456,129.41666666666666,116.33252272263071,135.25520833333334L108.14824601715686,141.09375" id="edge4" class="relation" marker-start="url(#extensionStart)"></path><path d="M350.015625,81.0625L350.015625,85.22916666666667C350.015625,89.39583333333333,350.015625,97.72916666666667,343.81937457000345,106.0625C337.6231241400069,114.39583333333333,325.23062328001373,122.72916666666667,319.0343728500172,126.89583333333333L312.8381224200206,131.0625" id="edge5" class="relation" marker-start="url(#extensionStart)"></path><path d="M423.3203125,56.46098273617534L461.3626302083333,64.72790228014611C499.4049479166667,72.9948218241169,575.4895833333334,89.52866091205844,612.568708747205,103.62891378936256C649.6478341610767,117.72916666666667,647.7214495721533,129.39583333333334,646.7582572776918,135.22916666666666L645.7950649832301,141.0625" id="edge6" class="relation" marker-start="url(#dependencyStart)" marker-end="url(#dependencyEnd)"></path></svg>