<?xml version="1.0" encoding="UTF-8" standalone="no"?><svg xmlns="http://www.w3.org/2000/svg" xmlns:xlink="http://www.w3.org/1999/xlink" contentScriptType="application/ecmascript" contentStyleType="text/css" height="1085px" preserveAspectRatio="none" style="width:1823px;height:1085px;background:#00000000;" version="1.1" viewBox="0 0 1823 1085" width="1823px" zoomAndPan="magnify"><defs/><g><!--MD5=[0ca52150d58ea9226726bc176f1d20cf]
class CrashDriverInfo--><rect codeLine="8" fill="#F8F8F8" height="48" id="CrashDriverInfo" style="stroke:#383838;stroke-width:1.5;" width="121" x="1303.75" y="237"/><ellipse cx="1318.75" cy="253" fill="#C2C2C2" rx="11" ry="11" style="stroke:#383838;stroke-width:1.0;"/><path d="M1321.2231,259.1431 Q1320.6421,259.4419 1320.0029,259.5913 Q1319.3638,259.7407 1318.6582,259.7407 Q1316.1514,259.7407 1314.8315,258.0889 Q1313.5117,256.437 1313.5117,253.3159 Q1313.5117,250.1865 1314.8315,248.5347 Q1316.1514,246.8828 1318.6582,246.8828 Q1319.3638,246.8828 1320.0112,247.0322 Q1320.6587,247.1816 1321.2231,247.4805 L1321.2231,250.2031 Q1320.5923,249.6221 1319.9988,249.3523 Q1319.4053,249.0825 1318.7744,249.0825 Q1317.4297,249.0825 1316.7449,250.1492 Q1316.0601,251.2158 1316.0601,253.3159 Q1316.0601,255.4077 1316.7449,256.4744 Q1317.4297,257.541 1318.7744,257.541 Q1319.4053,257.541 1319.9988,257.2712 Q1320.5923,257.0015 1321.2231,256.4204 Z " fill="#000000"/><text fill="#000000" font-family="sans-serif" font-size="12" lengthAdjust="spacing" textLength="89" x="1332.75" y="257.5352">CrashDriverInfo</text><line style="stroke:#383838;stroke-width:1.5;" x1="1304.75" x2="1423.75" y1="269" y2="269"/><line style="stroke:#383838;stroke-width:1.5;" x1="1304.75" x2="1423.75" y1="277" y2="277"/><!--MD5=[09ce52be0ee7de43c61b6e2d59bf108b]
class Person--><rect codeLine="19" fill="#F8F8F8" height="48" id="Person" style="stroke:#383838;stroke-width:1.5;" width="71" x="1020.75" y="736"/><ellipse cx="1035.75" cy="752" fill="#C2C2C2" rx="11" ry="11" style="stroke:#383838;stroke-width:1.0;"/><path d="M1038.2231,758.1431 Q1037.6421,758.4419 1037.0029,758.5913 Q1036.3638,758.7407 1035.6582,758.7407 Q1033.1514,758.7407 1031.8315,757.0889 Q1030.5117,755.437 1030.5117,752.3159 Q1030.5117,749.1865 1031.8315,747.5347 Q1033.1514,745.8828 1035.6582,745.8828 Q1036.3638,745.8828 1037.0112,746.0322 Q1037.6587,746.1816 1038.2231,746.4805 L1038.2231,749.2031 Q1037.5923,748.6221 1036.9988,748.3523 Q1036.4053,748.0825 1035.7744,748.0825 Q1034.4297,748.0825 1033.7449,749.1492 Q1033.0601,750.2158 1033.0601,752.3159 Q1033.0601,754.4077 1033.7449,755.4744 Q1034.4297,756.541 1035.7744,756.541 Q1036.4053,756.541 1036.9988,756.2712 Q1037.5923,756.0015 1038.2231,755.4204 Z " fill="#000000"/><text fill="#000000" font-family="sans-serif" font-size="12" lengthAdjust="spacing" textLength="39" x="1049.75" y="756.5352">Person</text><line style="stroke:#383838;stroke-width:1.5;" x1="1021.75" x2="1090.75" y1="768" y2="768"/><line style="stroke:#383838;stroke-width:1.5;" x1="1021.75" x2="1090.75" y1="776" y2="776"/><!--MD5=[4bf124702e26e8742700d64b46e56cfa]
class Crash--><rect codeLine="62" fill="#F8F8F8" height="48" id="Crash" style="stroke:#383838;stroke-width:1.5;" width="65" x="774.75" y="352"/><ellipse cx="789.75" cy="368" fill="#C2C2C2" rx="11" ry="11" style="stroke:#383838;stroke-width:1.0;"/><path d="M792.2231,374.1431 Q791.6421,374.4419 791.0029,374.5913 Q790.3638,374.7407 789.6582,374.7407 Q787.1514,374.7407 785.8315,373.0889 Q784.5117,371.437 784.5117,368.3159 Q784.5117,365.1865 785.8315,363.5347 Q787.1514,361.8828 789.6582,361.8828 Q790.3638,361.8828 791.0112,362.0322 Q791.6587,362.1816 792.2231,362.4805 L792.2231,365.2031 Q791.5923,364.6221 790.9988,364.3523 Q790.4053,364.0825 789.7744,364.0825 Q788.4297,364.0825 787.7449,365.1492 Q787.0601,366.2158 787.0601,368.3159 Q787.0601,370.4077 787.7449,371.4744 Q788.4297,372.541 789.7744,372.541 Q790.4053,372.541 790.9988,372.2712 Q791.5923,372.0015 792.2231,371.4204 Z " fill="#000000"/><text fill="#000000" font-family="sans-serif" font-size="12" lengthAdjust="spacing" textLength="33" x="803.75" y="372.5352">Crash</text><line style="stroke:#383838;stroke-width:1.5;" x1="775.75" x2="838.75" y1="384" y2="384"/><line style="stroke:#383838;stroke-width:1.5;" x1="775.75" x2="838.75" y1="392" y2="392"/><!--MD5=[9dca03ec17ce011482ca677557bb1826]
class PersonChargeAssociation--><rect codeLine="37" fill="#F8F8F8" height="48" id="PersonChargeAssociation" style="stroke:#383838;stroke-width:1.5;" width="176" x="1640" y="877"/><ellipse cx="1655" cy="893" fill="#C2C2C2" rx="11" ry="11" style="stroke:#383838;stroke-width:1.0;"/><path d="M1657.4731,899.1431 Q1656.8921,899.4419 1656.2529,899.5913 Q1655.6138,899.7407 1654.9082,899.7407 Q1652.4014,899.7407 1651.0815,898.0889 Q1649.7617,896.437 1649.7617,893.3159 Q1649.7617,890.1865 1651.0815,888.5347 Q1652.4014,886.8828 1654.9082,886.8828 Q1655.6138,886.8828 1656.2612,887.0322 Q1656.9087,887.1816 1657.4731,887.4805 L1657.4731,890.2031 Q1656.8423,889.6221 1656.2488,889.3523 Q1655.6553,889.0825 1655.0244,889.0825 Q1653.6797,889.0825 1652.9949,890.1492 Q1652.3101,891.2158 1652.3101,893.3159 Q1652.3101,895.4077 1652.9949,896.4744 Q1653.6797,897.541 1655.0244,897.541 Q1655.6553,897.541 1656.2488,897.2712 Q1656.8423,897.0015 1657.4731,896.4204 Z " fill="#000000"/><text fill="#000000" font-family="sans-serif" font-size="12" lengthAdjust="spacing" textLength="144" x="1669" y="897.5352">PersonChargeAssociation</text><line style="stroke:#383838;stroke-width:1.5;" x1="1641" x2="1815" y1="909" y2="909"/><line style="stroke:#383838;stroke-width:1.5;" x1="1641" x2="1815" y1="917" y2="917"/><!--MD5=[b8a8351f4de83c8eb85722e96e223bf9]
class Charge--><rect codeLine="43" fill="#F8F8F8" height="73.9102" id="Charge" style="stroke:#383838;stroke-width:1.5;" width="193" x="1462.75" y="1005"/><ellipse cx="1534.5" cy="1021" fill="#C2C2C2" rx="11" ry="11" style="stroke:#383838;stroke-width:1.0;"/><path d="M1536.9731,1027.1431 Q1536.3921,1027.4419 1535.7529,1027.5913 Q1535.1138,1027.7407 1534.4082,1027.7407 Q1531.9014,1027.7407 1530.5815,1026.0889 Q1529.2617,1024.437 1529.2617,1021.3159 Q1529.2617,1018.1865 1530.5815,1016.5347 Q1531.9014,1014.8828 1534.4082,1014.8828 Q1535.1138,1014.8828 1535.7612,1015.0322 Q1536.4087,1015.1816 1536.9731,1015.4805 L1536.9731,1018.2031 Q1536.3423,1017.6221 1535.7488,1017.3523 Q1535.1553,1017.0825 1534.5244,1017.0825 Q1533.1797,1017.0825 1532.4949,1018.1492 Q1531.8101,1019.2158 1531.8101,1021.3159 Q1531.8101,1023.4077 1532.4949,1024.4744 Q1533.1797,1025.541 1534.5244,1025.541 Q1535.1553,1025.541 1535.7488,1025.2712 Q1536.3423,1025.0015 1536.9731,1024.4204 Z " fill="#000000"/><text fill="#000000" font-family="sans-serif" font-size="12" lengthAdjust="spacing" textLength="41" x="1555" y="1025.5352">Charge</text><line style="stroke:#383838;stroke-width:1.5;" x1="1463.75" x2="1654.75" y1="1037" y2="1037"/><ellipse cx="1473.75" cy="1048" fill="none" rx="3" ry="3" style="stroke:#545454;stroke-width:1.0;"/><text fill="#000000" font-family="sans-serif" font-size="11" lengthAdjust="spacing" textLength="160" x="1482.75" y="1051.6348">String ChargeDescriptionText</text><ellipse cx="1473.75" cy="1060.9551" fill="none" rx="3" ry="3" style="stroke:#545454;stroke-width:1.0;"/><text fill="#000000" font-family="sans-serif" font-size="11" lengthAdjust="spacing" textLength="167" x="1482.75" y="1064.5898">Boolean ChargeFelonyIndicator</text><line style="stroke:#383838;stroke-width:1.5;" x1="1463.75" x2="1654.75" y1="1070.9102" y2="1070.9102"/><!--MD5=[7d2c4ae7970c32f414f93e7b18676929]
class Metadata--><rect codeLine="48" fill="#F8F8F8" height="60.9551" id="Metadata" style="stroke:#383838;stroke-width:1.5;" width="227" x="1144.75" y="345.5"/><ellipse cx="1227" cy="361.5" fill="#C2C2C2" rx="11" ry="11" style="stroke:#383838;stroke-width:1.0;"/><path d="M1229.4731,367.6431 Q1228.8921,367.9419 1228.2529,368.0913 Q1227.6138,368.2407 1226.9082,368.2407 Q1224.4014,368.2407 1223.0815,366.5889 Q1221.7617,364.937 1221.7617,361.8159 Q1221.7617,358.6865 1223.0815,357.0347 Q1224.4014,355.3828 1226.9082,355.3828 Q1227.6138,355.3828 1228.2612,355.5322 Q1228.9087,355.6816 1229.4731,355.9805 L1229.4731,358.7031 Q1228.8423,358.1221 1228.2488,357.8523 Q1227.6553,357.5825 1227.0244,357.5825 Q1225.6797,357.5825 1224.9949,358.6492 Q1224.3101,359.7158 1224.3101,361.8159 Q1224.3101,363.9077 1224.9949,364.9744 Q1225.6797,366.041 1227.0244,366.041 Q1227.6553,366.041 1228.2488,365.7712 Q1228.8423,365.5015 1229.4731,364.9204 Z " fill="#000000"/><text fill="#000000" font-family="sans-serif" font-size="12" lengthAdjust="spacing" textLength="54" x="1247.5" y="366.0352">Metadata</text><line style="stroke:#383838;stroke-width:1.5;" x1="1145.75" x2="1370.75" y1="377.5" y2="377.5"/><ellipse cx="1155.75" cy="388.5" fill="none" rx="3" ry="3" style="stroke:#545454;stroke-width:1.0;"/><text fill="#000000" font-family="sans-serif" font-size="11" lengthAdjust="spacing" textLength="201" x="1164.75" y="392.1348">Boolean CriminalInformationIndicator</text><line style="stroke:#383838;stroke-width:1.5;" x1="1145.75" x2="1370.75" y1="398.4551" y2="398.4551"/><!--MD5=[6bb9af735327eaee89eff0a188106a74]
class PrivacyMetadata--><rect codeLine="52" fill="#F8F8F8" height="60.9551" id="PrivacyMetadata" style="stroke:#383838;stroke-width:1.5;" width="127" x="1406.75" y="345.5"/><ellipse cx="1422.2" cy="361.5" fill="#C2C2C2" rx="11" ry="11" style="stroke:#383838;stroke-width:1.0;"/><path d="M1424.6731,367.6431 Q1424.0921,367.9419 1423.4529,368.0913 Q1422.8138,368.2407 1422.1082,368.2407 Q1419.6014,368.2407 1418.2815,366.5889 Q1416.9617,364.937 1416.9617,361.8159 Q1416.9617,358.6865 1418.2815,357.0347 Q1419.6014,355.3828 1422.1082,355.3828 Q1422.8138,355.3828 1423.4612,355.5322 Q1424.1087,355.6816 1424.6731,355.9805 L1424.6731,358.7031 Q1424.0423,358.1221 1423.4488,357.8523 Q1422.8553,357.5825 1422.2244,357.5825 Q1420.8797,357.5825 1420.1949,358.6492 Q1419.5101,359.7158 1419.5101,361.8159 Q1419.5101,363.9077 1420.1949,364.9744 Q1420.8797,366.041 1422.2244,366.041 Q1422.8553,366.041 1423.4488,365.7712 Q1424.0423,365.5015 1424.6731,364.9204 Z " fill="#000000"/><text fill="#000000" font-family="sans-serif" font-size="12" lengthAdjust="spacing" textLength="94" x="1436.3" y="366.0352">PrivacyMetadata</text><line style="stroke:#383838;stroke-width:1.5;" x1="1407.75" x2="1532.75" y1="377.5" y2="377.5"/><ellipse cx="1417.75" cy="388.5" fill="none" rx="3" ry="3" style="stroke:#545454;stroke-width:1.0;"/><text fill="#000000" font-family="sans-serif" font-size="11" lengthAdjust="spacing" textLength="101" x="1426.75" y="392.1348">String PrivacyCode</text><line style="stroke:#383838;stroke-width:1.5;" x1="1407.75" x2="1532.75" y1="398.4551" y2="398.4551"/><!--MD5=[cedd7d1f3986db0d22ffdda3d8cf74b8]
class PersonName--><rect codeLine="25" fill="#F8F8F8" height="86.8652" id="PersonName" style="stroke:#383838;stroke-width:1.5;" width="163" x="1064.75" y="857.5"/><ellipse cx="1105.85" cy="873.5" fill="#C2C2C2" rx="11" ry="11" style="stroke:#383838;stroke-width:1.0;"/><path d="M1108.3231,879.6431 Q1107.7421,879.9419 1107.1029,880.0913 Q1106.4638,880.2407 1105.7582,880.2407 Q1103.2514,880.2407 1101.9315,878.5889 Q1100.6117,876.937 1100.6117,873.8159 Q1100.6117,870.6865 1101.9315,869.0347 Q1103.2514,867.3828 1105.7582,867.3828 Q1106.4638,867.3828 1107.1112,867.5322 Q1107.7587,867.6816 1108.3231,867.9805 L1108.3231,870.7031 Q1107.6923,870.1221 1107.0988,869.8523 Q1106.5053,869.5825 1105.8744,869.5825 Q1104.5297,869.5825 1103.8449,870.6492 Q1103.1601,871.7158 1103.1601,873.8159 Q1103.1601,875.9077 1103.8449,876.9744 Q1104.5297,878.041 1105.8744,878.041 Q1106.5053,878.041 1107.0988,877.7712 Q1107.6923,877.5015 1108.3231,876.9204 Z " fill="#000000"/><text fill="#000000" font-family="sans-serif" font-size="12" lengthAdjust="spacing" textLength="73" x="1125.65" y="878.0352">PersonName</text><line style="stroke:#383838;stroke-width:1.5;" x1="1065.75" x2="1226.75" y1="889.5" y2="889.5"/><ellipse cx="1075.75" cy="900.5" fill="none" rx="3" ry="3" style="stroke:#545454;stroke-width:1.0;"/><text fill="#000000" font-family="sans-serif" font-size="11" lengthAdjust="spacing" textLength="132" x="1084.75" y="904.1348">String PersonGivenName</text><ellipse cx="1075.75" cy="913.4551" fill="none" rx="3" ry="3" style="stroke:#545454;stroke-width:1.0;"/><text fill="#000000" font-family="sans-serif" font-size="11" lengthAdjust="spacing" textLength="137" x="1084.75" y="917.0898">String PersonMiddleName</text><ellipse cx="1075.75" cy="926.4102" fill="none" rx="3" ry="3" style="stroke:#545454;stroke-width:1.0;"/><text fill="#000000" font-family="sans-serif" font-size="11" lengthAdjust="spacing" textLength="124" x="1084.75" y="930.0449">String PersonLastName</text><line style="stroke:#383838;stroke-width:1.5;" x1="1065.75" x2="1226.75" y1="936.3652" y2="936.3652"/><!--MD5=[ec2dfac1cefc2697463488f5dd0c38b2]
class PersonBirthDate--><rect codeLine="31" fill="#F8F8F8" height="60.9551" id="PersonBirthDate" style="stroke:#383838;stroke-width:1.5;" width="124" x="905" y="870.5"/><ellipse cx="920" cy="886.5" fill="#C2C2C2" rx="11" ry="11" style="stroke:#383838;stroke-width:1.0;"/><path d="M922.4731,892.6431 Q921.8921,892.9419 921.2529,893.0913 Q920.6138,893.2407 919.9082,893.2407 Q917.4014,893.2407 916.0815,891.5889 Q914.7617,889.937 914.7617,886.8159 Q914.7617,883.6865 916.0815,882.0347 Q917.4014,880.3828 919.9082,880.3828 Q920.6138,880.3828 921.2612,880.5322 Q921.9087,880.6816 922.4731,880.9805 L922.4731,883.7031 Q921.8423,883.1221 921.2488,882.8523 Q920.6553,882.5825 920.0244,882.5825 Q918.6797,882.5825 917.9949,883.6492 Q917.3101,884.7158 917.3101,886.8159 Q917.3101,888.9077 917.9949,889.9744 Q918.6797,891.041 920.0244,891.041 Q920.6553,891.041 921.2488,890.7712 Q921.8423,890.5015 922.4731,889.9204 Z " fill="#000000"/><text fill="#000000" font-family="sans-serif" font-size="12" lengthAdjust="spacing" textLength="92" x="934" y="891.0352">PersonBirthDate</text><line style="stroke:#383838;stroke-width:1.5;" x1="906" x2="1028" y1="902.5" y2="902.5"/><ellipse cx="916" cy="913.5" fill="none" rx="3" ry="3" style="stroke:#545454;stroke-width:1.0;"/><text fill="#000000" font-family="sans-serif" font-size="11" lengthAdjust="spacing" textLength="51" x="925" y="917.1348">Date Date</text><line style="stroke:#383838;stroke-width:1.5;" x1="906" x2="1028" y1="923.4551" y2="923.4551"/><!--MD5=[b9be2c694e35ab9e85e666b830f85409]
class Association--><rect codeLine="35" fill="#F8F8F8" height="48" id="Association" style="stroke:#383838;stroke-width:1.5;" width="96" x="1640" y="736"/><ellipse cx="1655" cy="752" fill="#C2C2C2" rx="11" ry="11" style="stroke:#383838;stroke-width:1.0;"/><path d="M1657.4731,758.1431 Q1656.8921,758.4419 1656.2529,758.5913 Q1655.6138,758.7407 1654.9082,758.7407 Q1652.4014,758.7407 1651.0815,757.0889 Q1649.7617,755.437 1649.7617,752.3159 Q1649.7617,749.1865 1651.0815,747.5347 Q1652.4014,745.8828 1654.9082,745.8828 Q1655.6138,745.8828 1656.2612,746.0322 Q1656.9087,746.1816 1657.4731,746.4805 L1657.4731,749.2031 Q1656.8423,748.6221 1656.2488,748.3523 Q1655.6553,748.0825 1655.0244,748.0825 Q1653.6797,748.0825 1652.9949,749.1492 Q1652.3101,750.2158 1652.3101,752.3159 Q1652.3101,754.4077 1652.9949,755.4744 Q1653.6797,756.541 1655.0244,756.541 Q1655.6553,756.541 1656.2488,756.2712 Q1656.8423,756.0015 1657.4731,755.4204 Z " fill="#000000"/><text fill="#000000" font-family="sans-serif" font-size="12" lengthAdjust="spacing" textLength="64" x="1669" y="756.5352">Association</text><line style="stroke:#383838;stroke-width:1.5;" x1="1641" x2="1735" y1="768" y2="768"/><line style="stroke:#383838;stroke-width:1.5;" x1="1641" x2="1735" y1="776" y2="776"/><ellipse cx="1532" cy="901" fill="#000000" rx="2" ry="2" style="stroke:none;stroke-width:1.0;"/><!--MD5=[c881b25adf3665c6568c9693d41a70f3]
class Activity--><rect codeLine="90" fill="#F8F8F8" height="48" id="Activity" style="stroke:#383838;stroke-width:1.5;" width="72" x="832" y="7"/><ellipse cx="847" cy="23" fill="#C2C2C2" rx="11" ry="11" style="stroke:#383838;stroke-width:1.0;"/><path d="M849.4731,29.1431 Q848.8921,29.4419 848.2529,29.5913 Q847.6138,29.7407 846.9082,29.7407 Q844.4014,29.7407 843.0815,28.0889 Q841.7617,26.437 841.7617,23.3159 Q841.7617,20.1865 843.0815,18.5347 Q844.4014,16.8828 846.9082,16.8828 Q847.6138,16.8828 848.2612,17.0322 Q848.9087,17.1816 849.4731,17.4805 L849.4731,20.2031 Q848.8423,19.6221 848.2488,19.3523 Q847.6553,19.0825 847.0244,19.0825 Q845.6797,19.0825 844.9949,20.1492 Q844.3101,21.2158 844.3101,23.3159 Q844.3101,25.4077 844.9949,26.4744 Q845.6797,27.541 847.0244,27.541 Q847.6553,27.541 848.2488,27.2712 Q848.8423,27.0015 849.4731,26.4204 Z " fill="#000000"/><text fill="#000000" font-family="sans-serif" font-size="12" lengthAdjust="spacing" textLength="40" x="861" y="27.5352">Activity</text><line style="stroke:#383838;stroke-width:1.5;" x1="833" x2="903" y1="39" y2="39"/><line style="stroke:#383838;stroke-width:1.5;" x1="833" x2="903" y1="47" y2="47"/><!--MD5=[a2a32eb8740a34a1508bfb05a6833e01]
class Incident--><rect codeLine="87" fill="#F8F8F8" height="48" id="Incident" style="stroke:#383838;stroke-width:1.5;" width="77" x="768.75" y="122"/><ellipse cx="783.75" cy="138" fill="#C2C2C2" rx="11" ry="11" style="stroke:#383838;stroke-width:1.0;"/><path d="M786.2231,144.1431 Q785.6421,144.4419 785.0029,144.5913 Q784.3638,144.7407 783.6582,144.7407 Q781.1514,144.7407 779.8315,143.0889 Q778.5117,141.437 778.5117,138.3159 Q778.5117,135.1865 779.8315,133.5347 Q781.1514,131.8828 783.6582,131.8828 Q784.3638,131.8828 785.0112,132.0322 Q785.6587,132.1816 786.2231,132.4805 L786.2231,135.2031 Q785.5923,134.6221 784.9988,134.3523 Q784.4053,134.0825 783.7744,134.0825 Q782.4297,134.0825 781.7449,135.1492 Q781.0601,136.2158 781.0601,138.3159 Q781.0601,140.4077 781.7449,141.4744 Q782.4297,142.541 783.7744,142.541 Q784.4053,142.541 784.9988,142.2712 Q785.5923,142.0015 786.2231,141.4204 Z " fill="#000000"/><text fill="#000000" font-family="sans-serif" font-size="12" lengthAdjust="spacing" textLength="45" x="797.75" y="142.5352">Incident</text><line style="stroke:#383838;stroke-width:1.5;" x1="769.75" x2="844.75" y1="154" y2="154"/><line style="stroke:#383838;stroke-width:1.5;" x1="769.75" x2="844.75" y1="162" y2="162"/><!--MD5=[36f6669a816e521f5924a148d206c845]
class DrivingIncident--><rect fill="#F8F8F8" height="48" id="DrivingIncident" style="stroke:#383838;stroke-width:1.5;" width="117" x="748.75" y="237"/><ellipse cx="763.75" cy="253" fill="#C2C2C2" rx="11" ry="11" style="stroke:#383838;stroke-width:1.0;"/><path d="M766.2231,259.1431 Q765.6421,259.4419 765.0029,259.5913 Q764.3638,259.7407 763.6582,259.7407 Q761.1514,259.7407 759.8315,258.0889 Q758.5117,256.437 758.5117,253.3159 Q758.5117,250.1865 759.8315,248.5347 Q761.1514,246.8828 763.6582,246.8828 Q764.3638,246.8828 765.0112,247.0322 Q765.6587,247.1816 766.2231,247.4805 L766.2231,250.2031 Q765.5923,249.6221 764.9988,249.3523 Q764.4053,249.0825 763.7744,249.0825 Q762.4297,249.0825 761.7449,250.1492 Q761.0601,251.2158 761.0601,253.3159 Q761.0601,255.4077 761.7449,256.4744 Q762.4297,257.541 763.7744,257.541 Q764.4053,257.541 764.9988,257.2712 Q765.5923,257.0015 766.2231,256.4204 Z " fill="#000000"/><text fill="#000000" font-family="sans-serif" font-size="12" lengthAdjust="spacing" textLength="85" x="777.75" y="257.5352">DrivingIncident</text><line style="stroke:#383838;stroke-width:1.5;" x1="749.75" x2="864.75" y1="269" y2="269"/><line style="stroke:#383838;stroke-width:1.5;" x1="749.75" x2="864.75" y1="277" y2="277"/><!--MD5=[9279b3c725445f06cad4eebf38049ac2]
class ActivityDate--><rect codeLine="93" fill="#F8F8F8" height="60.9551" id="ActivityDate" style="stroke:#383838;stroke-width:1.5;" width="99" x="880.75" y="115.5"/><ellipse cx="895.75" cy="131.5" fill="#C2C2C2" rx="11" ry="11" style="stroke:#383838;stroke-width:1.0;"/><path d="M898.2231,137.6431 Q897.6421,137.9419 897.0029,138.0913 Q896.3638,138.2407 895.6582,138.2407 Q893.1514,138.2407 891.8315,136.5889 Q890.5117,134.937 890.5117,131.8159 Q890.5117,128.6865 891.8315,127.0347 Q893.1514,125.3828 895.6582,125.3828 Q896.3638,125.3828 897.0112,125.5322 Q897.6587,125.6816 898.2231,125.9805 L898.2231,128.7031 Q897.5923,128.1221 896.9988,127.8523 Q896.4053,127.5825 895.7744,127.5825 Q894.4297,127.5825 893.7449,128.6492 Q893.0601,129.7158 893.0601,131.8159 Q893.0601,133.9077 893.7449,134.9744 Q894.4297,136.041 895.7744,136.041 Q896.4053,136.041 896.9988,135.7712 Q897.5923,135.5015 898.2231,134.9204 Z " fill="#000000"/><text fill="#000000" font-family="sans-serif" font-size="12" lengthAdjust="spacing" textLength="67" x="909.75" y="136.0352">ActivityDate</text><line style="stroke:#383838;stroke-width:1.5;" x1="881.75" x2="978.75" y1="147.5" y2="147.5"/><ellipse cx="891.75" cy="158.5" fill="none" rx="3" ry="3" style="stroke:#545454;stroke-width:1.0;"/><text fill="#000000" font-family="sans-serif" font-size="11" lengthAdjust="spacing" textLength="51" x="900.75" y="162.1348">Date Date</text><line style="stroke:#383838;stroke-width:1.5;" x1="881.75" x2="978.75" y1="168.4551" y2="168.4551"/><!--MD5=[680836abe462d552d920d2d1701723e1]
class CrashVehicle--><rect fill="#F8F8F8" height="48" id="CrashVehicle" style="stroke:#383838;stroke-width:1.5;" width="106" x="651" y="474"/><ellipse cx="666" cy="490" fill="#C2C2C2" rx="11" ry="11" style="stroke:#383838;stroke-width:1.0;"/><path d="M668.4731,496.1431 Q667.8921,496.4419 667.2529,496.5913 Q666.6138,496.7407 665.9082,496.7407 Q663.4014,496.7407 662.0815,495.0889 Q660.7617,493.437 660.7617,490.3159 Q660.7617,487.1865 662.0815,485.5347 Q663.4014,483.8828 665.9082,483.8828 Q666.6138,483.8828 667.2612,484.0322 Q667.9087,484.1816 668.4731,484.4805 L668.4731,487.2031 Q667.8423,486.6221 667.2488,486.3523 Q666.6553,486.0825 666.0244,486.0825 Q664.6797,486.0825 663.9949,487.1492 Q663.3101,488.2158 663.3101,490.3159 Q663.3101,492.4077 663.9949,493.4744 Q664.6797,494.541 666.0244,494.541 Q666.6553,494.541 667.2488,494.2712 Q667.8423,494.0015 668.4731,493.4204 Z " fill="#000000"/><text fill="#000000" font-family="sans-serif" font-size="12" lengthAdjust="spacing" textLength="74" x="680" y="494.5352">CrashVehicle</text><line style="stroke:#383838;stroke-width:1.5;" x1="652" x2="756" y1="506" y2="506"/><line style="stroke:#383838;stroke-width:1.5;" x1="652" x2="756" y1="514" y2="514"/><!--MD5=[8c39359234e234240a191058ee6dcfe5]
class CrashDriver--><rect codeLine="76" fill="#F8F8F8" height="48" id="CrashDriver" style="stroke:#383838;stroke-width:1.5;" width="100" x="654" y="602"/><ellipse cx="669" cy="618" fill="#C2C2C2" rx="11" ry="11" style="stroke:#383838;stroke-width:1.0;"/><path d="M671.4731,624.1431 Q670.8921,624.4419 670.2529,624.5913 Q669.6138,624.7407 668.9082,624.7407 Q666.4014,624.7407 665.0815,623.0889 Q663.7617,621.437 663.7617,618.3159 Q663.7617,615.1865 665.0815,613.5347 Q666.4014,611.8828 668.9082,611.8828 Q669.6138,611.8828 670.2612,612.0322 Q670.9087,612.1816 671.4731,612.4805 L671.4731,615.2031 Q670.8423,614.6221 670.2488,614.3523 Q669.6553,614.0825 669.0244,614.0825 Q667.6797,614.0825 666.9949,615.1492 Q666.3101,616.2158 666.3101,618.3159 Q666.3101,620.4077 666.9949,621.4744 Q667.6797,622.541 669.0244,622.541 Q669.6553,622.541 670.2488,622.2712 Q670.8423,622.0015 671.4731,621.4204 Z " fill="#000000"/><text fill="#000000" font-family="sans-serif" font-size="12" lengthAdjust="spacing" textLength="68" x="683" y="622.5352">CrashDriver</text><line style="stroke:#383838;stroke-width:1.5;" x1="655" x2="753" y1="634" y2="634"/><line style="stroke:#383838;stroke-width:1.5;" x1="655" x2="753" y1="642" y2="642"/><!--MD5=[29c8db4e642d991ef28a2b68cb3567ba]
class CrashPerson--><rect codeLine="79" fill="#F8F8F8" height="60.9551" id="CrashPerson" style="stroke:#383838;stroke-width:1.5;" width="235" x="792.75" y="467.5"/><ellipse cx="870" cy="483.5" fill="#C2C2C2" rx="11" ry="11" style="stroke:#383838;stroke-width:1.0;"/><path d="M872.4731,489.6431 Q871.8921,489.9419 871.2529,490.0913 Q870.6138,490.2407 869.9082,490.2407 Q867.4014,490.2407 866.0815,488.5889 Q864.7617,486.937 864.7617,483.8159 Q864.7617,480.6865 866.0815,479.0347 Q867.4014,477.3828 869.9082,477.3828 Q870.6138,477.3828 871.2612,477.5322 Q871.9087,477.6816 872.4731,477.9805 L872.4731,480.7031 Q871.8423,480.1221 871.2488,479.8523 Q870.6553,479.5825 870.0244,479.5825 Q868.6797,479.5825 867.9949,480.6492 Q867.3101,481.7158 867.3101,483.8159 Q867.3101,485.9077 867.9949,486.9744 Q868.6797,488.041 870.0244,488.041 Q870.6553,488.041 871.2488,487.7712 Q871.8423,487.5015 872.4731,486.9204 Z " fill="#000000"/><text fill="#000000" font-family="sans-serif" font-size="12" lengthAdjust="spacing" textLength="72" x="890.5" y="488.0352">CrashPerson</text><line style="stroke:#383838;stroke-width:1.5;" x1="793.75" x2="1026.75" y1="499.5" y2="499.5"/><ellipse cx="803.75" cy="510.5" fill="none" rx="3" ry="3" style="stroke:#545454;stroke-width:1.0;"/><text fill="#000000" font-family="sans-serif" font-size="11" lengthAdjust="spacing" textLength="209" x="812.75" y="514.1348">Boolean PersonDefenestrationIndicator</text><line style="stroke:#383838;stroke-width:1.5;" x1="793.75" x2="1026.75" y1="520.4551" y2="520.4551"/><!--MD5=[91e7d895635beffd37495b5768e3e9fa]
class CrashPersonInjury--><rect codeLine="82" fill="#F8F8F8" height="73.9102" id="CrashPersonInjury" style="stroke:#383838;stroke-width:1.5;" width="178" x="789" y="589"/><ellipse cx="822.9" cy="605" fill="#C2C2C2" rx="11" ry="11" style="stroke:#383838;stroke-width:1.0;"/><path d="M825.3731,611.1431 Q824.7921,611.4419 824.1529,611.5913 Q823.5138,611.7407 822.8082,611.7407 Q820.3014,611.7407 818.9815,610.0889 Q817.6617,608.437 817.6617,605.3159 Q817.6617,602.1865 818.9815,600.5347 Q820.3014,598.8828 822.8082,598.8828 Q823.5138,598.8828 824.1612,599.0322 Q824.8087,599.1816 825.3731,599.4805 L825.3731,602.2031 Q824.7423,601.6221 824.1488,601.3523 Q823.5553,601.0825 822.9244,601.0825 Q821.5797,601.0825 820.8949,602.1492 Q820.2101,603.2158 820.2101,605.3159 Q820.2101,607.4077 820.8949,608.4744 Q821.5797,609.541 822.9244,609.541 Q823.5553,609.541 824.1488,609.2712 Q824.7423,609.0015 825.3731,608.4204 Z " fill="#000000"/><text fill="#000000" font-family="sans-serif" font-size="12" lengthAdjust="spacing" textLength="104" x="841.1" y="609.5352">CrashPersonInjury</text><line style="stroke:#383838;stroke-width:1.5;" x1="790" x2="966" y1="621" y2="621"/><ellipse cx="800" cy="632" fill="none" rx="3" ry="3" style="stroke:#545454;stroke-width:1.0;"/><text fill="#000000" font-family="sans-serif" font-size="11" lengthAdjust="spacing" textLength="152" x="809" y="635.6348">String InjuryDescriptionText</text><ellipse cx="800" cy="644.9551" fill="none" rx="3" ry="3" style="stroke:#545454;stroke-width:1.0;"/><text fill="#000000" font-family="sans-serif" font-size="11" lengthAdjust="spacing" textLength="136" x="809" y="648.5898">String InjurySeverityCode</text><line style="stroke:#383838;stroke-width:1.5;" x1="790" x2="966" y1="654.9102" y2="654.9102"/><!--MD5=[4f1f3706c1a355a8488e154afcaed5df]
class Location--><rect codeLine="121" fill="#F8F8F8" height="48" id="Location" style="stroke:#383838;stroke-width:1.5;" width="79" x="286.75" y="474"/><ellipse cx="301.75" cy="490" fill="#C2C2C2" rx="11" ry="11" style="stroke:#383838;stroke-width:1.0;"/><path d="M304.2231,496.1431 Q303.6421,496.4419 303.0029,496.5913 Q302.3638,496.7407 301.6582,496.7407 Q299.1514,496.7407 297.8315,495.0889 Q296.5117,493.437 296.5117,490.3159 Q296.5117,487.1865 297.8315,485.5347 Q299.1514,483.8828 301.6582,483.8828 Q302.3638,483.8828 303.0112,484.0322 Q303.6587,484.1816 304.2231,484.4805 L304.2231,487.2031 Q303.5923,486.6221 302.9988,486.3523 Q302.4053,486.0825 301.7744,486.0825 Q300.4297,486.0825 299.7449,487.1492 Q299.0601,488.2158 299.0601,490.3159 Q299.0601,492.4077 299.7449,493.4744 Q300.4297,494.541 301.7744,494.541 Q302.4053,494.541 302.9988,494.2712 Q303.5923,494.0015 304.2231,493.4204 Z " fill="#000000"/><text fill="#000000" font-family="sans-serif" font-size="12" lengthAdjust="spacing" textLength="47" x="315.75" y="494.5352">Location</text><line style="stroke:#383838;stroke-width:1.5;" x1="287.75" x2="364.75" y1="506" y2="506"/><line style="stroke:#383838;stroke-width:1.5;" x1="287.75" x2="364.75" y1="514" y2="514"/><!--MD5=[5999a290c6b468e29c073bd2553f28d1]
class DriverLicense--><rect codeLine="99" fill="#F8F8F8" height="48" id="DriverLicense" style="stroke:#383838;stroke-width:1.5;" width="109" x="649.75" y="736"/><ellipse cx="664.75" cy="752" fill="#C2C2C2" rx="11" ry="11" style="stroke:#383838;stroke-width:1.0;"/><path d="M667.2231,758.1431 Q666.6421,758.4419 666.0029,758.5913 Q665.3638,758.7407 664.6582,758.7407 Q662.1514,758.7407 660.8315,757.0889 Q659.5117,755.437 659.5117,752.3159 Q659.5117,749.1865 660.8315,747.5347 Q662.1514,745.8828 664.6582,745.8828 Q665.3638,745.8828 666.0112,746.0322 Q666.6587,746.1816 667.2231,746.4805 L667.2231,749.2031 Q666.5923,748.6221 665.9988,748.3523 Q665.4053,748.0825 664.7744,748.0825 Q663.4297,748.0825 662.7449,749.1492 Q662.0601,750.2158 662.0601,752.3159 Q662.0601,754.4077 662.7449,755.4744 Q663.4297,756.541 664.7744,756.541 Q665.4053,756.541 665.9988,756.2712 Q666.5923,756.0015 667.2231,755.4204 Z " fill="#000000"/><text fill="#000000" font-family="sans-serif" font-size="12" lengthAdjust="spacing" textLength="77" x="678.75" y="756.5352">DriverLicense</text><line style="stroke:#383838;stroke-width:1.5;" x1="650.75" x2="757.75" y1="768" y2="768"/><line style="stroke:#383838;stroke-width:1.5;" x1="650.75" x2="757.75" y1="776" y2="776"/><!--MD5=[5070acae41788f5f6682778e5cb4268b]
class DriverLicenseCardIdentification--><rect codeLine="103" fill="#F8F8F8" height="60.9551" id="DriverLicenseCardIdentification" style="stroke:#383838;stroke-width:1.5;" width="210" x="599" y="870.5"/><ellipse cx="614" cy="886.5" fill="#C2C2C2" rx="11" ry="11" style="stroke:#383838;stroke-width:1.0;"/><path d="M616.4731,892.6431 Q615.8921,892.9419 615.2529,893.0913 Q614.6138,893.2407 613.9082,893.2407 Q611.4014,893.2407 610.0815,891.5889 Q608.7617,889.937 608.7617,886.8159 Q608.7617,883.6865 610.0815,882.0347 Q611.4014,880.3828 613.9082,880.3828 Q614.6138,880.3828 615.2612,880.5322 Q615.9087,880.6816 616.4731,880.9805 L616.4731,883.7031 Q615.8423,883.1221 615.2488,882.8523 Q614.6553,882.5825 614.0244,882.5825 Q612.6797,882.5825 611.9949,883.6492 Q611.3101,884.7158 611.3101,886.8159 Q611.3101,888.9077 611.9949,889.9744 Q612.6797,891.041 614.0244,891.041 Q614.6553,891.041 615.2488,890.7712 Q615.8423,890.5015 616.4731,889.9204 Z " fill="#000000"/><text fill="#000000" font-family="sans-serif" font-size="12" lengthAdjust="spacing" textLength="178" x="628" y="891.0352">DriverLicenseCardIdentification</text><line style="stroke:#383838;stroke-width:1.5;" x1="600" x2="808" y1="902.5" y2="902.5"/><ellipse cx="610" cy="913.5" fill="none" rx="3" ry="3" style="stroke:#545454;stroke-width:1.0;"/><text fill="#000000" font-family="sans-serif" font-size="11" lengthAdjust="spacing" textLength="116" x="619" y="917.1348">String IdentificationID</text><line style="stroke:#383838;stroke-width:1.5;" x1="600" x2="808" y1="923.4551" y2="923.4551"/><!--MD5=[b2b2fb083f9e94cfffee792b775a17ba]
class DriverLicenseBase--><rect codeLine="97" fill="#F8F8F8" height="48" id="DriverLicenseBase" style="stroke:#383838;stroke-width:1.5;" width="136" x="483" y="602"/><ellipse cx="498" cy="618" fill="#C2C2C2" rx="11" ry="11" style="stroke:#383838;stroke-width:1.0;"/><path d="M500.4731,624.1431 Q499.8921,624.4419 499.2529,624.5913 Q498.6138,624.7407 497.9082,624.7407 Q495.4014,624.7407 494.0815,623.0889 Q492.7617,621.437 492.7617,618.3159 Q492.7617,615.1865 494.0815,613.5347 Q495.4014,611.8828 497.9082,611.8828 Q498.6138,611.8828 499.2612,612.0322 Q499.9087,612.1816 500.4731,612.4805 L500.4731,615.2031 Q499.8423,614.6221 499.2488,614.3523 Q498.6553,614.0825 498.0244,614.0825 Q496.6797,614.0825 495.9949,615.1492 Q495.3101,616.2158 495.3101,618.3159 Q495.3101,620.4077 495.9949,621.4744 Q496.6797,622.541 498.0244,622.541 Q498.6553,622.541 499.2488,622.2712 Q499.8423,622.0015 500.4731,621.4204 Z " fill="#000000"/><text fill="#000000" font-family="sans-serif" font-size="12" lengthAdjust="spacing" textLength="104" x="512" y="622.5352">DriverLicenseBase</text><line style="stroke:#383838;stroke-width:1.5;" x1="484" x2="618" y1="634" y2="634"/><line style="stroke:#383838;stroke-width:1.5;" x1="484" x2="618" y1="642" y2="642"/><!--MD5=[e5d8e980445664eb27d87f993fe9a72f]
class ContactInformation--><rect codeLine="107" fill="#F8F8F8" height="60.9551" id="ContactInformation" style="stroke:#383838;stroke-width:1.5;" width="142" x="633" y="1011.5"/><ellipse cx="648.9" cy="1027.5" fill="#C2C2C2" rx="11" ry="11" style="stroke:#383838;stroke-width:1.0;"/><path d="M651.3731,1033.6431 Q650.7921,1033.9419 650.1529,1034.0913 Q649.5138,1034.2407 648.8082,1034.2407 Q646.3014,1034.2407 644.9815,1032.5889 Q643.6617,1030.937 643.6617,1027.8159 Q643.6617,1024.6865 644.9815,1023.0347 Q646.3014,1021.3828 648.8082,1021.3828 Q649.5138,1021.3828 650.1612,1021.5322 Q650.8087,1021.6816 651.3731,1021.9805 L651.3731,1024.7031 Q650.7423,1024.1221 650.1488,1023.8523 Q649.5553,1023.5825 648.9244,1023.5825 Q647.5797,1023.5825 646.8949,1024.6492 Q646.2101,1025.7158 646.2101,1027.8159 Q646.2101,1029.9077 646.8949,1030.9744 Q647.5797,1032.041 648.9244,1032.041 Q649.5553,1032.041 650.1488,1031.7712 Q650.7423,1031.5015 651.3731,1030.9204 Z " fill="#000000"/><text fill="#000000" font-family="sans-serif" font-size="12" lengthAdjust="spacing" textLength="108" x="663.1" y="1032.0352">ContactInformation</text><line style="stroke:#383838;stroke-width:1.5;" x1="634" x2="774" y1="1043.5" y2="1043.5"/><ellipse cx="644" cy="1054.5" fill="none" rx="3" ry="3" style="stroke:#545454;stroke-width:1.0;"/><text fill="#000000" font-family="sans-serif" font-size="11" lengthAdjust="spacing" textLength="116" x="653" y="1058.1348">String ContactEmailID</text><line style="stroke:#383838;stroke-width:1.5;" x1="634" x2="774" y1="1064.4551" y2="1064.4551"/><!--MD5=[bdd85803e7fa3947a92e827929eb1f40]
class Location2DGeospatialCoordinate--><rect codeLine="125" fill="#F8F8F8" height="48" id="Location2DGeospatialCoordinate" style="stroke:#383838;stroke-width:1.5;" width="220" x="216" y="602"/><ellipse cx="231" cy="618" fill="#C2C2C2" rx="11" ry="11" style="stroke:#383838;stroke-width:1.0;"/><path d="M233.4731,624.1431 Q232.8921,624.4419 232.2529,624.5913 Q231.6138,624.7407 230.9082,624.7407 Q228.4014,624.7407 227.0815,623.0889 Q225.7617,621.437 225.7617,618.3159 Q225.7617,615.1865 227.0815,613.5347 Q228.4014,611.8828 230.9082,611.8828 Q231.6138,611.8828 232.2612,612.0322 Q232.9087,612.1816 233.4731,612.4805 L233.4731,615.2031 Q232.8423,614.6221 232.2488,614.3523 Q231.6553,614.0825 231.0244,614.0825 Q229.6797,614.0825 228.9949,615.1492 Q228.3101,616.2158 228.3101,618.3159 Q228.3101,620.4077 228.9949,621.4744 Q229.6797,622.541 231.0244,622.541 Q231.6553,622.541 232.2488,622.2712 Q232.8423,622.0015 233.4731,621.4204 Z " fill="#000000"/><text fill="#000000" font-family="sans-serif" font-size="12" lengthAdjust="spacing" textLength="188" x="245" y="622.5352">Location2DGeospatialCoordinate</text><line style="stroke:#383838;stroke-width:1.5;" x1="217" x2="435" y1="634" y2="634"/><line style="stroke:#383838;stroke-width:1.5;" x1="217" x2="435" y1="642" y2="642"/><!--MD5=[eb64dd8b0717b8aad832d04a88d65118]
class GeographicCoordinateLatitude--><rect codeLine="128" fill="#F8F8F8" height="73.9102" id="GeographicCoordinateLatitude" style="stroke:#383838;stroke-width:1.5;" width="207" x="407.75" y="723"/><ellipse cx="422.75" cy="739" fill="#C2C2C2" rx="11" ry="11" style="stroke:#383838;stroke-width:1.0;"/><path d="M425.2231,745.1431 Q424.6421,745.4419 424.0029,745.5913 Q423.3638,745.7407 422.6582,745.7407 Q420.1514,745.7407 418.8315,744.0889 Q417.5117,742.437 417.5117,739.3159 Q417.5117,736.1865 418.8315,734.5347 Q420.1514,732.8828 422.6582,732.8828 Q423.3638,732.8828 424.0112,733.0322 Q424.6587,733.1816 425.2231,733.4805 L425.2231,736.2031 Q424.5923,735.6221 423.9988,735.3523 Q423.4053,735.0825 422.7744,735.0825 Q421.4297,735.0825 420.7449,736.1492 Q420.0601,737.2158 420.0601,739.3159 Q420.0601,741.4077 420.7449,742.4744 Q421.4297,743.541 422.7744,743.541 Q423.4053,743.541 423.9988,743.2712 Q424.5923,743.0015 425.2231,742.4204 Z " fill="#000000"/><text fill="#000000" font-family="sans-serif" font-size="12" lengthAdjust="spacing" textLength="175" x="436.75" y="743.5352">GeographicCoordinateLatitude</text><line style="stroke:#383838;stroke-width:1.5;" x1="408.75" x2="613.75" y1="755" y2="755"/><ellipse cx="418.75" cy="766" fill="none" rx="3" ry="3" style="stroke:#545454;stroke-width:1.0;"/><text fill="#000000" font-family="sans-serif" font-size="11" lengthAdjust="spacing" textLength="156" x="427.75" y="769.6348">Number LatitudeDegreeValue</text><ellipse cx="418.75" cy="778.9551" fill="none" rx="3" ry="3" style="stroke:#545454;stroke-width:1.0;"/><text fill="#000000" font-family="sans-serif" font-size="11" lengthAdjust="spacing" textLength="154" x="427.75" y="782.5898">Number LatitudeMinuteValue</text><line style="stroke:#383838;stroke-width:1.5;" x1="408.75" x2="613.75" y1="788.9102" y2="788.9102"/><!--MD5=[3c96e806b4e16c121c351726cc7223ef]
class GeographicCoordinateLongitude--><rect codeLine="133" fill="#F8F8F8" height="73.9102" id="GeographicCoordinateLongitude" style="stroke:#383838;stroke-width:1.5;" width="217" x="155.75" y="723"/><ellipse cx="170.75" cy="739" fill="#C2C2C2" rx="11" ry="11" style="stroke:#383838;stroke-width:1.0;"/><path d="M173.2231,745.1431 Q172.6421,745.4419 172.0029,745.5913 Q171.3638,745.7407 170.6582,745.7407 Q168.1514,745.7407 166.8315,744.0889 Q165.5117,742.437 165.5117,739.3159 Q165.5117,736.1865 166.8315,734.5347 Q168.1514,732.8828 170.6582,732.8828 Q171.3638,732.8828 172.0112,733.0322 Q172.6587,733.1816 173.2231,733.4805 L173.2231,736.2031 Q172.5923,735.6221 171.9988,735.3523 Q171.4053,735.0825 170.7744,735.0825 Q169.4297,735.0825 168.7449,736.1492 Q168.0601,737.2158 168.0601,739.3159 Q168.0601,741.4077 168.7449,742.4744 Q169.4297,743.541 170.7744,743.541 Q171.4053,743.541 171.9988,743.2712 Q172.5923,743.0015 173.2231,742.4204 Z " fill="#000000"/><text fill="#000000" font-family="sans-serif" font-size="12" lengthAdjust="spacing" textLength="185" x="184.75" y="743.5352">GeographicCoordinateLongitude</text><line style="stroke:#383838;stroke-width:1.5;" x1="156.75" x2="371.75" y1="755" y2="755"/><ellipse cx="166.75" cy="766" fill="none" rx="3" ry="3" style="stroke:#545454;stroke-width:1.0;"/><text fill="#000000" font-family="sans-serif" font-size="11" lengthAdjust="spacing" textLength="167" x="175.75" y="769.6348">Number LongitudeDegreeValue</text><ellipse cx="166.75" cy="778.9551" fill="none" rx="3" ry="3" style="stroke:#545454;stroke-width:1.0;"/><text fill="#000000" font-family="sans-serif" font-size="11" lengthAdjust="spacing" textLength="165" x="175.75" y="782.5898">Number LongitudeMinuteValue</text><line style="stroke:#383838;stroke-width:1.5;" x1="156.75" x2="371.75" y1="788.9102" y2="788.9102"/><!--MD5=[1c35501828a625c1bb78f5a5cf28064d]
class LocationGeospatialPoint--><rect codeLine="138" fill="#F8F8F8" height="48" id="LocationGeospatialPoint" style="stroke:#383838;stroke-width:1.5;" width="168" x="7" y="602"/><ellipse cx="22" cy="618" fill="#C2C2C2" rx="11" ry="11" style="stroke:#383838;stroke-width:1.0;"/><path d="M24.4731,624.1431 Q23.8921,624.4419 23.2529,624.5913 Q22.6138,624.7407 21.9082,624.7407 Q19.4014,624.7407 18.0815,623.0889 Q16.7617,621.437 16.7617,618.3159 Q16.7617,615.1865 18.0815,613.5347 Q19.4014,611.8828 21.9082,611.8828 Q22.6138,611.8828 23.2612,612.0322 Q23.9087,612.1816 24.4731,612.4805 L24.4731,615.2031 Q23.8423,614.6221 23.2488,614.3523 Q22.6553,614.0825 22.0244,614.0825 Q20.6797,614.0825 19.9949,615.1492 Q19.3101,616.2158 19.3101,618.3159 Q19.3101,620.4077 19.9949,621.4744 Q20.6797,622.541 22.0244,622.541 Q22.6553,622.541 23.2488,622.2712 Q23.8423,622.0015 24.4731,621.4204 Z " fill="#000000"/><text fill="#000000" font-family="sans-serif" font-size="12" lengthAdjust="spacing" textLength="136" x="36" y="622.5352">LocationGeospatialPoint</text><line style="stroke:#383838;stroke-width:1.5;" x1="8" x2="174" y1="634" y2="634"/><line style="stroke:#383838;stroke-width:1.5;" x1="8" x2="174" y1="642" y2="642"/><!--MD5=[972bde5337b4335dd91fa5354c932445]
class Point--><rect codeLine="141" fill="#F8F8F8" height="60.9551" id="Point" style="stroke:#383838;stroke-width:1.5;" width="71" x="49.75" y="729.5"/><ellipse cx="69.7" cy="745.5" fill="#C2C2C2" rx="11" ry="11" style="stroke:#383838;stroke-width:1.0;"/><path d="M72.1731,751.6431 Q71.5921,751.9419 70.9529,752.0913 Q70.3138,752.2407 69.6082,752.2407 Q67.1014,752.2407 65.7815,750.5889 Q64.4617,748.937 64.4617,745.8159 Q64.4617,742.6865 65.7815,741.0347 Q67.1014,739.3828 69.6082,739.3828 Q70.3138,739.3828 70.9612,739.5322 Q71.6087,739.6816 72.1731,739.9805 L72.1731,742.7031 Q71.5423,742.1221 70.9488,741.8523 Q70.3553,741.5825 69.7244,741.5825 Q68.3797,741.5825 67.6949,742.6492 Q67.0101,743.7158 67.0101,745.8159 Q67.0101,747.9077 67.6949,748.9744 Q68.3797,750.041 69.7244,750.041 Q70.3553,750.041 70.9488,749.7712 Q71.5423,749.5015 72.1731,748.9204 Z " fill="#000000"/><text fill="#000000" font-family="sans-serif" font-size="12" lengthAdjust="spacing" textLength="28" x="84.8" y="750.0352">Point</text><line style="stroke:#383838;stroke-width:1.5;" x1="50.75" x2="119.75" y1="761.5" y2="761.5"/><ellipse cx="60.75" cy="772.5" fill="none" rx="3" ry="3" style="stroke:#545454;stroke-width:1.0;"/><text fill="#000000" font-family="sans-serif" font-size="11" lengthAdjust="spacing" textLength="45" x="69.75" y="776.1348">String id</text><line style="stroke:#383838;stroke-width:1.5;" x1="50.75" x2="119.75" y1="782.4551" y2="782.4551"/><!--MD5=[3487cc8ebf67081b546406f57ee833b5]
class pos--><rect codeLine="145" fill="#F8F8F8" height="73.9102" id="pos" style="stroke:#383838;stroke-width:1.5;" width="108" x="31" y="864"/><ellipse cx="70.75" cy="880" fill="#C2C2C2" rx="11" ry="11" style="stroke:#383838;stroke-width:1.0;"/><path d="M73.2231,886.1431 Q72.6421,886.4419 72.0029,886.5913 Q71.3638,886.7407 70.6582,886.7407 Q68.1514,886.7407 66.8315,885.0889 Q65.5117,883.437 65.5117,880.3159 Q65.5117,877.1865 66.8315,875.5347 Q68.1514,873.8828 70.6582,873.8828 Q71.3638,873.8828 72.0112,874.0322 Q72.6587,874.1816 73.2231,874.4805 L73.2231,877.2031 Q72.5923,876.6221 71.9988,876.3523 Q71.4053,876.0825 70.7744,876.0825 Q69.4297,876.0825 68.7449,877.1492 Q68.0601,878.2158 68.0601,880.3159 Q68.0601,882.4077 68.7449,883.4744 Q69.4297,884.541 70.7744,884.541 Q71.4053,884.541 71.9988,884.2712 Q72.5923,884.0015 73.2231,883.4204 Z " fill="#000000"/><text fill="#000000" font-family="sans-serif" font-size="12" lengthAdjust="spacing" textLength="21" x="90.25" y="884.5352">pos</text><line style="stroke:#383838;stroke-width:1.5;" x1="32" x2="138" y1="896" y2="896"/><ellipse cx="42" cy="907" fill="none" rx="3" ry="3" style="stroke:#545454;stroke-width:1.0;"/><text fill="#000000" font-family="sans-serif" font-size="11" lengthAdjust="spacing" textLength="82" x="51" y="910.6348">String srsName</text><ellipse cx="42" cy="919.9551" fill="none" rx="3" ry="3" style="stroke:#545454;stroke-width:1.0;"/><text fill="#000000" font-family="sans-serif" font-size="11" lengthAdjust="spacing" textLength="64" x="51" y="923.5898">String Value</text><line style="stroke:#383838;stroke-width:1.5;" x1="32" x2="138" y1="929.9102" y2="929.9102"/><!--MD5=[f3de8ab367e3a91ed0a719e60c1898dd]
reverse link CrashDriverInfo to Person--><path codeLine="11" d="M1290.41,268.307 C1237.05,276.91 1167.42,297.2 1127,345 C1027.89,462.221 1043.76,666.582 1052.54,735.523 " fill="none" id="CrashDriverInfo-backto-Person" style="stroke:#383838;stroke-width:1.0;"/><polygon fill="none" points="1303.6,266.362,1297.0832,263.2747,1291.7269,268.1028,1298.2437,271.1901,1303.6,266.362" style="stroke:#383838;stroke-width:1.0;"/><!--MD5=[dcac12265e2c941216f3f4e91d8ac5cd]
reverse link CrashDriverInfo to Crash--><path codeLine="12" d="M1290.7,276.871 C1168.22,301.719 926.811,350.694 839.49,368.409 " fill="none" id="CrashDriverInfo-backto-Crash" style="stroke:#383838;stroke-width:1.0;"/><polygon fill="none" points="1303.6,274.254,1296.9243,271.5274,1291.8398,276.6409,1298.5155,279.3675,1303.6,274.254" style="stroke:#383838;stroke-width:1.0;"/><!--MD5=[6680c5421ca2d45adb8348862de59712]
reverse link CrashDriverInfo to PersonChargeAssociation--><path codeLine="13" d="M1437.65,269.331 C1559.32,285.946 1789,338.327 1789,497 C1789,497 1789,497 1789,627 C1789,721.458 1753.79,829.972 1736.87,876.658 " fill="none" id="CrashDriverInfo-backto-PersonChargeAssociation" style="stroke:#383838;stroke-width:1.0;"/><polygon fill="none" points="1424.44,267.609,1429.8707,272.3532,1436.3387,269.1649,1430.908,264.4207,1424.44,267.609" style="stroke:#383838;stroke-width:1.0;"/><!--MD5=[42fea4975f65885373daaf2b9cd0dc2b]
reverse link CrashDriverInfo to Charge--><path codeLine="14" d="M1437.06,277.982 C1475.93,290.118 1521.46,310.763 1550,345 C1594.52,398.405 1587,427.472 1587,497 C1587,497 1587,497 1587,761 C1587,848.936 1573.16,951.64 1564.94,1004.87 " fill="none" id="CrashDriverInfo-backto-Charge" style="stroke:#383838;stroke-width:1.0;"/><polygon fill="none" points="1424.43,274.259,1429.0558,279.7909,1435.9413,277.6486,1431.3155,272.1167,1424.43,274.259" style="stroke:#383838;stroke-width:1.0;"/><!--MD5=[0b7f9933edc9b6fe190eba51a62e11b3]
reverse link CrashDriverInfo to Metadata--><path codeLine="15" d="M1333.37,294.654 C1318.33,310.682 1300.36,329.845 1285.73,345.436 " fill="none" id="CrashDriverInfo-backto-Metadata" style="stroke:#383838;stroke-width:1.0;"/><polygon fill="none" points="1342.29,285.14,1335.2681,286.7809,1334.082,293.8938,1341.1039,292.2529,1342.29,285.14" style="stroke:#383838;stroke-width:1.0;"/><!--MD5=[8a065019b843158cae62e3d186143e26]
reverse link CrashDriverInfo to PrivacyMetadata--><path codeLine="16" d="M1394.63,294.654 C1409.67,310.682 1427.64,329.845 1442.27,345.436 " fill="none" id="CrashDriverInfo-backto-PrivacyMetadata" style="stroke:#383838;stroke-width:1.0;"/><polygon fill="none" points="1385.71,285.14,1386.8961,292.2529,1393.918,293.8938,1392.7319,286.7809,1385.71,285.14" style="stroke:#383838;stroke-width:1.0;"/><!--MD5=[fd900e32186d0297ae7eddda5d75776b]
reverse link Person to PersonName--><path codeLine="22" d="M1078.18,795.252 C1090.3,813.976 1105.43,837.342 1118.32,857.252 " fill="none" id="Person-backto-PersonName" style="stroke:#383838;stroke-width:1.0;"/><polygon fill="none" points="1071.06,784.265,1070.9629,791.4754,1077.5813,794.3384,1077.6784,787.1279,1071.06,784.265" style="stroke:#383838;stroke-width:1.0;"/><!--MD5=[132927765e2fa8fe53429e903df08f74]
reverse link Person to PersonBirthDate--><path codeLine="23" d="M1034.06,795.266 C1019.31,818.299 1000.069,848.353 985.981,870.355 " fill="none" id="Person-backto-PersonBirthDate" style="stroke:#383838;stroke-width:1.0;"/><polygon fill="none" points="1041.1,784.265,1034.4971,787.1635,1034.633,794.3733,1041.236,791.4748,1041.1,784.265" style="stroke:#383838;stroke-width:1.0;"/><!--MD5=[2a093beafa52854dbc86c5f6cdbf823e]
link Person to apoint20--><path d="M1091.39,771.334 C1197.39,802.289 1506.53,892.563 1530.52,899.568 " fill="none" id="Person-apoint20" style="stroke:#383838;stroke-width:1.0;"/><!--MD5=[ac82c8961f3619d705f459c6c2c2c63e]
link apoint20 to Charge--><path d="M1532.3,903.561 C1534.22,913.404 1544.75,967.654 1552,1004.978 " fill="none" id="apoint20-Charge" style="stroke:#383838;stroke-width:1.0;"/><!--MD5=[0f636bb319f4dea8f34d34b52f16fe6a]
link apoint20 to PersonChargeAssociation--><path d="M1534.3,901 C1569.48,901 1604.67,901 1639.85,901 " fill="none" id="apoint20-PersonChargeAssociation" style="stroke:#383838;stroke-width:1.0;stroke-dasharray:7.0,7.0;"/><!--MD5=[a955a5bcc40a516d74fdaa17f51de342]
reverse link Association to PersonChargeAssociation--><path codeLine="40" d="M1700.29,803.717 C1707.2,827.735 1715.57,856.79 1721.28,876.659 " fill="none" id="Association-backto-PersonChargeAssociation" style="stroke:#383838;stroke-width:1.0;"/><polygon fill="none" points="1693.5,805.421,1694.7,784.265,1706.95,801.55,1693.5,805.421" style="stroke:#383838;stroke-width:1.0;"/><!--MD5=[a6b4111015cbaef3250a5a40dc1c8541]
reverse link Activity to Incident--><path codeLine="56" d="M845.912,72.92 C837.013,89.402 827.078,107.806 819.475,121.891 " fill="none" id="Activity-backto-Incident" style="stroke:#383838;stroke-width:1.0;"/><polygon fill="none" points="839.848,69.41,855.509,55.14,852.168,76.06,839.848,69.41" style="stroke:#383838;stroke-width:1.0;"/><!--MD5=[56208916e5ac1f104f8e5c1e0e9d4719]
reverse link Incident to DrivingIncident--><path codeLine="57" d="M807,190.337 C807,206.182 807,223.491 807,236.891 " fill="none" id="Incident-backto-DrivingIncident" style="stroke:#383838;stroke-width:1.0;"/><polygon fill="none" points="800,190.14,807,170.14,814,190.14,800,190.14" style="stroke:#383838;stroke-width:1.0;"/><!--MD5=[ef7f9cccd4a3b122d5326f649b8d22ac]
reverse link DrivingIncident to Crash--><path codeLine="58" d="M807,305.337 C807,321.182 807,338.491 807,351.891 " fill="none" id="DrivingIncident-backto-Crash" style="stroke:#383838;stroke-width:1.0;"/><polygon fill="none" points="800,305.14,807,285.14,814,305.14,800,305.14" style="stroke:#383838;stroke-width:1.0;"/><!--MD5=[560c57b254c5eb1d14b3eeadfb347a95]
reverse link Activity to ActivityDate--><path codeLine="60" d="M887.172,66.94 C895.698,82.482 905.628,100.581 913.779,115.436 " fill="none" id="Activity-backto-ActivityDate" style="stroke:#383838;stroke-width:1.0;"/><polygon fill="none" points="880.696,55.14,880.0772,62.3245,886.471,65.659,887.0898,58.4745,880.696,55.14" style="stroke:#383838;stroke-width:1.0;"/><!--MD5=[e10b34295337139350456ea5e5d63dfb]
reverse link Crash to CrashVehicle--><path codeLine="65" d="M778.504,410.2 C761.111,430.462 739.314,455.858 723.798,473.934 " fill="none" id="Crash-backto-CrashVehicle" style="stroke:#383838;stroke-width:1.0;"/><polygon fill="none" points="787.141,400.137,780.1979,402.0845,779.3251,409.2426,786.2682,407.2951,787.141,400.137" style="stroke:#383838;stroke-width:1.0;"/><!--MD5=[f66c9db38b9b928ddc99655e3cdcf1be]
reverse link CrashVehicle to CrashDriver--><path codeLine="66" d="M704,535.281 C704,556.628 704,582.998 704,601.609 " fill="none" id="CrashVehicle-backto-CrashDriver" style="stroke:#383838;stroke-width:1.0;"/><polygon fill="none" points="704,522.11,700,528.11,704,534.11,708,528.11,704,522.11" style="stroke:#383838;stroke-width:1.0;"/><!--MD5=[d2acec0a3ab9ae6daabf63d596805bfc]
reverse link Crash to CrashPerson--><path codeLine="67" d="M835.423,410.114 C850.734,427.952 869.476,449.787 884.341,467.106 " fill="none" id="Crash-backto-CrashPerson" style="stroke:#383838;stroke-width:1.0;"/><polygon fill="none" points="826.859,400.137,827.7318,407.2951,834.6749,409.2426,833.8021,402.0845,826.859,400.137" style="stroke:#383838;stroke-width:1.0;"/><!--MD5=[34c515603cddc49dcef798711af2d859]
reverse link CrashPerson to CrashPersonInjury--><path codeLine="68" d="M899.209,541.489 C895.3,556.882 890.925,574.108 887.169,588.899 " fill="none" id="CrashPerson-backto-CrashPersonInjury" style="stroke:#383838;stroke-width:1.0;"/><polygon fill="none" points="902.497,528.541,897.1432,533.3718,899.5432,540.1718,904.897,535.341,902.497,528.541" style="stroke:#383838;stroke-width:1.0;"/><!--MD5=[ed10516f57e2e81c06c0460de89565b2]
reverse link CrashPerson to Person--><path codeLine="69" d="M946.683,538.555 C959.515,553.63 973.36,571.425 984,589 C1013.88,638.354 1037.34,702.349 1048.63,735.997 " fill="none" id="CrashPerson-backto-Person" style="stroke:#383838;stroke-width:1.0;"/><polygon fill="none" points="938.013,528.59,938.9332,535.7422,945.8891,537.6436,944.9689,530.4914,938.013,528.59" style="stroke:#383838;stroke-width:1.0;"/><!--MD5=[f9de7f9c10c90a3fc2bf73db36371dbd]
reverse link Crash to Location--><path codeLine="70" d="M762.053,388.213 C668.462,411.562 454.025,465.06 365.421,487.165 " fill="none" id="Crash-backto-Location" style="stroke:#383838;stroke-width:1.0;"/><polygon fill="none" points="774.693,385.06,767.9034,382.6308,763.0497,387.9639,769.8393,390.3931,774.693,385.06" style="stroke:#383838;stroke-width:1.0;"/><!--MD5=[fcfe4c0d3ef05d003821534be9bf9fd5]
reverse link CrashDriver to Person--><path codeLine="71" d="M755.861,655.958 C760.922,658.453 766.025,660.844 771,663 C858.426,700.892 966.043,733.547 1020.63,749.174 " fill="none" id="CrashDriver-backto-Person" style="stroke:#383838;stroke-width:1.0;"/><polygon fill="none" points="744.204,650.011,747.7302,656.3011,754.8927,655.4655,751.3665,649.1753,744.204,650.011" style="stroke:#383838;stroke-width:1.0;"/><!--MD5=[c480e41666412584b3d0352925410ea2]
reverse link CrashDriver to DriverLicense--><path codeLine="72" d="M704,663.456 C704,686.633 704,715.934 704,735.938 " fill="none" id="CrashDriver-backto-DriverLicense" style="stroke:#383838;stroke-width:1.0;"/><polygon fill="none" points="704,650.295,700,656.295,704,662.295,708,656.295,704,650.295" style="stroke:#383838;stroke-width:1.0;"/><!--MD5=[4e2a36621c278a2c6d865fd1bb161fdc]
reverse link DriverLicense to DriverLicenseCardIdentification--><path codeLine="73" d="M704,797.496 C704,820.212 704,849.056 704,870.355 " fill="none" id="DriverLicense-backto-DriverLicenseCardIdentification" style="stroke:#383838;stroke-width:1.0;"/><polygon fill="none" points="704,784.265,700,790.265,704,796.265,708,790.265,704,784.265" style="stroke:#383838;stroke-width:1.0;"/><!--MD5=[1fc63818593d2e132975f52da962da04]
reverse link DriverLicenseBase to DriverLicense--><path codeLine="101" d="M593.256,663.456 C620.12,686.633 654.083,715.934 677.269,735.938 " fill="none" id="DriverLicenseBase-backto-DriverLicense" style="stroke:#383838;stroke-width:1.0;"/><polygon fill="none" points="588.572,668.66,578.001,650.295,597.717,658.06,588.572,668.66" style="stroke:#383838;stroke-width:1.0;"/><!--MD5=[e537d92b75f3ce5bed7cb1dc3d6900c0]
reverse link DriverLicenseCardIdentification to ContactInformation--><path codeLine="111" d="M704,944.928 C704,966.424 704,991.9107 704,1011.2303 " fill="none" id="DriverLicenseCardIdentification-backto-ContactInformation" style="stroke:#383838;stroke-width:1.0;"/><polygon fill="none" points="704,931.819,700,937.819,704,943.819,708,937.819,704,931.819" style="stroke:#383838;stroke-width:1.0;"/><!--MD5=[a4bbc4dc352961419a54b3376d941ffd]
reverse link Location to Location2DGeospatialCoordinate--><path codeLine="113" d="M326,535.281 C326,556.628 326,582.998 326,601.609 " fill="none" id="Location-backto-Location2DGeospatialCoordinate" style="stroke:#383838;stroke-width:1.0;"/><polygon fill="none" points="326,522.11,322,528.11,326,534.11,330,528.11,326,522.11" style="stroke:#383838;stroke-width:1.0;"/><!--MD5=[070dac4558711191a044452bfa48d944]
reverse link Location2DGeospatialCoordinate to GeographicCoordinateLatitude--><path codeLine="114" d="M369.391,657.96 C396.571,677.353 431.718,702.431 460.197,722.751 " fill="none" id="Location2DGeospatialCoordinate-backto-GeographicCoordinateLatitude" style="stroke:#383838;stroke-width:1.0;"/><polygon fill="none" points="358.648,650.295,361.2087,657.0361,368.4162,657.2651,365.8555,650.524,358.648,650.295" style="stroke:#383838;stroke-width:1.0;"/><!--MD5=[6e4fe5877661db8bde712364ba73cfd2]
reverse link Location2DGeospatialCoordinate to GeographicCoordinateLongitude--><path codeLine="115" d="M309.476,662.18 C300.685,680.896 289.891,703.876 281.026,722.751 " fill="none" id="Location2DGeospatialCoordinate-backto-GeographicCoordinateLongitude" style="stroke:#383838;stroke-width:1.0;"/><polygon fill="none" points="315.058,650.295,308.8866,654.0252,309.9562,661.1565,316.1276,657.4263,315.058,650.295" style="stroke:#383838;stroke-width:1.0;"/><!--MD5=[7074db790ba0854fbc4cd99f266940ee]
reverse link Location to LocationGeospatialPoint--><path codeLine="117" d="M275,526.345 C232.895,548.92 173.805,580.602 134.05,601.918 " fill="none" id="Location-backto-LocationGeospatialPoint" style="stroke:#383838;stroke-width:1.0;"/><polygon fill="none" points="286.666,520.09,279.488,519.3999,276.0902,525.7603,283.2682,526.4504,286.666,520.09" style="stroke:#383838;stroke-width:1.0;"/><!--MD5=[c1289c942373101352275a91a25c52cf]
reverse link LocationGeospatialPoint to Point--><path codeLine="118" d="M89.3435,663.444 C88.3986,684.23 87.2297,709.946 86.3426,729.463 " fill="none" id="LocationGeospatialPoint-backto-Point" style="stroke:#383838;stroke-width:1.0;"/><polygon fill="none" points="89.9411,650.295,85.6729,656.1073,89.3965,662.2826,93.6647,656.4704,89.9411,650.295" style="stroke:#383838;stroke-width:1.0;"/><!--MD5=[3c010cfda084e2be63adee3a0fe9f7e6]
reverse link Point to pos--><path codeLine="119" d="M85,803.827 C85,823.038 85,845.455 85,863.811 " fill="none" id="Point-backto-pos" style="stroke:#383838;stroke-width:1.0;"/><polygon fill="#383838" points="85,790.819,81,796.819,85,802.819,89,796.819,85,790.819" style="stroke:#383838;stroke-width:1.0;"/><!--MD5=[a03bdb2dc3fd54a7b2f2db6beb7c87fe]
@startuml

skinparam shadowing false
skinparam monochrome true
skinparam backgroundColor transparent



	class CrashDriverInfo{
	}

	CrashDriverInfo o- - Person
	CrashDriverInfo o- - Crash
	CrashDriverInfo o- - PersonChargeAssociation
	CrashDriverInfo o- - Charge
	CrashDriverInfo o- - Metadata
	CrashDriverInfo o- - PrivacyMetadata
	

	class Person{
	}

	Person o- - PersonName
	Person o- - PersonBirthDate

	class PersonName{
		+String PersonGivenName
		+String PersonMiddleName
		+String PersonLastName
	}

	class PersonBirthDate{
		+Date Date
	}

	class Association{
	}
	class PersonChargeAssociation{
	}
	(Person, Charge) .. PersonChargeAssociation
	Association <|- - PersonChargeAssociation

	
	class Charge{
		+String ChargeDescriptionText
		+Boolean ChargeFelonyIndicator
	}
	
	class Metadata{
		+Boolean CriminalInformationIndicator
	}
	
	class PrivacyMetadata{
		+String PrivacyCode
	}

	Activity <|- - Incident
	Incident <|- - DrivingIncident
	DrivingIncident <|- - Crash

	Activity o- - ActivityDate

	class Crash{
	}
	
	Crash o- - CrashVehicle
	CrashVehicle o- - CrashDriver
	Crash o- - CrashPerson
	CrashPerson o- - CrashPersonInjury
	CrashPerson o- - Person
	Crash o- - Location
	CrashDriver o- - Person
	CrashDriver o- - DriverLicense
	DriverLicense o- - DriverLicenseCardIdentification
	
	
	class CrashDriver{
	}

	class CrashPerson{
		+Boolean PersonDefenestrationIndicator
	}
	class CrashPersonInjury{
		+String InjuryDescriptionText
		+String InjurySeverityCode
	}
	
	class Incident{
	}
	
	class Activity{
	}

	class ActivityDate{
		+Date Date
	}

	class DriverLicenseBase{
	}
	class DriverLicense{
	}
	DriverLicenseBase <|- - DriverLicense
	
	class DriverLicenseCardIdentification{
		+String IdentificationID
	}

	class ContactInformation{
		+String ContactEmailID
	}

	DriverLicenseCardIdentification o- - ContactInformation

	Location o- - Location2DGeospatialCoordinate
	Location2DGeospatialCoordinate o- - GeographicCoordinateLatitude
	Location2DGeospatialCoordinate o- - GeographicCoordinateLongitude
	
	Location o- - LocationGeospatialPoint
	LocationGeospatialPoint o- - Point
	Point *- - pos
	
	class Location{
		
	}

	class Location2DGeospatialCoordinate{
	}

	class GeographicCoordinateLatitude{
		+Number LatitudeDegreeValue
		+Number LatitudeMinuteValue
	}

	class GeographicCoordinateLongitude{
		+Number LongitudeDegreeValue
		+Number LongitudeMinuteValue
	}

	class LocationGeospatialPoint{
	}
	
	class Point{
		+String id
	}
	
	class pos{
		+String srsName
		+String Value
	}

@enduml

PlantUML version 1.2022.1(Tue Feb 01 13:19:58 EST 2022)
(GPL source distribution)
Java Runtime: OpenJDK Runtime Environment
JVM: OpenJDK 64-Bit Server VM
Default Encoding: UTF-8
Language: en
Country: US
--></g></svg>