<svg id="mermaid-1624912506652" width="100%" xmlns="http://www.w3.org/2000/svg" xmlns:xlink="http://www.w3.org/1999/xlink" height="212.1875" style="max-width: 677.9375px;" viewBox="-20 -20 677.9375 212.1875"><style>#mermaid-1624912506652{font-family:"trebuchet ms",verdana,arial,sans-serif;font-size:16px;fill:#000000;}#mermaid-1624912506652 .error-icon{fill:#552222;}#mermaid-1624912506652 .error-text{fill:#552222;stroke:#552222;}#mermaid-1624912506652 .edge-thickness-normal{stroke-width:2px;}#mermaid-1624912506652 .edge-thickness-thick{stroke-width:3.5px;}#mermaid-1624912506652 .edge-pattern-solid{stroke-dasharray:0;}#mermaid-1624912506652 .edge-pattern-dashed{stroke-dasharray:3;}#mermaid-1624912506652 .edge-pattern-dotted{stroke-dasharray:2;}#mermaid-1624912506652 .marker{fill:#666;stroke:#666;}#mermaid-1624912506652 .marker.cross{stroke:#666;}#mermaid-1624912506652 svg{font-family:"trebuchet ms",verdana,arial,sans-serif;font-size:16px;}#mermaid-1624912506652 g.classGroup text{fill:#999;fill:#111111;stroke:none;font-family:"trebuchet ms",verdana,arial,sans-serif;font-size:10px;}#mermaid-1624912506652 g.classGroup text .title{font-weight:bolder;}#mermaid-1624912506652 .classTitle{font-weight:bolder;}#mermaid-1624912506652 .node rect,#mermaid-1624912506652 .node circle,#mermaid-1624912506652 .node ellipse,#mermaid-1624912506652 .node polygon,#mermaid-1624912506652 .node path{fill:#eee;stroke:#999;stroke-width:1px;}#mermaid-1624912506652 .divider{stroke:#999;stroke:1;}#mermaid-1624912506652 g.clickable{cursor:pointer;}#mermaid-1624912506652 g.classGroup rect{fill:#eee;stroke:#999;}#mermaid-1624912506652 g.classGroup line{stroke:#999;stroke-width:1;}#mermaid-1624912506652 .classLabel .box{stroke:none;stroke-width:0;fill:#eee;opacity:0.5;}#mermaid-1624912506652 .classLabel .label{fill:#999;font-size:10px;}#mermaid-1624912506652 .relation{stroke:#666;stroke-width:1;fill:none;}#mermaid-1624912506652 .dashed-line{stroke-dasharray:3;}#mermaid-1624912506652 #compositionStart,#mermaid-1624912506652 .composition{fill:#666 !important;stroke:#666 !important;stroke-width:1;}#mermaid-1624912506652 #compositionEnd,#mermaid-1624912506652 .composition{fill:#666 !important;stroke:#666 !important;stroke-width:1;}#mermaid-1624912506652 #dependencyStart,#mermaid-1624912506652 .dependency{fill:#666 !important;stroke:#666 !important;stroke-width:1;}#mermaid-1624912506652 #dependencyStart,#mermaid-1624912506652 .dependency{fill:#666 !important;stroke:#666 !important;stroke-width:1;}#mermaid-1624912506652 #extensionStart,#mermaid-1624912506652 .extension{fill:#666 !important;stroke:#666 !important;stroke-width:1;}#mermaid-1624912506652 #extensionEnd,#mermaid-1624912506652 .extension{fill:#666 !important;stroke:#666 !important;stroke-width:1;}#mermaid-1624912506652 #aggregationStart,#mermaid-1624912506652 .aggregation{fill:#eee !important;stroke:#666 !important;stroke-width:1;}#mermaid-1624912506652 #aggregationEnd,#mermaid-1624912506652 .aggregation{fill:#eee !important;stroke:#666 !important;stroke-width:1;}#mermaid-1624912506652 .edgeTerminals{font-size:11px;}#mermaid-1624912506652:root{--mermaid-font-family:"trebuchet ms",verdana,arial,sans-serif;}</style><g></g><defs><marker id="extensionStart" class="extension" refX="0" refY="7" markerWidth="190" markerHeight="240" orient="auto"><path d="M 1,7 L18,13 V 1 Z"></path></marker></defs><defs><marker id="extensionEnd" refX="19" refY="7" markerWidth="20" markerHeight="28" orient="auto"><path d="M 1,1 V 13 L18,7 Z"></path></marker></defs><defs><marker id="compositionStart" class="extension" refX="0" refY="7" markerWidth="190" markerHeight="240" orient="auto"><path d="M 18,7 L9,13 L1,7 L9,1 Z"></path></marker></defs><defs><marker id="compositionEnd" refX="19" refY="7" markerWidth="20" markerHeight="28" orient="auto"><path d="M 18,7 L9,13 L1,7 L9,1 Z"></path></marker></defs><defs><marker id="aggregationStart" class="extension" refX="0" refY="7" markerWidth="190" markerHeight="240" orient="auto"><path d="M 18,7 L9,13 L1,7 L9,1 Z"></path></marker></defs><defs><marker id="aggregationEnd" refX="19" refY="7" markerWidth="20" markerHeight="28" orient="auto"><path d="M 18,7 L9,13 L1,7 L9,1 Z"></path></marker></defs><defs><marker id="dependencyStart" class="extension" refX="0" refY="7" markerWidth="190" markerHeight="240" orient="auto"><path d="M 5,7 L9,13 L1,7 L9,1 Z"></path></marker></defs><defs><marker id="dependencyEnd" refX="19" refY="7" markerWidth="20" markerHeight="28" orient="auto"><path d="M 18,7 L9,13 L14,7 L9,1 Z"></path></marker></defs><g id="classid-Person-0" class="classGroup" transform="translate(512.8671875,0 )"><rect x="0" y="0" width="104.140625" height="71.0625" class=" "></rect><text y="15" x="0"><tspan class="title" x="36.1875">Person</tspan></text><line x1="0" y1="21" y2="21" x2="104.140625"></line><text x="5" y="31" fill="white" class="classText"><tspan x="5">+Date BirthDate</tspan><tspan x="5" dy="10">+String FirstName</tspan><tspan x="5" dy="10">+String MiddleName</tspan><tspan x="5" dy="10">+String LastName</tspan></text><line x1="0" y1="67.0625" y2="67.0625" x2="104.140625"></line><text x="5" y="82.0625" fill="white" class="classText"></text></g><g id="classid-CrashDriver-1" class="classGroup" transform="translate(0,126.09375 )"><rect x="0" y="0" width="144.71875" height="41.0625" class=" "></rect><text y="15" x="0"><tspan class="title" x="44.890625">CrashDriver</tspan></text><line x1="0" y1="21" y2="21" x2="144.71875"></line><text x="5" y="31" fill="white" class="classText"><tspan x="5">+String DriverLicenseNumber</tspan></text><line x1="0" y1="37.0625" y2="37.0625" x2="144.71875"></line><text x="5" y="52.0625" fill="white" class="classText"></text></g><g id="classid-InjuredPerson-2" class="classGroup" transform="translate(511.9375,121.0625 )"><rect x="0" y="0" width="126" height="51.125" class=" "></rect><text y="15" x="0"><tspan class="title" x="30.0703125">InjuredPerson</tspan></text><line x1="0" y1="21.0625" y2="21.0625" x2="126"></line><text x="5" y="31.0625" fill="white" class="classText"><tspan x="5">+String InjuryDescription</tspan><tspan x="5" dy="10">+Code SeverityCode</tspan></text><line x1="0" y1="47.125" y2="47.125" x2="126"></line><text x="5" y="62.125" fill="white" class="classText"></text></g><g id="classid-Charge-3" class="classGroup" transform="translate(147.6796875,9.96875 )"><rect x="0" y="0" width="99.796875" height="51.125" class=" "></rect><text y="15" x="0"><tspan class="title" x="33.6875">Charge</tspan></text><line x1="0" y1="21.0625" y2="21.0625" x2="99.796875"></line><text x="5" y="31.0625" fill="white" class="classText"><tspan x="5">+String Description</tspan><tspan x="5" dy="10">+boolean isFelony</tspan></text><line x1="0" y1="47.125" y2="47.125" x2="99.796875"></line><text x="5" y="62.125" fill="white" class="classText"></text></g><g id="classid-Crash-4" class="classGroup" transform="translate(297.4765625,10 )"><rect x="0" y="0" width="165.390625" height="51.0625" class=" "></rect><text y="15" x="0"><tspan class="title" x="69.71875">Crash</tspan></text><line x1="0" y1="21" y2="21" x2="165.390625"></line><text x="5" y="31" fill="white" class="classText"><tspan x="5">+Date CrashDate</tspan><tspan x="5" dy="10">+String CrashLocationCoordinates</tspan></text><line x1="0" y1="47.0625" y2="47.0625" x2="165.390625"></line><text x="5" y="62.0625" fill="white" class="classText"></text></g><g id="classid-CrashVehicle-5" class="classGroup" transform="translate(27.0390625,20.53125 )"><rect x="0" y="0" width="70.640625" height="30" class=" "></rect><text y="15" x="0"><tspan class="title" x="5">CrashVehicle</tspan></text><line x1="0" y1="21" y2="21" x2="70.640625"></line><text x="5" y="31" fill="white" class="classText"></text><line x1="0" y1="26" y2="26" x2="70.640625"></line><text x="5" y="41" fill="white" class="classText"></text></g><path d="M512.8671875,48.59392706815606L481.3307291666667,56.505355890130055C449.7942708333333,64.41678471210405,386.7213541666667,80.23964235605202,325.36328125,94.15155274442843C264.0052083333333,108.06346313280481,204.36197916666666,120.06442626560961,174.54036458333334,126.06490783201203L144.71875,132.06538939841442" id="edge0" class="relation" marker-start="url(#extensionStart)"></path><path d="M570.8074019101704,71.0625L571.4957515918087,75.22916666666667C572.1841012734469,79.39583333333333,573.5608006367235,87.72916666666667,574.2491503183618,96.0625C574.9375,104.39583333333333,574.9375,112.72916666666667,574.9375,116.89583333333333L574.9375,121.0625" id="edge1" class="relation" marker-start="url(#extensionStart)"></path><path d="M62.359375,50.53125L62.359375,58.119791666666664C62.359375,65.70833333333333,62.359375,80.88541666666667,63.349280232797696,93.47916666666667C64.33918546559539,106.07291666666667,66.31899593119077,116.08333333333333,67.30890116398847,121.08854166666667L68.29880639678616,126.09375" id="edge2" class="relation" marker-start="url(#dependencyStart)"></path></svg>