<?xml version="1.0" encoding="UTF-8" standalone="no"?><svg xmlns="http://www.w3.org/2000/svg" xmlns:xlink="http://www.w3.org/1999/xlink" contentScriptType="application/ecmascript" contentStyleType="text/css" height="280px" preserveAspectRatio="none" style="width:858px;height:280px;background:#FFFFFF;" version="1.1" viewBox="0 0 858 280" width="858px" zoomAndPan="magnify"><defs><filter height="300%" id="f7apuylw0neox" width="300%" x="-1" y="-1"><feGaussianBlur result="blurOut" stdDeviation="2.0"/><feColorMatrix in="blurOut" result="blurOut2" type="matrix" values="0 0 0 0 0 0 0 0 0 0 0 0 0 0 0 0 0 0 .4 0"/><feOffset dx="4.0" dy="4.0" in="blurOut2" result="blurOut3"/><feBlend in="SourceGraphic" in2="blurOut3" mode="normal"/></filter></defs><g><!--MD5=[abd9296807c2e97a15889663d727f9f5]
class CrashDriverInfoClass--><rect codeLine="9" fill="#FFFFFF" filter="url(#f7apuylw0neox)" height="48" id="CrashDriverInfoClass" style="stroke:#000000;stroke-width:1.5;" width="151" x="416" y="33"/><ellipse cx="431" cy="49" fill="#ADD1B2" rx="11" ry="11" style="stroke:#000000;stroke-width:1.0;"/><path d="M433.4731,55.1431 Q432.8921,55.4419 432.2529,55.5913 Q431.6138,55.7407 430.9082,55.7407 Q428.4014,55.7407 427.0815,54.0889 Q425.7617,52.437 425.7617,49.3159 Q425.7617,46.1865 427.0815,44.5347 Q428.4014,42.8828 430.9082,42.8828 Q431.6138,42.8828 432.2612,43.0322 Q432.9087,43.1816 433.4731,43.4805 L433.4731,46.2031 Q432.8423,45.6221 432.2488,45.3523 Q431.6553,45.0825 431.0244,45.0825 Q429.6797,45.0825 428.9949,46.1492 Q428.3101,47.2158 428.3101,49.3159 Q428.3101,51.4077 428.9949,52.4744 Q429.6797,53.541 431.0244,53.541 Q431.6553,53.541 432.2488,53.2712 Q432.8423,53.0015 433.4731,52.4204 Z " fill="#000000"/><text fill="#000000" font-family="sans-serif" font-size="12" lengthAdjust="spacing" textLength="119" x="445" y="53.5352">CrashDriverInfoClass</text><line style="stroke:#000000;stroke-width:1.5;" x1="417" x2="566" y1="65" y2="65"/><line style="stroke:#000000;stroke-width:1.5;" x1="417" x2="566" y1="73" y2="73"/><!--MD5=[b65b564cea114645dc19e685f48285ee]
class DriverClass--><rect codeLine="27" fill="#FFFFFF" filter="url(#f7apuylw0neox)" height="73.9102" id="DriverClass" style="stroke:#000000;stroke-width:1.5;" width="177" x="7" y="180"/><ellipse cx="58.75" cy="196" fill="#ADD1B2" rx="11" ry="11" style="stroke:#000000;stroke-width:1.0;"/><path d="M61.2231,202.1431 Q60.6421,202.4419 60.0029,202.5913 Q59.3638,202.7407 58.6582,202.7407 Q56.1514,202.7407 54.8315,201.0889 Q53.5117,199.437 53.5117,196.3159 Q53.5117,193.1865 54.8315,191.5347 Q56.1514,189.8828 58.6582,189.8828 Q59.3638,189.8828 60.0112,190.0322 Q60.6587,190.1816 61.2231,190.4805 L61.2231,193.2031 Q60.5923,192.6221 59.9988,192.3523 Q59.4053,192.0825 58.7744,192.0825 Q57.4297,192.0825 56.7449,193.1492 Q56.0601,194.2158 56.0601,196.3159 Q56.0601,198.4077 56.7449,199.4744 Q57.4297,200.541 58.7744,200.541 Q59.4053,200.541 59.9988,200.2712 Q60.5923,200.0015 61.2231,199.4204 Z " fill="#000000"/><text fill="#000000" font-family="sans-serif" font-size="12" lengthAdjust="spacing" textLength="65" x="79.25" y="200.5352">DriverClass</text><line style="stroke:#000000;stroke-width:1.5;" x1="8" x2="183" y1="212" y2="212"/><ellipse cx="18" cy="223" fill="none" rx="3" ry="3" style="stroke:#038048;stroke-width:1.0;"/><text fill="#000000" font-family="sans-serif" font-size="11" lengthAdjust="spacing" textLength="151" x="27" y="226.6348">String DriverLicenseNumber</text><ellipse cx="18" cy="235.9551" fill="none" rx="3" ry="3" style="stroke:#038048;stroke-width:1.0;"/><text fill="#000000" font-family="sans-serif" font-size="11" lengthAdjust="spacing" textLength="63" x="27" y="239.5898">String Email</text><line style="stroke:#000000;stroke-width:1.5;" x1="8" x2="183" y1="245.9102" y2="245.9102"/><!--MD5=[ef0b38684917b412096117be6b446bdc]
class InjuredPersonClass--><rect codeLine="33" fill="#FFFFFF" filter="url(#f7apuylw0neox)" height="99.8203" id="InjuredPersonClass" style="stroke:#000000;stroke-width:1.5;" width="160" x="219.25" y="167"/><ellipse cx="242.35" cy="183" fill="#ADD1B2" rx="11" ry="11" style="stroke:#000000;stroke-width:1.0;"/><path d="M244.8231,189.1431 Q244.2421,189.4419 243.6029,189.5913 Q242.9638,189.7407 242.2582,189.7407 Q239.7514,189.7407 238.4315,188.0889 Q237.1117,186.437 237.1117,183.3159 Q237.1117,180.1865 238.4315,178.5347 Q239.7514,176.8828 242.2582,176.8828 Q242.9638,176.8828 243.6112,177.0322 Q244.2587,177.1816 244.8231,177.4805 L244.8231,180.2031 Q244.1923,179.6221 243.5988,179.3523 Q243.0053,179.0825 242.3744,179.0825 Q241.0297,179.0825 240.3449,180.1492 Q239.6601,181.2158 239.6601,183.3159 Q239.6601,185.4077 240.3449,186.4744 Q241.0297,187.541 242.3744,187.541 Q243.0053,187.541 243.5988,187.2712 Q244.1923,187.0015 244.8231,186.4204 Z " fill="#000000"/><text fill="#000000" font-family="sans-serif" font-size="12" lengthAdjust="spacing" textLength="110" x="258.15" y="187.5352">InjuredPersonClass</text><line style="stroke:#000000;stroke-width:1.5;" x1="220.25" x2="378.25" y1="199" y2="199"/><ellipse cx="230.25" cy="210" fill="none" rx="3" ry="3" style="stroke:#038048;stroke-width:1.0;"/><text fill="#000000" font-family="sans-serif" font-size="11" lengthAdjust="spacing" textLength="128" x="239.25" y="213.6348">string InjuryDescription</text><ellipse cx="230.25" cy="222.9551" fill="none" rx="3" ry="3" style="stroke:#038048;stroke-width:1.0;"/><text fill="#000000" font-family="sans-serif" font-size="11" lengthAdjust="spacing" textLength="99" x="239.25" y="226.5898">code SeverityCode</text><ellipse cx="230.25" cy="235.9102" fill="none" rx="3" ry="3" style="stroke:#038048;stroke-width:1.0;"/><text fill="#000000" font-family="sans-serif" font-size="11" lengthAdjust="spacing" textLength="132" x="239.25" y="239.5449">string InjuryPrivacyCode</text><ellipse cx="230.25" cy="248.8652" fill="none" rx="3" ry="3" style="stroke:#038048;stroke-width:1.0;"/><text fill="#000000" font-family="sans-serif" font-size="11" lengthAdjust="spacing" textLength="134" x="239.25" y="252.5">boolean ThroughWindow</text><line style="stroke:#000000;stroke-width:1.5;" x1="220.25" x2="378.25" y1="258.8203" y2="258.8203"/><!--MD5=[420771b976db5864f9ff95d441c4d2c9]
class CrashClass--><rect codeLine="46" fill="#FFFFFF" filter="url(#f7apuylw0neox)" height="73.9102" id="CrashClass" style="stroke:#000000;stroke-width:1.5;" width="205" x="639" y="180"/><ellipse cx="705.75" cy="196" fill="#ADD1B2" rx="11" ry="11" style="stroke:#000000;stroke-width:1.0;"/><path d="M708.2231,202.1431 Q707.6421,202.4419 707.0029,202.5913 Q706.3638,202.7407 705.6582,202.7407 Q703.1514,202.7407 701.8315,201.0889 Q700.5117,199.437 700.5117,196.3159 Q700.5117,193.1865 701.8315,191.5347 Q703.1514,189.8828 705.6582,189.8828 Q706.3638,189.8828 707.0112,190.0322 Q707.6587,190.1816 708.2231,190.4805 L708.2231,193.2031 Q707.5923,192.6221 706.9988,192.3523 Q706.4053,192.0825 705.7744,192.0825 Q704.4297,192.0825 703.7449,193.1492 Q703.0601,194.2158 703.0601,196.3159 Q703.0601,198.4077 703.7449,199.4744 Q704.4297,200.541 705.7744,200.541 Q706.4053,200.541 706.9988,200.2712 Q707.5923,200.0015 708.2231,199.4204 Z " fill="#000000"/><text fill="#000000" font-family="sans-serif" font-size="12" lengthAdjust="spacing" textLength="63" x="726.25" y="200.5352">CrashClass</text><line style="stroke:#000000;stroke-width:1.5;" x1="640" x2="843" y1="212" y2="212"/><ellipse cx="650" cy="223" fill="none" rx="3" ry="3" style="stroke:#038048;stroke-width:1.0;"/><text fill="#000000" font-family="sans-serif" font-size="11" lengthAdjust="spacing" textLength="82" x="659" y="226.6348">date CrashDate</text><ellipse cx="650" cy="235.9551" fill="none" rx="3" ry="3" style="stroke:#038048;stroke-width:1.0;"/><text fill="#000000" font-family="sans-serif" font-size="11" lengthAdjust="spacing" textLength="179" x="659" y="239.5898">string CrashLocationCoordinates</text><line style="stroke:#000000;stroke-width:1.5;" x1="640" x2="843" y1="245.9102" y2="245.9102"/><!--MD5=[6cb8d414f2115e411d92fcbf100d9d8e]
class ChargeClass--><rect codeLine="40" fill="#FFFFFF" filter="url(#f7apuylw0neox)" height="86.8652" id="ChargeClass" style="stroke:#000000;stroke-width:1.5;" width="189" x="415" y="173.5"/><ellipse cx="469.75" cy="189.5" fill="#ADD1B2" rx="11" ry="11" style="stroke:#000000;stroke-width:1.0;"/><path d="M472.2231,195.6431 Q471.6421,195.9419 471.0029,196.0913 Q470.3638,196.2407 469.6582,196.2407 Q467.1514,196.2407 465.8315,194.5889 Q464.5117,192.937 464.5117,189.8159 Q464.5117,186.6865 465.8315,185.0347 Q467.1514,183.3828 469.6582,183.3828 Q470.3638,183.3828 471.0112,183.5322 Q471.6587,183.6816 472.2231,183.9805 L472.2231,186.7031 Q471.5923,186.1221 470.9988,185.8523 Q470.4053,185.5825 469.7744,185.5825 Q468.4297,185.5825 467.7449,186.6492 Q467.0601,187.7158 467.0601,189.8159 Q467.0601,191.9077 467.7449,192.9744 Q468.4297,194.041 469.7744,194.041 Q470.4053,194.041 470.9988,193.7712 Q471.5923,193.5015 472.2231,192.9204 Z " fill="#000000"/><text fill="#000000" font-family="sans-serif" font-size="12" lengthAdjust="spacing" textLength="71" x="490.25" y="194.0352">ChargeClass</text><line style="stroke:#000000;stroke-width:1.5;" x1="416" x2="603" y1="205.5" y2="205.5"/><ellipse cx="426" cy="216.5" fill="none" rx="3" ry="3" style="stroke:#038048;stroke-width:1.0;"/><text fill="#000000" font-family="sans-serif" font-size="11" lengthAdjust="spacing" textLength="97" x="435" y="220.1348">string Description</text><ellipse cx="426" cy="229.4551" fill="none" rx="3" ry="3" style="stroke:#038048;stroke-width:1.0;"/><text fill="#000000" font-family="sans-serif" font-size="11" lengthAdjust="spacing" textLength="90" x="435" y="233.0898">boolean isFelony</text><ellipse cx="426" cy="242.4102" fill="none" rx="3" ry="3" style="stroke:#038048;stroke-width:1.0;"/><text fill="#000000" font-family="sans-serif" font-size="11" lengthAdjust="spacing" textLength="163" x="435" y="246.0449">boolean isCriminalInformation</text><line style="stroke:#000000;stroke-width:1.5;" x1="416" x2="603" y1="252.3652" y2="252.3652"/><!--MD5=[905ca9956ae2f23fa692f1bc06ddcdb1]
class PersonClass--><rect codeLine="20" fill="#FFFFFF" filter="url(#f7apuylw0neox)" height="99.8203" id="PersonClass" style="stroke:#000000;stroke-width:1.5;" width="126" x="236.25" y="7"/><ellipse cx="262.5" cy="23" fill="#ADD1B2" rx="11" ry="11" style="stroke:#000000;stroke-width:1.0;"/><path d="M264.9731,29.1431 Q264.3921,29.4419 263.7529,29.5913 Q263.1138,29.7407 262.4082,29.7407 Q259.9014,29.7407 258.5815,28.0889 Q257.2617,26.437 257.2617,23.3159 Q257.2617,20.1865 258.5815,18.5347 Q259.9014,16.8828 262.4082,16.8828 Q263.1138,16.8828 263.7612,17.0322 Q264.4087,17.1816 264.9731,17.4805 L264.9731,20.2031 Q264.3423,19.6221 263.7488,19.3523 Q263.1553,19.0825 262.5244,19.0825 Q261.1797,19.0825 260.4949,20.1492 Q259.8101,21.2158 259.8101,23.3159 Q259.8101,25.4077 260.4949,26.4744 Q261.1797,27.541 262.5244,27.541 Q263.1553,27.541 263.7488,27.2712 Q264.3423,27.0015 264.9731,26.4204 Z " fill="#000000"/><text fill="#000000" font-family="sans-serif" font-size="12" lengthAdjust="spacing" textLength="69" x="279" y="27.5352">PersonClass</text><line style="stroke:#000000;stroke-width:1.5;" x1="237.25" x2="361.25" y1="39" y2="39"/><ellipse cx="247.25" cy="50" fill="none" rx="3" ry="3" style="stroke:#038048;stroke-width:1.0;"/><text fill="#000000" font-family="sans-serif" font-size="11" lengthAdjust="spacing" textLength="75" x="256.25" y="53.6348">date BirthDate</text><ellipse cx="247.25" cy="62.9551" fill="none" rx="3" ry="3" style="stroke:#038048;stroke-width:1.0;"/><text fill="#000000" font-family="sans-serif" font-size="11" lengthAdjust="spacing" textLength="89" x="256.25" y="66.5898">string FirstName</text><ellipse cx="247.25" cy="75.9102" fill="none" rx="3" ry="3" style="stroke:#038048;stroke-width:1.0;"/><text fill="#000000" font-family="sans-serif" font-size="11" lengthAdjust="spacing" textLength="100" x="256.25" y="79.5449">string MiddleName</text><ellipse cx="247.25" cy="88.8652" fill="none" rx="3" ry="3" style="stroke:#038048;stroke-width:1.0;"/><text fill="#000000" font-family="sans-serif" font-size="11" lengthAdjust="spacing" textLength="87" x="256.25" y="92.5">string LastName</text><line style="stroke:#000000;stroke-width:1.5;" x1="237.25" x2="361.25" y1="98.8203" y2="98.8203"/><!--MD5=[cb820246629010820df1cc716d513b95]
reverse link CrashDriverInfoClass to DriverClass--><path codeLine="12" d="M429.14,86.322 C413.01,93.36 395.578,100.69 379.25,107 C301.378,137.093 278.808,136.107 201.25,167 C191.268,170.9762 180.875,175.4063 170.67,179.9318 " fill="none" id="CrashDriverInfoClass-backto-DriverClass" style="stroke:#000000;stroke-width:1.0;"/><polygon fill="none" points="441.182,81.019,434.0787,79.7768,430.2,85.8559,437.3033,87.0981,441.182,81.019" style="stroke:#000000;stroke-width:1.0;"/><!--MD5=[3478f06e0aa66bd31312dcaf6796e030]
reverse link CrashDriverInfoClass to InjuredPersonClass--><path codeLine="13" d="M452.775,89.662 C425.952,111.735 389.636,141.62 359.058,166.783 " fill="none" id="CrashDriverInfoClass-backto-InjuredPersonClass" style="stroke:#000000;stroke-width:1.0;"/><polygon fill="none" points="462.92,81.313,455.7454,82.0376,453.6548,88.939,460.8294,88.2144,462.92,81.313" style="stroke:#000000;stroke-width:1.0;"/><!--MD5=[3d36ad236828587c18bbfb53d192e026]
reverse link CrashDriverInfoClass to CrashClass--><path codeLine="14" d="M539.014,88.187 C580.37,114.324 640.276,152.184 684.154,179.9153 " fill="none" id="CrashDriverInfoClass-backto-CrashClass" style="stroke:#000000;stroke-width:1.0;"/><polygon fill="none" points="527.87,81.144,530.8046,87.731,538.0135,87.5556,535.079,80.9686,527.87,81.144" style="stroke:#000000;stroke-width:1.0;"/><!--MD5=[f32154413149623008b9f0903cab8625]
reverse link CrashDriverInfoClass to ChargeClass--><path codeLine="15" d="M495.414,94.553 C498.089,118.028 501.573,148.615 504.376,173.2201 " fill="none" id="CrashDriverInfoClass-backto-ChargeClass" style="stroke:#000000;stroke-width:1.0;"/><polygon fill="none" points="493.906,81.313,490.6109,87.7272,495.2643,93.2359,498.5595,86.8217,493.906,81.313" style="stroke:#000000;stroke-width:1.0;"/><!--MD5=[c07fe59bf9c78b9351b20c4eff252868]
reverse link PersonClass to DriverClass--><path codeLine="17" d="M220,119.38 C193.588,139.836 165.032,161.953 141.914,179.8584 " fill="none" id="PersonClass-backto-DriverClass" style="stroke:#000000;stroke-width:1.0;"/><polygon fill="none" points="216.002,113.623,236.1,106.91,224.574,124.691,216.002,113.623" style="stroke:#000000;stroke-width:1.0;"/><!--MD5=[ad85be9635d54ac0c21ccd3f73019028]
reverse link PersonClass to InjuredPersonClass--><path codeLine="18" d="M299.25,127.485 C299.25,140.771 299.25,154.422 299.25,166.904 " fill="none" id="PersonClass-backto-InjuredPersonClass" style="stroke:#000000;stroke-width:1.0;"/><polygon fill="none" points="292.25,127.126,299.25,107.126,306.25,127.126,292.25,127.126" style="stroke:#000000;stroke-width:1.0;"/><!--MD5=[45ce99fd36ce7419813e6d74988efa4e]
link PersonClass to ChargeClass--><path codeLine="51" d="M366.332,108.472 C392.752,128.349 422.87,151.01 448.625,170.3866 " fill="none" id="PersonClass-ChargeClass" style="stroke:#000000;stroke-width:1.0;"/><polygon fill="#000000" points="452.719,173.4673,447.9316,164.8603,448.7234,170.4615,443.1222,171.2533,452.719,173.4673" style="stroke:#000000;stroke-width:1.0;"/><polygon fill="#000000" points="362.257,105.405,367.0427,114.0129,366.252,108.4116,371.8533,107.6209,362.257,105.405" style="stroke:#000000;stroke-width:1.0;"/><!--MD5=[c1594bbac369bf12ecb5a48859661bf3]
@startuml

	skinparam class {
		TextColor Red
		BackgroundColor White
		ArrowColor Black
		BorderColor Black
	}

	class CrashDriverInfoClass{
	}

	CrashDriverInfoClass o- - DriverClass
	CrashDriverInfoClass o- - InjuredPersonClass
	CrashDriverInfoClass o- - CrashClass
	CrashDriverInfoClass o- - ChargeClass

	PersonClass <|- - DriverClass
	PersonClass <|- - InjuredPersonClass
	
	class PersonClass{
		+date BirthDate
		+string FirstName
		+string MiddleName
		+string LastName
	}
	
	class DriverClass{
		+String DriverLicenseNumber
		+String Email
	
	}

	class InjuredPersonClass{
		+string InjuryDescription
		+code SeverityCode
		+string InjuryPrivacyCode
		+boolean ThroughWindow
	}

	class ChargeClass{
		+string Description
		+boolean isFelony
		+boolean isCriminalInformation
	}

	class CrashClass{
		+date CrashDate
		+string CrashLocationCoordinates
	}

	PersonClass <- -> ChargeClass

@enduml

PlantUML version 1.2022.1(Tue Feb 01 13:19:58 EST 2022)
(GPL source distribution)
Java Runtime: OpenJDK Runtime Environment
JVM: OpenJDK 64-Bit Server VM
Default Encoding: UTF-8
Language: en
Country: US
--></g></svg>