<svg id="mermaid-1636582657873" width="100%" xmlns="http://www.w3.org/2000/svg" xmlns:xlink="http://www.w3.org/1999/xlink" height="232.1875" style="max-width: 785.25px;" viewBox="-20 -20 785.25 232.1875"><style>#mermaid-1636582657873{font-family:"trebuchet ms",verdana,arial,sans-serif;font-size:16px;fill:#000000;}#mermaid-1636582657873 .error-icon{fill:#552222;}#mermaid-1636582657873 .error-text{fill:#552222;stroke:#552222;}#mermaid-1636582657873 .edge-thickness-normal{stroke-width:2px;}#mermaid-1636582657873 .edge-thickness-thick{stroke-width:3.5px;}#mermaid-1636582657873 .edge-pattern-solid{stroke-dasharray:0;}#mermaid-1636582657873 .edge-pattern-dashed{stroke-dasharray:3;}#mermaid-1636582657873 .edge-pattern-dotted{stroke-dasharray:2;}#mermaid-1636582657873 .marker{fill:#666;stroke:#666;}#mermaid-1636582657873 .marker.cross{stroke:#666;}#mermaid-1636582657873 svg{font-family:"trebuchet ms",verdana,arial,sans-serif;font-size:16px;}#mermaid-1636582657873 g.classGroup text{fill:#999;fill:#111111;stroke:none;font-family:"trebuchet ms",verdana,arial,sans-serif;font-size:10px;}#mermaid-1636582657873 g.classGroup text .title{font-weight:bolder;}#mermaid-1636582657873 .classTitle{font-weight:bolder;}#mermaid-1636582657873 .node rect,#mermaid-1636582657873 .node circle,#mermaid-1636582657873 .node ellipse,#mermaid-1636582657873 .node polygon,#mermaid-1636582657873 .node path{fill:#eee;stroke:#999;stroke-width:1px;}#mermaid-1636582657873 .divider{stroke:#999;stroke:1;}#mermaid-1636582657873 g.clickable{cursor:pointer;}#mermaid-1636582657873 g.classGroup rect{fill:#eee;stroke:#999;}#mermaid-1636582657873 g.classGroup line{stroke:#999;stroke-width:1;}#mermaid-1636582657873 .classLabel .box{stroke:none;stroke-width:0;fill:#eee;opacity:0.5;}#mermaid-1636582657873 .classLabel .label{fill:#999;font-size:10px;}#mermaid-1636582657873 .relation{stroke:#666;stroke-width:1;fill:none;}#mermaid-1636582657873 .dashed-line{stroke-dasharray:3;}#mermaid-1636582657873 #compositionStart,#mermaid-1636582657873 .composition{fill:#666 !important;stroke:#666 !important;stroke-width:1;}#mermaid-1636582657873 #compositionEnd,#mermaid-1636582657873 .composition{fill:#666 !important;stroke:#666 !important;stroke-width:1;}#mermaid-1636582657873 #dependencyStart,#mermaid-1636582657873 .dependency{fill:#666 !important;stroke:#666 !important;stroke-width:1;}#mermaid-1636582657873 #dependencyStart,#mermaid-1636582657873 .dependency{fill:#666 !important;stroke:#666 !important;stroke-width:1;}#mermaid-1636582657873 #extensionStart,#mermaid-1636582657873 .extension{fill:#666 !important;stroke:#666 !important;stroke-width:1;}#mermaid-1636582657873 #extensionEnd,#mermaid-1636582657873 .extension{fill:#666 !important;stroke:#666 !important;stroke-width:1;}#mermaid-1636582657873 #aggregationStart,#mermaid-1636582657873 .aggregation{fill:#eee !important;stroke:#666 !important;stroke-width:1;}#mermaid-1636582657873 #aggregationEnd,#mermaid-1636582657873 .aggregation{fill:#eee !important;stroke:#666 !important;stroke-width:1;}#mermaid-1636582657873 .edgeTerminals{font-size:11px;}#mermaid-1636582657873:root{--mermaid-font-family:"trebuchet ms",verdana,arial,sans-serif;}</style><g></g><defs><marker id="extensionStart" class="extension" refX="0" refY="7" markerWidth="190" markerHeight="240" orient="auto"><path d="M 1,7 L18,13 V 1 Z"></path></marker></defs><defs><marker id="extensionEnd" refX="19" refY="7" markerWidth="20" markerHeight="28" orient="auto"><path d="M 1,1 V 13 L18,7 Z"></path></marker></defs><defs><marker id="compositionStart" class="extension" refX="0" refY="7" markerWidth="190" markerHeight="240" orient="auto"><path d="M 18,7 L9,13 L1,7 L9,1 Z"></path></marker></defs><defs><marker id="compositionEnd" refX="19" refY="7" markerWidth="20" markerHeight="28" orient="auto"><path d="M 18,7 L9,13 L1,7 L9,1 Z"></path></marker></defs><defs><marker id="aggregationStart" class="extension" refX="0" refY="7" markerWidth="190" markerHeight="240" orient="auto"><path d="M 18,7 L9,13 L1,7 L9,1 Z"></path></marker></defs><defs><marker id="aggregationEnd" refX="19" refY="7" markerWidth="20" markerHeight="28" orient="auto"><path d="M 18,7 L9,13 L1,7 L9,1 Z"></path></marker></defs><defs><marker id="dependencyStart" class="extension" refX="0" refY="7" markerWidth="190" markerHeight="240" orient="auto"><path d="M 5,7 L9,13 L1,7 L9,1 Z"></path></marker></defs><defs><marker id="dependencyEnd" refX="19" refY="7" markerWidth="20" markerHeight="28" orient="auto"><path d="M 18,7 L9,13 L14,7 L9,1 Z"></path></marker></defs><g id="classid-CrashDriverInfoClass-0" class="classGroup" transform="translate(123.140625,20.53125 )"><rect x="0" y="0" width="105.984375" height="30" class=" "></rect><text y="15" x="0"><tspan class="title" x="5">CrashDriverInfoClass</tspan></text><line x1="0" y1="21" y2="21" x2="105.984375"></line><text x="5" y="31" fill="white" class="classText"></text><line x1="0" y1="26" y2="26" x2="105.984375"></line><text x="5" y="41" fill="white" class="classText"></text></g><g id="classid-DriverClass-1" class="classGroup" transform="translate(0,131.09375 )"><rect x="0" y="0" width="144.71875" height="51.0625" class=" "></rect><text y="15" x="0"><tspan class="title" x="46.3671875">DriverClass</tspan></text><line x1="0" y1="21" y2="21" x2="144.71875"></line><text x="5" y="31" fill="white" class="classText"><tspan x="5">+String DriverLicenseNumber</tspan><tspan x="5" dy="10">+String Email</tspan></text><line x1="0" y1="47.0625" y2="47.0625" x2="144.71875"></line><text x="5" y="62.0625" fill="white" class="classText"></text></g><g id="classid-InjuredPersonClass-2" class="classGroup" transform="translate(194.71875,121.0625 )"><rect x="0" y="0" width="130.375" height="71.125" class=" "></rect><text y="15" x="0"><tspan class="title" x="20.7578125">InjuredPersonClass</tspan></text><line x1="0" y1="21.0625" y2="21.0625" x2="130.375"></line><text x="5" y="31.0625" fill="white" class="classText"><tspan x="5">+string InjuryDescription</tspan><tspan x="5" dy="10">+code SeverityCode</tspan><tspan x="5" dy="10">+string InjuryPrivacyCode</tspan><tspan x="5" dy="10">+boolean ThroughWindow</tspan></text><line x1="0" y1="67.125" y2="67.125" x2="130.375"></line><text x="5" y="82.125" fill="white" class="classText"></text></g><g id="classid-CrashClass-3" class="classGroup" transform="translate(375.09375,131.09375 )"><rect x="0" y="0" width="164.625" height="51.0625" class=" "></rect><text y="15" x="0"><tspan class="title" x="57.828125">CrashClass</tspan></text><line x1="0" y1="21" y2="21" x2="164.625"></line><text x="5" y="31" fill="white" class="classText"><tspan x="5">+date CrashDate</tspan><tspan x="5" dy="10">+string CrashLocationCoordinates</tspan></text><line x1="0" y1="47.0625" y2="47.0625" x2="164.625"></line><text x="5" y="62.0625" fill="white" class="classText"></text></g><g id="classid-ChargeClass-4" class="classGroup" transform="translate(589.71875,126.09375 )"><rect x="0" y="0" width="155.53125" height="61.0625" class=" "></rect><text y="15" x="0"><tspan class="title" x="50.0546875">ChargeClass</tspan></text><line x1="0" y1="21.0625" y2="21.0625" x2="155.53125"></line><text x="5" y="31.0625" fill="white" class="classText"><tspan x="5">+string Description</tspan><tspan x="5" dy="10">+boolean isFelony</tspan><tspan x="5" dy="10">+boolean isCriminalInformation</tspan></text><line x1="0" y1="57.0625" y2="57.0625" x2="155.53125"></line><text x="5" y="72.0625" fill="white" class="classText"></text></g><g id="classid-PersonClass-5" class="classGroup" transform="translate(296.96875,0 )"><rect x="0" y="0" width="103.375" height="71.0625" class=" "></rect><text y="15" x="0"><tspan class="title" x="24.3046875">PersonClass</tspan></text><line x1="0" y1="21" y2="21" x2="103.375"></line><text x="5" y="31" fill="white" class="classText"><tspan x="5">+date BirthDate</tspan><tspan x="5" dy="10">+string FirstName</tspan><tspan x="5" dy="10">+string MiddleName</tspan><tspan x="5" dy="10">+string LastName</tspan></text><line x1="0" y1="67.0625" y2="67.0625" x2="103.375"></line><text x="5" y="82.0625" fill="white" class="classText"></text></g><path d="M147.93908508647394,50.53125L133.6758000720616,58.119791666666664C119.41251505764929,65.70833333333333,90.88594502882465,80.88541666666667,77.58671230199401,94.3125C64.2874795751634,107.73958333333333,66.21558415032679,119.41666666666667,67.17963643790848,125.25520833333333L68.1436887254902,131.09375" id="edge0" class="relation" marker-start="url(#aggregationStart)"></path><path d="M176.1328125,50.53125L176.1328125,58.119791666666664C176.1328125,65.70833333333333,176.1328125,80.88541666666667,181.89637889146888,92.640625C187.65994528293774,104.39583333333333,199.18707806587545,112.72916666666667,204.95064445734434,116.89583333333333L210.7142108488132,121.0625" id="edge1" class="relation" marker-start="url(#aggregationStart)"></path><path d="M229.125,46.93539600866595L267.171875,55.123246673888296C305.21875,63.31109733911063,381.3125,79.68679866955532,419.359375,93.71319100144433C457.40625,107.73958333333333,457.40625,119.41666666666667,457.40625,125.25520833333333L457.40625,131.09375" id="edge2" class="relation" marker-start="url(#aggregationStart)"></path><path d="M229.125,43.62507330764075L286.3450520833333,52.36464442303395C343.5651041666667,61.10421553842716,458.0052083333333,78.58335776921358,523.0797959397574,92.32813721794012C588.1543835461816,106.07291666666667,603.8634545923633,116.08333333333333,611.7179901154541,121.08854166666667L619.5725256385449,126.09375" id="edge3" class="relation" marker-start="url(#aggregationStart)"></path><path d="M296.96875,51.78230506634744L273.49609375,59.16233755528953C250.0234375,66.54237004423163,203.078125,81.30243502211582,171.52927134395426,94.52100917772457C139.9804176879085,107.73958333333333,123.828022875817,119.41666666666667,115.75182546977125,125.25520833333333L107.6756280637255,131.09375" id="edge4" class="relation" marker-start="url(#extensionStart)"></path><path d="M348.65625,71.0625L348.65625,75.22916666666667C348.65625,79.39583333333333,348.65625,87.72916666666667,342.5502988476092,96.0625C336.4443476952185,104.39583333333333,324.2324453904369,112.72916666666667,318.1264942380461,116.89583333333333L312.02054308565533,121.0625" id="edge5" class="relation" marker-start="url(#extensionStart)"></path><path d="M400.34375,45.045974400095034L446.5338541666667,53.54872866674586C492.7239583333333,62.05148293339669,585.1041666666666,79.05699146669834,630.4678174449605,92.5649540666825C675.8314682232542,106.07291666666667,674.1785614465084,116.08333333333333,673.3521080581355,121.08854166666667L672.5256546697626,126.09375" id="edge6" class="relation" marker-start="url(#dependencyStart)" marker-end="url(#dependencyEnd)"></path></svg>