<svg id="mermaid-1624911986287" width="100%" xmlns="http://www.w3.org/2000/svg" xmlns:xlink="http://www.w3.org/1999/xlink" height="442.3125" style="max-width: 593.1875px;" viewBox="-20 -20 593.1875 442.3125"><style>#mermaid-1624911986287{font-family:"trebuchet ms",verdana,arial,sans-serif;font-size:16px;fill:#000000;}#mermaid-1624911986287 .error-icon{fill:#552222;}#mermaid-1624911986287 .error-text{fill:#552222;stroke:#552222;}#mermaid-1624911986287 .edge-thickness-normal{stroke-width:2px;}#mermaid-1624911986287 .edge-thickness-thick{stroke-width:3.5px;}#mermaid-1624911986287 .edge-pattern-solid{stroke-dasharray:0;}#mermaid-1624911986287 .edge-pattern-dashed{stroke-dasharray:3;}#mermaid-1624911986287 .edge-pattern-dotted{stroke-dasharray:2;}#mermaid-1624911986287 .marker{fill:#666;stroke:#666;}#mermaid-1624911986287 .marker.cross{stroke:#666;}#mermaid-1624911986287 svg{font-family:"trebuchet ms",verdana,arial,sans-serif;font-size:16px;}#mermaid-1624911986287 g.classGroup text{fill:#999;fill:#111111;stroke:none;font-family:"trebuchet ms",verdana,arial,sans-serif;font-size:10px;}#mermaid-1624911986287 g.classGroup text .title{font-weight:bolder;}#mermaid-1624911986287 .classTitle{font-weight:bolder;}#mermaid-1624911986287 .node rect,#mermaid-1624911986287 .node circle,#mermaid-1624911986287 .node ellipse,#mermaid-1624911986287 .node polygon,#mermaid-1624911986287 .node path{fill:#eee;stroke:#999;stroke-width:1px;}#mermaid-1624911986287 .divider{stroke:#999;stroke:1;}#mermaid-1624911986287 g.clickable{cursor:pointer;}#mermaid-1624911986287 g.classGroup rect{fill:#eee;stroke:#999;}#mermaid-1624911986287 g.classGroup line{stroke:#999;stroke-width:1;}#mermaid-1624911986287 .classLabel .box{stroke:none;stroke-width:0;fill:#eee;opacity:0.5;}#mermaid-1624911986287 .classLabel .label{fill:#999;font-size:10px;}#mermaid-1624911986287 .relation{stroke:#666;stroke-width:1;fill:none;}#mermaid-1624911986287 .dashed-line{stroke-dasharray:3;}#mermaid-1624911986287 #compositionStart,#mermaid-1624911986287 .composition{fill:#666 !important;stroke:#666 !important;stroke-width:1;}#mermaid-1624911986287 #compositionEnd,#mermaid-1624911986287 .composition{fill:#666 !important;stroke:#666 !important;stroke-width:1;}#mermaid-1624911986287 #dependencyStart,#mermaid-1624911986287 .dependency{fill:#666 !important;stroke:#666 !important;stroke-width:1;}#mermaid-1624911986287 #dependencyStart,#mermaid-1624911986287 .dependency{fill:#666 !important;stroke:#666 !important;stroke-width:1;}#mermaid-1624911986287 #extensionStart,#mermaid-1624911986287 .extension{fill:#666 !important;stroke:#666 !important;stroke-width:1;}#mermaid-1624911986287 #extensionEnd,#mermaid-1624911986287 .extension{fill:#666 !important;stroke:#666 !important;stroke-width:1;}#mermaid-1624911986287 #aggregationStart,#mermaid-1624911986287 .aggregation{fill:#eee !important;stroke:#666 !important;stroke-width:1;}#mermaid-1624911986287 #aggregationEnd,#mermaid-1624911986287 .aggregation{fill:#eee !important;stroke:#666 !important;stroke-width:1;}#mermaid-1624911986287 .edgeTerminals{font-size:11px;}#mermaid-1624911986287:root{--mermaid-font-family:"trebuchet ms",verdana,arial,sans-serif;}</style><g></g><defs><marker id="extensionStart" class="extension" refX="0" refY="7" markerWidth="190" markerHeight="240" orient="auto"><path d="M 1,7 L18,13 V 1 Z"></path></marker></defs><defs><marker id="extensionEnd" refX="19" refY="7" markerWidth="20" markerHeight="28" orient="auto"><path d="M 1,1 V 13 L18,7 Z"></path></marker></defs><defs><marker id="compositionStart" class="extension" refX="0" refY="7" markerWidth="190" markerHeight="240" orient="auto"><path d="M 18,7 L9,13 L1,7 L9,1 Z"></path></marker></defs><defs><marker id="compositionEnd" refX="19" refY="7" markerWidth="20" markerHeight="28" orient="auto"><path d="M 18,7 L9,13 L1,7 L9,1 Z"></path></marker></defs><defs><marker id="aggregationStart" class="extension" refX="0" refY="7" markerWidth="190" markerHeight="240" orient="auto"><path d="M 18,7 L9,13 L1,7 L9,1 Z"></path></marker></defs><defs><marker id="aggregationEnd" refX="19" refY="7" markerWidth="20" markerHeight="28" orient="auto"><path d="M 18,7 L9,13 L1,7 L9,1 Z"></path></marker></defs><defs><marker id="dependencyStart" class="extension" refX="0" refY="7" markerWidth="190" markerHeight="240" orient="auto"><path d="M 5,7 L9,13 L1,7 L9,1 Z"></path></marker></defs><defs><marker id="dependencyEnd" refX="19" refY="7" markerWidth="20" markerHeight="28" orient="auto"><path d="M 18,7 L9,13 L14,7 L9,1 Z"></path></marker></defs><g id="classid-Person-0" class="classGroup" transform="translate(120.7890625,0.03125 )"><rect x="0" y="0" width="41.765625" height="30" class=" "></rect><text y="15" x="0"><tspan class="title" x="5">Person</tspan></text><line x1="0" y1="21" y2="21" x2="41.765625"></line><text x="5" y="31" fill="white" class="classText"></text><line x1="0" y1="26" y2="26" x2="41.765625"></line><text x="5" y="41" fill="white" class="classText"></text></g><g id="classid-PersonName-1" class="classGroup" transform="translate(0,80.0625 )"><rect x="0" y="0" width="133.9375" height="61.0625" class=" "></rect><text y="15" x="0"><tspan class="title" x="37.9140625">PersonName</tspan></text><line x1="0" y1="21" y2="21" x2="133.9375"></line><text x="5" y="31" fill="white" class="classText"><tspan x="5">+String PersonGivenName</tspan><tspan x="5" dy="10">+String PersonMiddleName</tspan><tspan x="5" dy="10">+String PersonLastName</tspan></text><line x1="0" y1="57.0625" y2="57.0625" x2="133.9375"></line><text x="5" y="72.0625" fill="white" class="classText"></text></g><g id="classid-BirthDate-2" class="classGroup" transform="translate(183.9375,90.09375 )"><rect x="0" y="0" width="64.875" height="41" class=" "></rect><text y="15" x="0"><tspan class="title" x="10.1484375">BirthDate</tspan></text><line x1="0" y1="21" y2="21" x2="64.875"></line><text x="5" y="31" fill="white" class="classText"><tspan x="5">+Date Date</tspan></text><line x1="0" y1="37" y2="37" x2="64.875"></line><text x="5" y="52" fill="white" class="classText"></text></g><g id="classid-Activity-3" class="classGroup" transform="translate(353.84765625,0 )"><rect x="0" y="0" width="45.96875" height="30.0625" class=" "></rect><text y="15" x="0"><tspan class="title" x="5">Activity</tspan></text><line x1="0" y1="21.0625" y2="21.0625" x2="45.96875"></line><text x="5" y="31.0625" fill="white" class="classText"></text><line x1="0" y1="26.0625" y2="26.0625" x2="45.96875"></line><text x="5" y="41.0625" fill="white" class="classText"></text></g><g id="classid-Incident-4" class="classGroup" transform="translate(298.8125,95.59375 )"><rect x="0" y="0" width="48.21875" height="30" class=" "></rect><text y="15" x="0"><tspan class="title" x="5">Incident</tspan></text><line x1="0" y1="21" y2="21" x2="48.21875"></line><text x="5" y="31" fill="white" class="classText"></text><line x1="0" y1="26" y2="26" x2="48.21875"></line><text x="5" y="41" fill="white" class="classText"></text></g><g id="classid-Crash-5" class="classGroup" transform="translate(258.41796875,191.125 )"><rect x="0" y="0" width="35.953125" height="30" class=" "></rect><text y="15" x="0"><tspan class="title" x="5">Crash</tspan></text><line x1="0" y1="21" y2="21" x2="35.953125"></line><text x="5" y="31" fill="white" class="classText"></text><line x1="0" y1="26" y2="26" x2="35.953125"></line><text x="5" y="41" fill="white" class="classText"></text></g><g id="classid-ActivityDate-6" class="classGroup" transform="translate(397.03125,90.0625 )"><rect x="0" y="0" width="67.421875" height="41.0625" class=" "></rect><text y="15" x="0"><tspan class="title" x="5">ActivityDate</tspan></text><line x1="0" y1="21.0625" y2="21.0625" x2="67.421875"></line><text x="5" y="31.0625" fill="white" class="classText"><tspan x="5">+Date Date</tspan></text><line x1="0" y1="37.0625" y2="37.0625" x2="67.421875"></line><text x="5" y="52.0625" fill="white" class="classText"></text></g><g id="classid-Location-7" class="classGroup" transform="translate(344.37109375,191.125 )"><rect x="0" y="0" width="50.15625" height="30" class=" "></rect><text y="15" x="0"><tspan class="title" x="5">Location</tspan></text><line x1="0" y1="21" y2="21" x2="50.15625"></line><text x="5" y="31" fill="white" class="classText"></text><line x1="0" y1="26" y2="26" x2="50.15625"></line><text x="5" y="41" fill="white" class="classText"></text></g><g id="classid-Location2DGeospatialCoordinate-8" class="classGroup" transform="translate(288.11328125,271.125 )"><rect x="0" y="0" width="162.671875" height="30.0625" class=" "></rect><text y="15" x="0"><tspan class="title" x="5">Location2DGeospatialCoordinate</tspan></text><line x1="0" y1="21.0625" y2="21.0625" x2="162.671875"></line><text x="5" y="31.0625" fill="white" class="classText"></text><line x1="0" y1="26.0625" y2="26.0625" x2="162.671875"></line><text x="5" y="41.0625" fill="white" class="classText"></text></g><g id="classid-GeographicCoordinateLatitude-9" class="classGroup" transform="translate(189.359375,351.21875 )"><rect x="0" y="0" width="153.265625" height="51.0625" class=" "></rect><text y="15" x="0"><tspan class="title" x="5">GeographicCoordinateLatitude</tspan></text><line x1="0" y1="21.0625" y2="21.0625" x2="153.265625"></line><text x="5" y="31.0625" fill="white" class="classText"><tspan x="5">+Number LatitudeDegreeValue</tspan><tspan x="5" dy="10">+Number LatitudeMinuteValue</tspan></text><line x1="0" y1="47.0625" y2="47.0625" x2="153.265625"></line><text x="5" y="62.0625" fill="white" class="classText"></text></g><g id="classid-GeographicCoordinateLongitude-10" class="classGroup" transform="translate(392.625,351.1875 )"><rect x="0" y="0" width="160.5625" height="51.125" class=" "></rect><text y="15" x="0"><tspan class="title" x="5">GeographicCoordinateLongitude</tspan></text><line x1="0" y1="21.0625" y2="21.0625" x2="160.5625"></line><text x="5" y="31.0625" fill="white" class="classText"><tspan x="5">LongitudeDegreeValue</tspan><tspan x="5" dy="10">LongitudeMinuteValue</tspan></text><line x1="0" y1="47.125" y2="47.125" x2="160.5625"></line><text x="5" y="62.125" fill="white" class="classText"></text></g><path d="M120.7890625,26.22174688872621L111.81901041666667,31.028539073938507C102.84895833333333,35.835331259150806,84.90885416666667,45.4489156295754,75.93880208333333,54.42237448145437C66.96875,63.395833333333336,66.96875,71.72916666666667,66.96875,75.89583333333333L66.96875,80.0625" id="edge0" class="relation" marker-start="url(#dependencyStart)"></path><path d="M162.5546875,26.22174688872621L171.52473958333334,31.028539073938507C180.49479166666666,35.835331259150806,198.43489583333334,45.4489156295754,207.40494791666666,56.09424948145437C216.375,66.73958333333333,216.375,78.41666666666667,216.375,84.25520833333333L216.375,90.09375" id="edge1" class="relation" marker-start="url(#dependencyStart)"></path><path d="M356.5894198868072,30.0625L350.9781624056727,34.229166666666664C345.3669049245382,38.395833333333336,334.1443899622691,46.729166666666664,328.53313248113454,57.651041666666664C322.921875,68.57291666666667,322.921875,82.08333333333333,322.921875,88.83854166666667L322.921875,95.59375" id="edge2" class="relation" marker-start="url(#extensionStart)"></path><path d="M310.3539937394485,125.59375L304.69408332454043,132.34895833333334C299.03417290963233,139.10416666666666,287.71435207981614,152.61458333333334,282.0544416649081,163.53645833333334C276.39453125,174.45833333333334,276.39453125,182.79166666666666,276.39453125,186.95833333333334L276.39453125,191.125" id="edge3" class="relation" marker-start="url(#extensionStart)"></path><path d="M397.0746426131928,30.0625L402.6859000943273,34.229166666666664C408.2971575754618,38.395833333333336,419.5196725377309,46.729166666666664,425.13093001886546,56.729166666666664C430.7421875,66.72916666666667,430.7421875,78.39583333333333,430.7421875,84.22916666666667L430.7421875,90.0625" id="edge4" class="relation" marker-start="url(#dependencyStart)"></path><path d="M335.4897562605515,125.59375L341.14966667545957,132.34895833333334C346.80957709036767,139.10416666666666,358.12939792018386,152.61458333333334,363.7893083350919,163.53645833333334C369.44921875,174.45833333333334,369.44921875,182.79166666666666,369.44921875,186.95833333333334L369.44921875,191.125" id="edge5" class="relation" marker-start="url(#dependencyStart)"></path><path d="M369.44921875,221.125L369.44921875,225.29166666666666C369.44921875,229.45833333333334,369.44921875,237.79166666666666,369.44921875,246.125C369.44921875,254.45833333333334,369.44921875,262.7916666666667,369.44921875,266.9583333333333L369.44921875,271.125" id="edge6" class="relation" marker-start="url(#dependencyStart)"></path><path d="M330.6023553376269,301.1875L319.83399403135576,305.3541666666667C309.0656327250846,309.5208333333333,287.5289101125423,317.8541666666667,276.7605488062712,326.1927083333333C265.9921875,334.53125,265.9921875,342.875,265.9921875,347.046875L265.9921875,351.21875" id="edge7" class="relation" marker-start="url(#dependencyStart)"></path><path d="M408.2960821623731,301.1875L419.06444346864424,305.3541666666667C429.83280477491536,309.5208333333333,451.3695273874577,317.8541666666667,462.1378886937289,326.1875C472.90625,334.5208333333333,472.90625,342.8541666666667,472.90625,347.0208333333333L472.90625,351.1875" id="edge8" class="relation" marker-start="url(#dependencyStart)"></path></svg>