<?xml version="1.0" encoding="UTF-8" standalone="no"?><svg xmlns="http://www.w3.org/2000/svg" xmlns:xlink="http://www.w3.org/1999/xlink" contentScriptType="application/ecmascript" contentStyleType="text/css" height="273px" preserveAspectRatio="none" style="width:849px;height:273px;background:#00000000;" version="1.1" viewBox="0 0 849 273" width="849px" zoomAndPan="magnify"><defs/><g><!--MD5=[0ca52150d58ea9226726bc176f1d20cf]
class CrashDriverInfo--><rect codeLine="6" fill="#F8F8F8" height="48" id="CrashDriverInfo" style="stroke:#383838;stroke-width:1.5;" width="121" x="422" y="33"/><ellipse cx="437" cy="49" fill="#C2C2C2" rx="11" ry="11" style="stroke:#383838;stroke-width:1.0;"/><path d="M439.4731,55.1431 Q438.8921,55.4419 438.2529,55.5913 Q437.6138,55.7407 436.9082,55.7407 Q434.4014,55.7407 433.0815,54.0889 Q431.7617,52.437 431.7617,49.3159 Q431.7617,46.1865 433.0815,44.5347 Q434.4014,42.8828 436.9082,42.8828 Q437.6138,42.8828 438.2612,43.0322 Q438.9087,43.1816 439.4731,43.4805 L439.4731,46.2031 Q438.8423,45.6221 438.2488,45.3523 Q437.6553,45.0825 437.0244,45.0825 Q435.6797,45.0825 434.9949,46.1492 Q434.3101,47.2158 434.3101,49.3159 Q434.3101,51.4077 434.9949,52.4744 Q435.6797,53.541 437.0244,53.541 Q437.6553,53.541 438.2488,53.2712 Q438.8423,53.0015 439.4731,52.4204 Z " fill="#000000"/><text fill="#000000" font-family="sans-serif" font-size="12" lengthAdjust="spacing" textLength="89" x="451" y="53.5352">CrashDriverInfo</text><line style="stroke:#383838;stroke-width:1.5;" x1="423" x2="542" y1="65" y2="65"/><line style="stroke:#383838;stroke-width:1.5;" x1="423" x2="542" y1="73" y2="73"/><!--MD5=[eee9d396a8aca12c6c152931e8dc1ab6]
class Driver--><rect codeLine="24" fill="#F8F8F8" height="73.9102" id="Driver" style="stroke:#383838;stroke-width:1.5;" width="177" x="7" y="180"/><ellipse cx="73.75" cy="196" fill="#C2C2C2" rx="11" ry="11" style="stroke:#383838;stroke-width:1.0;"/><path d="M76.2231,202.1431 Q75.6421,202.4419 75.0029,202.5913 Q74.3638,202.7407 73.6582,202.7407 Q71.1514,202.7407 69.8315,201.0889 Q68.5117,199.437 68.5117,196.3159 Q68.5117,193.1865 69.8315,191.5347 Q71.1514,189.8828 73.6582,189.8828 Q74.3638,189.8828 75.0112,190.0322 Q75.6587,190.1816 76.2231,190.4805 L76.2231,193.2031 Q75.5923,192.6221 74.9988,192.3523 Q74.4053,192.0825 73.7744,192.0825 Q72.4297,192.0825 71.7449,193.1492 Q71.0601,194.2158 71.0601,196.3159 Q71.0601,198.4077 71.7449,199.4744 Q72.4297,200.541 73.7744,200.541 Q74.4053,200.541 74.9988,200.2712 Q75.5923,200.0015 76.2231,199.4204 Z " fill="#000000"/><text fill="#000000" font-family="sans-serif" font-size="12" lengthAdjust="spacing" textLength="35" x="94.25" y="200.5352">Driver</text><line style="stroke:#383838;stroke-width:1.5;" x1="8" x2="183" y1="212" y2="212"/><ellipse cx="18" cy="223" fill="none" rx="3" ry="3" style="stroke:#545454;stroke-width:1.0;"/><text fill="#000000" font-family="sans-serif" font-size="11" lengthAdjust="spacing" textLength="151" x="27" y="226.6348">String DriverLicenseNumber</text><ellipse cx="18" cy="235.9551" fill="none" rx="3" ry="3" style="stroke:#545454;stroke-width:1.0;"/><text fill="#000000" font-family="sans-serif" font-size="11" lengthAdjust="spacing" textLength="63" x="27" y="239.5898">String Email</text><line style="stroke:#383838;stroke-width:1.5;" x1="8" x2="183" y1="245.9102" y2="245.9102"/><!--MD5=[f8f84802d62f4f78f46c8f6bcd4fc602]
class InjuredPerson--><rect codeLine="30" fill="#F8F8F8" height="99.8203" id="InjuredPerson" style="stroke:#383838;stroke-width:1.5;" width="159" x="219" y="167"/><ellipse cx="255.15" cy="183" fill="#C2C2C2" rx="11" ry="11" style="stroke:#383838;stroke-width:1.0;"/><path d="M257.6231,189.1431 Q257.0421,189.4419 256.4029,189.5913 Q255.7638,189.7407 255.0582,189.7407 Q252.5514,189.7407 251.2315,188.0889 Q249.9117,186.437 249.9117,183.3159 Q249.9117,180.1865 251.2315,178.5347 Q252.5514,176.8828 255.0582,176.8828 Q255.7638,176.8828 256.4112,177.0322 Q257.0587,177.1816 257.6231,177.4805 L257.6231,180.2031 Q256.9923,179.6221 256.3988,179.3523 Q255.8053,179.0825 255.1744,179.0825 Q253.8297,179.0825 253.1449,180.1492 Q252.4601,181.2158 252.4601,183.3159 Q252.4601,185.4077 253.1449,186.4744 Q253.8297,187.541 255.1744,187.541 Q255.8053,187.541 256.3988,187.2712 Q256.9923,187.0015 257.6231,186.4204 Z " fill="#000000"/><text fill="#000000" font-family="sans-serif" font-size="12" lengthAdjust="spacing" textLength="80" x="273.85" y="187.5352">InjuredPerson</text><line style="stroke:#383838;stroke-width:1.5;" x1="220" x2="377" y1="199" y2="199"/><ellipse cx="230" cy="210" fill="none" rx="3" ry="3" style="stroke:#545454;stroke-width:1.0;"/><text fill="#000000" font-family="sans-serif" font-size="11" lengthAdjust="spacing" textLength="128" x="239" y="213.6348">String InjuryDescription</text><ellipse cx="230" cy="222.9551" fill="none" rx="3" ry="3" style="stroke:#545454;stroke-width:1.0;"/><text fill="#000000" font-family="sans-serif" font-size="11" lengthAdjust="spacing" textLength="101" x="239" y="226.5898">Code SeverityCode</text><ellipse cx="230" cy="235.9102" fill="none" rx="3" ry="3" style="stroke:#545454;stroke-width:1.0;"/><text fill="#000000" font-family="sans-serif" font-size="11" lengthAdjust="spacing" textLength="132" x="239" y="239.5449">String InjuryPrivacyCode</text><ellipse cx="230" cy="248.8652" fill="none" rx="3" ry="3" style="stroke:#545454;stroke-width:1.0;"/><text fill="#000000" font-family="sans-serif" font-size="11" lengthAdjust="spacing" textLength="133" x="239" y="252.5">Boolean ThroughWindow</text><line style="stroke:#383838;stroke-width:1.5;" x1="220" x2="377" y1="258.8203" y2="258.8203"/><!--MD5=[4bf124702e26e8742700d64b46e56cfa]
class Crash--><rect codeLine="43" fill="#F8F8F8" height="73.9102" id="Crash" style="stroke:#383838;stroke-width:1.5;" width="205" x="637" y="180"/><ellipse cx="718.75" cy="196" fill="#C2C2C2" rx="11" ry="11" style="stroke:#383838;stroke-width:1.0;"/><path d="M721.2231,202.1431 Q720.6421,202.4419 720.0029,202.5913 Q719.3638,202.7407 718.6582,202.7407 Q716.1514,202.7407 714.8315,201.0889 Q713.5117,199.437 713.5117,196.3159 Q713.5117,193.1865 714.8315,191.5347 Q716.1514,189.8828 718.6582,189.8828 Q719.3638,189.8828 720.0112,190.0322 Q720.6587,190.1816 721.2231,190.4805 L721.2231,193.2031 Q720.5923,192.6221 719.9988,192.3523 Q719.4053,192.0825 718.7744,192.0825 Q717.4297,192.0825 716.7449,193.1492 Q716.0601,194.2158 716.0601,196.3159 Q716.0601,198.4077 716.7449,199.4744 Q717.4297,200.541 718.7744,200.541 Q719.4053,200.541 719.9988,200.2712 Q720.5923,200.0015 721.2231,199.4204 Z " fill="#000000"/><text fill="#000000" font-family="sans-serif" font-size="12" lengthAdjust="spacing" textLength="33" x="739.25" y="200.5352">Crash</text><line style="stroke:#383838;stroke-width:1.5;" x1="638" x2="841" y1="212" y2="212"/><ellipse cx="648" cy="223" fill="none" rx="3" ry="3" style="stroke:#545454;stroke-width:1.0;"/><text fill="#000000" font-family="sans-serif" font-size="11" lengthAdjust="spacing" textLength="83" x="657" y="226.6348">Date CrashDate</text><ellipse cx="648" cy="235.9551" fill="none" rx="3" ry="3" style="stroke:#545454;stroke-width:1.0;"/><text fill="#000000" font-family="sans-serif" font-size="11" lengthAdjust="spacing" textLength="179" x="657" y="239.5898">String CrashLocationCoordinates</text><line style="stroke:#383838;stroke-width:1.5;" x1="638" x2="841" y1="245.9102" y2="245.9102"/><!--MD5=[b8a8351f4de83c8eb85722e96e223bf9]
class Charge--><rect codeLine="37" fill="#F8F8F8" height="86.8652" id="Charge" style="stroke:#383838;stroke-width:1.5;" width="188" x="413.25" y="173.5"/><ellipse cx="482.5" cy="189.5" fill="#C2C2C2" rx="11" ry="11" style="stroke:#383838;stroke-width:1.0;"/><path d="M484.9731,195.6431 Q484.3921,195.9419 483.7529,196.0913 Q483.1138,196.2407 482.4082,196.2407 Q479.9014,196.2407 478.5815,194.5889 Q477.2617,192.937 477.2617,189.8159 Q477.2617,186.6865 478.5815,185.0347 Q479.9014,183.3828 482.4082,183.3828 Q483.1138,183.3828 483.7612,183.5322 Q484.4087,183.6816 484.9731,183.9805 L484.9731,186.7031 Q484.3423,186.1221 483.7488,185.8523 Q483.1553,185.5825 482.5244,185.5825 Q481.1797,185.5825 480.4949,186.6492 Q479.8101,187.7158 479.8101,189.8159 Q479.8101,191.9077 480.4949,192.9744 Q481.1797,194.041 482.5244,194.041 Q483.1553,194.041 483.7488,193.7712 Q484.3423,193.5015 484.9731,192.9204 Z " fill="#000000"/><text fill="#000000" font-family="sans-serif" font-size="12" lengthAdjust="spacing" textLength="41" x="503" y="194.0352">Charge</text><line style="stroke:#383838;stroke-width:1.5;" x1="414.25" x2="600.25" y1="205.5" y2="205.5"/><ellipse cx="424.25" cy="216.5" fill="none" rx="3" ry="3" style="stroke:#545454;stroke-width:1.0;"/><text fill="#000000" font-family="sans-serif" font-size="11" lengthAdjust="spacing" textLength="97" x="433.25" y="220.1348">String Description</text><ellipse cx="424.25" cy="229.4551" fill="none" rx="3" ry="3" style="stroke:#545454;stroke-width:1.0;"/><text fill="#000000" font-family="sans-serif" font-size="11" lengthAdjust="spacing" textLength="89" x="433.25" y="233.0898">Boolean isFelony</text><ellipse cx="424.25" cy="242.4102" fill="none" rx="3" ry="3" style="stroke:#545454;stroke-width:1.0;"/><text fill="#000000" font-family="sans-serif" font-size="11" lengthAdjust="spacing" textLength="162" x="433.25" y="246.0449">Boolean isCriminalInformation</text><line style="stroke:#383838;stroke-width:1.5;" x1="414.25" x2="600.25" y1="252.3652" y2="252.3652"/><!--MD5=[09ce52be0ee7de43c61b6e2d59bf108b]
class Person--><rect codeLine="17" fill="#F8F8F8" height="99.8203" id="Person" style="stroke:#383838;stroke-width:1.5;" width="126" x="235.25" y="7"/><ellipse cx="275" cy="23" fill="#C2C2C2" rx="11" ry="11" style="stroke:#383838;stroke-width:1.0;"/><path d="M277.4731,29.1431 Q276.8921,29.4419 276.2529,29.5913 Q275.6138,29.7407 274.9082,29.7407 Q272.4014,29.7407 271.0815,28.0889 Q269.7617,26.437 269.7617,23.3159 Q269.7617,20.1865 271.0815,18.5347 Q272.4014,16.8828 274.9082,16.8828 Q275.6138,16.8828 276.2612,17.0322 Q276.9087,17.1816 277.4731,17.4805 L277.4731,20.2031 Q276.8423,19.6221 276.2488,19.3523 Q275.6553,19.0825 275.0244,19.0825 Q273.6797,19.0825 272.9949,20.1492 Q272.3101,21.2158 272.3101,23.3159 Q272.3101,25.4077 272.9949,26.4744 Q273.6797,27.541 275.0244,27.541 Q275.6553,27.541 276.2488,27.2712 Q276.8423,27.0015 277.4731,26.4204 Z " fill="#000000"/><text fill="#000000" font-family="sans-serif" font-size="12" lengthAdjust="spacing" textLength="39" x="294.5" y="27.5352">Person</text><line style="stroke:#383838;stroke-width:1.5;" x1="236.25" x2="360.25" y1="39" y2="39"/><ellipse cx="246.25" cy="50" fill="none" rx="3" ry="3" style="stroke:#545454;stroke-width:1.0;"/><text fill="#000000" font-family="sans-serif" font-size="11" lengthAdjust="spacing" textLength="76" x="255.25" y="53.6348">Date BirthDate</text><ellipse cx="246.25" cy="62.9551" fill="none" rx="3" ry="3" style="stroke:#545454;stroke-width:1.0;"/><text fill="#000000" font-family="sans-serif" font-size="11" lengthAdjust="spacing" textLength="89" x="255.25" y="66.5898">String FirstName</text><ellipse cx="246.25" cy="75.9102" fill="none" rx="3" ry="3" style="stroke:#545454;stroke-width:1.0;"/><text fill="#000000" font-family="sans-serif" font-size="11" lengthAdjust="spacing" textLength="100" x="255.25" y="79.5449">String MiddleName</text><ellipse cx="246.25" cy="88.8652" fill="none" rx="3" ry="3" style="stroke:#545454;stroke-width:1.0;"/><text fill="#000000" font-family="sans-serif" font-size="11" lengthAdjust="spacing" textLength="87" x="255.25" y="92.5">String LastName</text><line style="stroke:#383838;stroke-width:1.5;" x1="236.25" x2="360.25" y1="98.8203" y2="98.8203"/><!--MD5=[e91a41dca546614fe1ffb59f149bc9cf]
reverse link CrashDriverInfo to Driver--><path codeLine="9" d="M424.051,86.842 C409.257,93.779 393.288,100.931 378.25,107 C301.222,138.085 278.391,136.196 201.25,167 C191.271,170.9848 180.881,175.4198 170.677,179.9479 " fill="none" id="CrashDriverInfo-backto-Driver" style="stroke:#383838;stroke-width:1.0;"/><polygon fill="none" points="436.155,81.094,429.0193,80.0542,425.3149,86.2411,432.4506,87.2809,436.155,81.094" style="stroke:#383838;stroke-width:1.0;"/><!--MD5=[b3232c779758f8479a6932faba6ee344]
reverse link CrashDriverInfo to InjuredPerson--><path codeLine="10" d="M445.037,89.955 C419.365,111.999 384.74,141.732 355.566,166.783 " fill="none" id="CrashDriverInfo-backto-InjuredPerson" style="stroke:#383838;stroke-width:1.0;"/><polygon fill="none" points="455.1,81.313,447.9421,82.1875,445.9963,89.1311,453.1542,88.2566,455.1,81.313" style="stroke:#383838;stroke-width:1.0;"/><!--MD5=[dcac12265e2c941216f3f4e91d8ac5cd]
reverse link CrashDriverInfo to Crash--><path codeLine="11" d="M531.079,88.019 C573.602,114.162 635.352,152.125 680.555,179.9153 " fill="none" id="CrashDriverInfo-backto-Crash" style="stroke:#383838;stroke-width:1.0;"/><polygon fill="none" points="519.895,81.144,522.9113,87.694,530.1175,87.4289,527.1012,80.8789,519.895,81.144" style="stroke:#383838;stroke-width:1.0;"/><!--MD5=[42fea4975f65885373daaf2b9cd0dc2b]
reverse link CrashDriverInfo to Charge--><path codeLine="12" d="M487.982,94.223 C491.703,117.741 496.57,148.5 500.481,173.2201 " fill="none" id="CrashDriverInfo-backto-Charge" style="stroke:#383838;stroke-width:1.0;"/><polygon fill="none" points="485.939,81.313,482.9257,87.8644,487.8142,93.1656,490.8275,86.6142,485.939,81.313" style="stroke:#383838;stroke-width:1.0;"/><!--MD5=[24ae49f0737a4afb7a40e2461c79b3b9]
reverse link Person to Driver--><path codeLine="14" d="M219.123,119.587 C192.867,140.022 164.509,162.094 141.56,179.9558 " fill="none" id="Person-backto-Driver" style="stroke:#383838;stroke-width:1.0;"/><polygon fill="none" points="215.05,113.886,235.132,107.126,223.649,124.934,215.05,113.886" style="stroke:#383838;stroke-width:1.0;"/><!--MD5=[ab1a580c9405995c266ae23061a6d6ac]
reverse link Person to InjuredPerson--><path codeLine="15" d="M298.25,127.485 C298.25,140.771 298.25,154.422 298.25,166.904 " fill="none" id="Person-backto-InjuredPerson" style="stroke:#383838;stroke-width:1.0;"/><polygon fill="none" points="291.25,127.126,298.25,107.126,305.25,127.126,291.25,127.126" style="stroke:#383838;stroke-width:1.0;"/><!--MD5=[da62fefd1b724841c09df648a0d81c2c]
link Person to Charge--><path codeLine="48" d="M365.559,108.884 C391.712,128.656 421.439,151.128 446.887,170.3669 " fill="none" id="Person-Charge" style="stroke:#383838;stroke-width:1.0;"/><polygon fill="#383838" points="450.934,173.4259,446.1655,164.8084,446.945,170.4113,441.3421,171.1908,450.934,173.4259" style="stroke:#383838;stroke-width:1.0;"/><polygon fill="#383838" points="361.524,105.834,366.2905,114.4526,365.5123,108.8495,371.1154,108.0713,361.524,105.834" style="stroke:#383838;stroke-width:1.0;"/><!--MD5=[6115a3ac836a299ddcebdec1ae744533]
@startuml

skinparam shadowing false
skinparam monochrome true
skinparam backgroundColor transparent

	class CrashDriverInfo{
	}

	CrashDriverInfo o- - Driver
	CrashDriverInfo o- - InjuredPerson
	CrashDriverInfo o- - Crash
	CrashDriverInfo o- - Charge

	Person <|- - Driver
	Person <|- - InjuredPerson
	
	class Person{
		+Date BirthDate
		+String FirstName
		+String MiddleName
		+String LastName
	}
	
	class Driver{
		+String DriverLicenseNumber
		+String Email
	
	}

	class InjuredPerson{
		+String InjuryDescription
		+Code SeverityCode
		+String InjuryPrivacyCode
		+Boolean ThroughWindow
	}

	class Charge{
		+String Description
		+Boolean isFelony
		+Boolean isCriminalInformation
	}

	class Crash{
		+Date CrashDate
		+String CrashLocationCoordinates
	}

	Person <- -> Charge

@enduml

PlantUML version 1.2022.1(Tue Feb 01 13:19:58 EST 2022)
(GPL source distribution)
Java Runtime: OpenJDK Runtime Environment
JVM: OpenJDK 64-Bit Server VM
Default Encoding: UTF-8
Language: en
Country: US
--></g></svg>